<svg width="224" height="136" viewBox="0 0 224 136" fill="none" xmlns="http://www.w3.org/2000/svg">
<g filter="url(#filter0_d_2_7418)">
<rect x="53" y="33" width="118.369" height="30.1521" rx="15.076" fill="url(#paint0_linear_2_7418)" shape-rendering="crispEdges"/>
<path d="M97.4444 50.0606L97.8038 49.1023H101.517L101.876 50.0606H97.4444ZM99.6365 46.0837L98.223 49.4137L98.1272 49.6293L96.8814 52.576H95.7435L99.6365 43.7718L103.53 52.576H102.392L101.17 49.7012L101.074 49.4616L99.6365 46.0837ZM108.622 43.2328H109.581V52.576H108.622V43.2328ZM104.011 49.821C104.011 49.2221 104.134 48.711 104.382 48.2877C104.629 47.8565 104.961 47.5251 105.376 47.2935C105.791 47.0619 106.247 46.9461 106.742 46.9461C107.205 46.9461 107.608 47.0619 107.951 47.2935C108.295 47.5251 108.562 47.8565 108.754 48.2877C108.954 48.711 109.054 49.2221 109.054 49.821C109.054 50.4119 108.954 50.923 108.754 51.3542C108.562 51.7855 108.295 52.1169 107.951 52.3485C107.608 52.58 107.205 52.6958 106.742 52.6958C106.247 52.6958 105.791 52.58 105.376 52.3485C104.961 52.1169 104.629 51.7855 104.382 51.3542C104.134 50.923 104.011 50.4119 104.011 49.821ZM104.981 49.821C104.981 50.2442 105.065 50.6036 105.232 50.8991C105.408 51.1945 105.64 51.4181 105.927 51.5699C106.215 51.7216 106.526 51.7974 106.861 51.7974C107.141 51.7974 107.416 51.7216 107.688 51.5699C107.959 51.4181 108.183 51.1945 108.359 50.8991C108.534 50.6036 108.622 50.2442 108.622 49.821C108.622 49.3977 108.534 49.0384 108.359 48.7429C108.183 48.4474 107.959 48.2238 107.688 48.0721C107.416 47.9204 107.141 47.8445 106.861 47.8445C106.526 47.8445 106.215 47.9204 105.927 48.0721C105.64 48.2238 105.408 48.4474 105.232 48.7429C105.065 49.0384 104.981 49.3977 104.981 49.821ZM110.423 47.0659H111.501L113.058 50.9589L114.615 47.0659H115.693L113.058 52.9953L110.423 47.0659ZM118.554 52.6958C118.043 52.6958 117.587 52.576 117.188 52.3365C116.797 52.0889 116.489 51.7495 116.266 51.3183C116.05 50.8871 115.942 50.388 115.942 49.821C115.942 49.246 116.054 48.7429 116.278 48.3117C116.509 47.8805 116.829 47.5451 117.236 47.3055C117.651 47.0659 118.13 46.9461 118.673 46.9461C119.216 46.9461 119.68 47.0619 120.063 47.2935C120.454 47.5171 120.754 47.8405 120.961 48.2638C121.169 48.687 121.273 49.1901 121.273 49.7731C121.273 49.829 121.269 49.8889 121.261 49.9528C121.261 50.0087 121.261 50.0446 121.261 50.0606H116.553V49.246H120.506L120.123 49.797C120.147 49.7571 120.171 49.6972 120.195 49.6174C120.219 49.5295 120.231 49.4576 120.231 49.4017C120.231 49.0743 120.163 48.7908 120.027 48.5513C119.899 48.3117 119.72 48.124 119.488 47.9883C119.256 47.8525 118.985 47.7846 118.673 47.7846C118.306 47.7846 117.991 47.8645 117.727 48.0242C117.472 48.1759 117.272 48.3995 117.128 48.695C116.992 48.9825 116.921 49.3379 116.913 49.7611C116.913 50.1923 116.98 50.5597 117.116 50.8631C117.252 51.1666 117.452 51.3982 117.715 51.5579C117.979 51.7176 118.298 51.7974 118.673 51.7974C119.049 51.7974 119.38 51.7176 119.668 51.5579C119.955 51.3902 120.199 51.1386 120.398 50.8032L121.177 51.2943C120.889 51.7575 120.526 52.1089 120.087 52.3485C119.656 52.58 119.145 52.6958 118.554 52.6958ZM123.544 47.0659V52.576H122.586V47.0659H123.544ZM125.209 48.12C125.082 48.0242 124.966 47.9563 124.862 47.9164C124.758 47.8685 124.627 47.8445 124.467 47.8445C124.227 47.8445 124.04 47.9044 123.904 48.0242C123.768 48.144 123.672 48.3077 123.616 48.5153C123.568 48.723 123.544 48.9585 123.544 49.2221H123.113C123.113 48.7828 123.189 48.3955 123.341 48.0601C123.501 47.7168 123.704 47.4452 123.952 47.2456C124.199 47.046 124.451 46.9461 124.706 46.9461C124.906 46.9461 125.09 46.9741 125.257 47.03C125.433 47.0779 125.593 47.1777 125.737 47.3295L125.209 48.12ZM125.854 47.0659H128.609V47.9643H125.854V47.0659ZM126.752 45.1494H127.71V52.576H126.752V45.1494Z" fill="white"/>
</g>
<defs>
<filter id="filter0_d_2_7418" x="0.391598" y="0.119749" width="223.584" height="135.369" filterUnits="userSpaceOnUse" color-interpolation-filters="sRGB">
<feFlood flood-opacity="0" result="BackgroundImageFix"/>
<feColorMatrix in="SourceAlpha" type="matrix" values="0 0 0 0 0 0 0 0 0 0 0 0 0 0 0 0 0 0 127 0" result="hardAlpha"/>
<feOffset dy="19.7282"/>
<feGaussianBlur stdDeviation="26.3042"/>
<feComposite in2="hardAlpha" operator="out"/>
<feColorMatrix type="matrix" values="0 0 0 0 0 0 0 0 0 0 0 0 0 0 0 0 0 0 0.1 0"/>
<feBlend mode="normal" in2="BackgroundImageFix" result="effect1_dropShadow_2_7418"/>
<feBlend mode="normal" in="SourceGraphic" in2="effect1_dropShadow_2_7418" result="shape"/>
</filter>
<linearGradient id="paint0_linear_2_7418" x1="59.172" y1="34.6751" x2="166.01" y2="55.2731" gradientUnits="userSpaceOnUse">
<stop stop-color="#007BFF"/>
<stop offset="1" stop-color="#56A8FF"/>
</linearGradient>
</defs>
</svg>
