<svg width="299" height="242" viewBox="0 0 299 242" fill="none" xmlns="http://www.w3.org/2000/svg">
<g filter="url(#filter0_d_2_7502)">
<rect x="75" y="86" width="118.369" height="30.1521" rx="15.076" fill="white" shape-rendering="crispEdges"/>
<path d="M119.444 103.061L119.804 102.102H123.517L123.876 103.061H119.444ZM121.637 99.0837L120.223 102.414L120.127 102.629L118.881 105.576H117.743L121.637 96.7718L125.53 105.576H124.392L123.17 102.701L123.074 102.462L121.637 99.0837ZM130.622 96.2328H131.581V105.576H130.622V96.2328ZM126.011 102.821C126.011 102.222 126.134 101.711 126.382 101.288C126.629 100.857 126.961 100.525 127.376 100.294C127.791 100.062 128.247 99.9461 128.742 99.9461C129.205 99.9461 129.608 100.062 129.951 100.294C130.295 100.525 130.562 100.857 130.754 101.288C130.954 101.711 131.054 102.222 131.054 102.821C131.054 103.412 130.954 103.923 130.754 104.354C130.562 104.785 130.295 105.117 129.951 105.348C129.608 105.58 129.205 105.696 128.742 105.696C128.247 105.696 127.791 105.58 127.376 105.348C126.961 105.117 126.629 104.785 126.382 104.354C126.134 103.923 126.011 103.412 126.011 102.821ZM126.981 102.821C126.981 103.244 127.065 103.604 127.232 103.899C127.408 104.195 127.64 104.418 127.927 104.57C128.215 104.722 128.526 104.797 128.861 104.797C129.141 104.797 129.416 104.722 129.688 104.57C129.959 104.418 130.183 104.195 130.359 103.899C130.534 103.604 130.622 103.244 130.622 102.821C130.622 102.398 130.534 102.038 130.359 101.743C130.183 101.447 129.959 101.224 129.688 101.072C129.416 100.92 129.141 100.845 128.861 100.845C128.526 100.845 128.215 100.92 127.927 101.072C127.64 101.224 127.408 101.447 127.232 101.743C127.065 102.038 126.981 102.398 126.981 102.821ZM132.423 100.066H133.501L135.058 103.959L136.615 100.066H137.693L135.058 105.995L132.423 100.066ZM140.554 105.696C140.043 105.696 139.587 105.576 139.188 105.336C138.797 105.089 138.489 104.75 138.266 104.318C138.05 103.887 137.942 103.388 137.942 102.821C137.942 102.246 138.054 101.743 138.278 101.312C138.509 100.88 138.829 100.545 139.236 100.305C139.651 100.066 140.13 99.9461 140.673 99.9461C141.216 99.9461 141.68 100.062 142.063 100.294C142.454 100.517 142.754 100.841 142.961 101.264C143.169 101.687 143.273 102.19 143.273 102.773C143.273 102.829 143.269 102.889 143.261 102.953C143.261 103.009 143.261 103.045 143.261 103.061H138.553V102.246H142.506L142.123 102.797C142.147 102.757 142.171 102.697 142.195 102.617C142.219 102.53 142.231 102.458 142.231 102.402C142.231 102.074 142.163 101.791 142.027 101.551C141.899 101.312 141.72 101.124 141.488 100.988C141.256 100.853 140.985 100.785 140.673 100.785C140.306 100.785 139.991 100.864 139.727 101.024C139.472 101.176 139.272 101.4 139.128 101.695C138.992 101.982 138.921 102.338 138.913 102.761C138.913 103.192 138.98 103.56 139.116 103.863C139.252 104.167 139.452 104.398 139.715 104.558C139.979 104.718 140.298 104.797 140.673 104.797C141.049 104.797 141.38 104.718 141.668 104.558C141.955 104.39 142.199 104.139 142.398 103.803L143.177 104.294C142.889 104.758 142.526 105.109 142.087 105.348C141.656 105.58 141.145 105.696 140.554 105.696ZM145.544 100.066V105.576H144.586V100.066H145.544ZM147.209 101.12C147.082 101.024 146.966 100.956 146.862 100.916C146.758 100.868 146.627 100.845 146.467 100.845C146.227 100.845 146.04 100.904 145.904 101.024C145.768 101.144 145.672 101.308 145.616 101.515C145.568 101.723 145.544 101.959 145.544 102.222H145.113C145.113 101.783 145.189 101.396 145.341 101.06C145.501 100.717 145.704 100.445 145.952 100.246C146.199 100.046 146.451 99.9461 146.706 99.9461C146.906 99.9461 147.09 99.9741 147.257 100.03C147.433 100.078 147.593 100.178 147.737 100.329L147.209 101.12ZM147.854 100.066H150.609V100.964H147.854V100.066ZM148.752 98.1494H149.71V105.576H148.752V98.1494Z" fill="#B4B4B4"/>
<rect x="75.1644" y="86.1644" width="118.04" height="29.8233" rx="14.9116" stroke="#B4B4B4" stroke-width="0.328803" shape-rendering="crispEdges"/>
</g>
<defs>
<filter id="filter0_d_2_7502" x="-30.2168" y="0.511347" width="328.801" height="240.586" filterUnits="userSpaceOnUse" color-interpolation-filters="sRGB">
<feFlood flood-opacity="0" result="BackgroundImageFix"/>
<feColorMatrix in="SourceAlpha" type="matrix" values="0 0 0 0 0 0 0 0 0 0 0 0 0 0 0 0 0 0 127 0" result="hardAlpha"/>
<feOffset dy="19.7282"/>
<feGaussianBlur stdDeviation="52.6084"/>
<feComposite in2="hardAlpha" operator="out"/>
<feColorMatrix type="matrix" values="0 0 0 0 0 0 0 0 0 0 0 0 0 0 0 0 0 0 0.1 0"/>
<feBlend mode="normal" in2="BackgroundImageFix" result="effect1_dropShadow_2_7502"/>
<feBlend mode="normal" in="SourceGraphic" in2="effect1_dropShadow_2_7502" result="shape"/>
</filter>
</defs>
</svg>
