<svg width="161" height="37" viewBox="0 0 161 37" fill="none" xmlns="http://www.w3.org/2000/svg">
<rect x="0.929688" y="0.027832" width="160" height="36.875" rx="18.4375" fill="#00C72B"/>
<path d="M37.9597 22.9653C37.6517 22.9653 37.4137 22.886 37.2457 22.7273C37.087 22.5593 37.0077 22.3213 37.0077 22.0133V14.0473C37.0077 13.7393 37.087 13.506 37.2457 13.3473C37.4137 13.1793 37.6517 13.0953 37.9597 13.0953H41.3197C42.0104 13.0953 42.5984 13.198 43.0837 13.4033C43.569 13.6087 43.9377 13.9027 44.1897 14.2853C44.451 14.668 44.5817 15.1253 44.5817 15.6573C44.5817 16.2547 44.409 16.7587 44.0637 17.1693C43.7184 17.58 43.247 17.8553 42.6497 17.9953V17.7853C43.3404 17.888 43.877 18.1493 44.2597 18.5693C44.6424 18.9893 44.8337 19.5353 44.8337 20.2073C44.8337 21.0847 44.535 21.766 43.9377 22.2513C43.3497 22.7273 42.5284 22.9653 41.4737 22.9653H37.9597ZM38.7297 21.6073H41.2497C41.8844 21.6073 42.351 21.486 42.6497 21.2433C42.9484 20.9913 43.0977 20.618 43.0977 20.1233C43.0977 19.6193 42.9484 19.246 42.6497 19.0033C42.351 18.7607 41.8844 18.6393 41.2497 18.6393H38.7297V21.6073ZM38.7297 17.2813H41.0117C41.6277 17.2813 42.085 17.1647 42.3837 16.9313C42.6917 16.6887 42.8457 16.334 42.8457 15.8673C42.8457 15.4007 42.6917 15.0507 42.3837 14.8173C42.085 14.5747 41.6277 14.4533 41.0117 14.4533H38.7297V17.2813ZM48.7324 23.1053C48.2377 23.1053 47.7944 23.012 47.4024 22.8253C47.0197 22.6293 46.7164 22.368 46.4924 22.0413C46.2777 21.7147 46.1704 21.346 46.1704 20.9353C46.1704 20.4313 46.301 20.0347 46.5624 19.7453C46.8237 19.4467 47.2484 19.232 47.8364 19.1013C48.4244 18.9707 49.213 18.9053 50.2024 18.9053H50.9024V19.9133H50.2164C49.6377 19.9133 49.1757 19.9413 48.8304 19.9973C48.485 20.0533 48.2377 20.1513 48.0884 20.2913C47.9484 20.422 47.8784 20.6087 47.8784 20.8513C47.8784 21.1593 47.9857 21.4113 48.2004 21.6073C48.415 21.8033 48.7137 21.9013 49.0964 21.9013C49.4044 21.9013 49.675 21.8313 49.9084 21.6913C50.151 21.542 50.3424 21.3413 50.4824 21.0893C50.6224 20.8373 50.6924 20.548 50.6924 20.2213V18.6113C50.6924 18.1447 50.5897 17.8087 50.3844 17.6033C50.179 17.398 49.8337 17.2953 49.3484 17.2953C49.0777 17.2953 48.7837 17.328 48.4664 17.3933C48.1584 17.4587 47.8317 17.5707 47.4864 17.7293C47.309 17.8133 47.1504 17.8367 47.0104 17.7993C46.8797 17.762 46.777 17.6873 46.7024 17.5753C46.6277 17.454 46.5904 17.3233 46.5904 17.1833C46.5904 17.0433 46.6277 16.908 46.7024 16.7773C46.777 16.6373 46.903 16.5347 47.0804 16.4693C47.5097 16.292 47.9204 16.166 48.3124 16.0913C48.7137 16.0167 49.0777 15.9793 49.4044 15.9793C50.0764 15.9793 50.627 16.082 51.0564 16.2873C51.495 16.4927 51.8217 16.8053 52.0364 17.2253C52.251 17.636 52.3584 18.168 52.3584 18.8213V22.1813C52.3584 22.4707 52.2884 22.6947 52.1484 22.8533C52.0084 23.0027 51.8077 23.0773 51.5464 23.0773C51.285 23.0773 51.0797 23.0027 50.9304 22.8533C50.7904 22.6947 50.7204 22.4707 50.7204 22.1813V21.5093H50.8324C50.767 21.836 50.6364 22.1207 50.4404 22.3633C50.2537 22.5967 50.0157 22.7787 49.7264 22.9093C49.437 23.04 49.1057 23.1053 48.7324 23.1053ZM55.0026 23.0773C54.7226 23.0773 54.5079 23.0027 54.3586 22.8533C54.2093 22.6947 54.1346 22.4707 54.1346 22.1813V16.8893C54.1346 16.6 54.2093 16.3807 54.3586 16.2313C54.5079 16.082 54.7179 16.0073 54.9886 16.0073C55.2593 16.0073 55.4693 16.082 55.6186 16.2313C55.7679 16.3807 55.8426 16.6 55.8426 16.8893V17.8413L55.6886 17.4913C55.8939 16.9967 56.2113 16.6233 56.6406 16.3713C57.0793 16.11 57.5739 15.9793 58.1246 15.9793C58.6753 15.9793 59.1279 16.082 59.4826 16.2873C59.8373 16.4927 60.1033 16.8053 60.2806 17.2253C60.4579 17.636 60.5466 18.1587 60.5466 18.7933V22.1813C60.5466 22.4707 60.4719 22.6947 60.3226 22.8533C60.1733 23.0027 59.9586 23.0773 59.6786 23.0773C59.3986 23.0773 59.1793 23.0027 59.0206 22.8533C58.8713 22.6947 58.7966 22.4707 58.7966 22.1813V18.8773C58.7966 18.3453 58.6939 17.958 58.4886 17.7153C58.2926 17.4727 57.9846 17.3513 57.5646 17.3513C57.0513 17.3513 56.6406 17.5147 56.3326 17.8413C56.0339 18.1587 55.8846 18.5833 55.8846 19.1153V22.1813C55.8846 22.7787 55.5906 23.0773 55.0026 23.0773ZM63.1921 23.0773C62.9121 23.0773 62.6974 23.0027 62.5481 22.8533C62.3987 22.6947 62.3241 22.4707 62.3241 22.1813V13.8653C62.3241 13.576 62.3987 13.3567 62.5481 13.2073C62.6974 13.058 62.9121 12.9833 63.1921 12.9833C63.4721 12.9833 63.6867 13.058 63.8361 13.2073C63.9947 13.3567 64.0741 13.576 64.0741 13.8653V19.0313H64.1021L66.4121 16.5953C66.5987 16.4087 66.7621 16.264 66.9021 16.1613C67.0421 16.0587 67.2334 16.0073 67.4761 16.0073C67.7187 16.0073 67.9007 16.0727 68.0221 16.2033C68.1527 16.3247 68.2181 16.474 68.2181 16.6513C68.2181 16.8287 68.1341 17.006 67.9661 17.1833L65.5301 19.7593V19.0313L68.2041 21.9153C68.3721 22.0927 68.4467 22.2747 68.4281 22.4613C68.4187 22.6387 68.3441 22.788 68.2041 22.9093C68.0641 23.0213 67.8867 23.0773 67.6721 23.0773C67.4107 23.0773 67.2007 23.026 67.0421 22.9233C66.8927 22.8207 66.7247 22.6667 66.5381 22.4613L64.1021 19.9133H64.0741V22.1813C64.0741 22.7787 63.7801 23.0773 63.1921 23.0773ZM73.8967 23.0773C73.6727 23.0773 73.4907 23.026 73.3507 22.9233C73.22 22.8207 73.1407 22.6853 73.1127 22.5173C73.0847 22.34 73.1174 22.144 73.2107 21.9293L76.9067 13.7393C77.028 13.4687 77.1727 13.2773 77.3407 13.1653C77.518 13.044 77.7187 12.9833 77.9427 12.9833C78.1574 12.9833 78.3487 13.044 78.5167 13.1653C78.694 13.2773 78.8434 13.4687 78.9647 13.7393L82.6747 21.9293C82.7774 22.144 82.8147 22.34 82.7867 22.5173C82.7587 22.6947 82.6794 22.8347 82.5487 22.9373C82.418 23.0307 82.2454 23.0773 82.0307 23.0773C81.7694 23.0773 81.564 23.0167 81.4147 22.8953C81.2747 22.7647 81.1487 22.5687 81.0367 22.3073L80.1267 20.1933L80.8827 20.6833H74.9747L75.7307 20.1933L74.8347 22.3073C74.7134 22.578 74.5874 22.774 74.4567 22.8953C74.326 23.0167 74.1394 23.0773 73.8967 23.0773ZM77.9147 15.0413L75.9547 19.7033L75.5907 19.2553H80.2667L79.9167 19.7033L77.9427 15.0413H77.9147ZM87.1443 23.1053C86.4257 23.1053 85.8003 22.9607 85.2683 22.6713C84.7363 22.3727 84.3256 21.9527 84.0363 21.4113C83.747 20.87 83.6023 20.2353 83.6023 19.5073C83.6023 18.9567 83.6816 18.4667 83.8403 18.0373C84.0083 17.5987 84.2463 17.23 84.5543 16.9313C84.8623 16.6233 85.2356 16.39 85.6743 16.2313C86.113 16.0633 86.603 15.9793 87.1443 15.9793C87.4523 15.9793 87.7837 16.0213 88.1383 16.1053C88.5023 16.1893 88.843 16.3293 89.1603 16.5253C89.3097 16.6187 89.4077 16.7307 89.4543 16.8613C89.501 16.992 89.5103 17.1273 89.4823 17.2673C89.4543 17.398 89.3937 17.5147 89.3003 17.6173C89.2163 17.7107 89.109 17.7713 88.9783 17.7993C88.8477 17.818 88.703 17.7853 88.5443 17.7013C88.339 17.58 88.129 17.4913 87.9143 17.4353C87.6997 17.37 87.4943 17.3373 87.2983 17.3373C86.9903 17.3373 86.7197 17.3887 86.4863 17.4913C86.253 17.5847 86.0523 17.7247 85.8843 17.9113C85.7256 18.0887 85.6043 18.3127 85.5203 18.5833C85.4363 18.854 85.3943 19.1667 85.3943 19.5213C85.3943 20.212 85.5576 20.758 85.8843 21.1593C86.2203 21.5513 86.6917 21.7473 87.2983 21.7473C87.4943 21.7473 87.695 21.7193 87.9003 21.6633C88.115 21.6073 88.3297 21.5187 88.5443 21.3973C88.703 21.3133 88.843 21.2853 88.9643 21.3133C89.095 21.3413 89.2023 21.4067 89.2863 21.5093C89.3703 21.6027 89.4217 21.7193 89.4403 21.8593C89.459 21.99 89.4403 22.1207 89.3843 22.2513C89.3377 22.382 89.2443 22.4893 89.1043 22.5733C88.7963 22.76 88.4697 22.8953 88.1243 22.9793C87.779 23.0633 87.4523 23.1053 87.1443 23.1053ZM93.6111 23.1053C92.8924 23.1053 92.2671 22.9607 91.7351 22.6713C91.2031 22.3727 90.7924 21.9527 90.5031 21.4113C90.2138 20.87 90.0691 20.2353 90.0691 19.5073C90.0691 18.9567 90.1484 18.4667 90.3071 18.0373C90.4751 17.5987 90.7131 17.23 91.0211 16.9313C91.3291 16.6233 91.7024 16.39 92.1411 16.2313C92.5798 16.0633 93.0698 15.9793 93.6111 15.9793C93.9191 15.9793 94.2504 16.0213 94.6051 16.1053C94.9691 16.1893 95.3098 16.3293 95.6271 16.5253C95.7764 16.6187 95.8744 16.7307 95.9211 16.8613C95.9678 16.992 95.9771 17.1273 95.9491 17.2673C95.9211 17.398 95.8604 17.5147 95.7671 17.6173C95.6831 17.7107 95.5758 17.7713 95.4451 17.7993C95.3144 17.818 95.1698 17.7853 95.0111 17.7013C94.8058 17.58 94.5958 17.4913 94.3811 17.4353C94.1664 17.37 93.9611 17.3373 93.7651 17.3373C93.4571 17.3373 93.1864 17.3887 92.9531 17.4913C92.7198 17.5847 92.5191 17.7247 92.3511 17.9113C92.1924 18.0887 92.0711 18.3127 91.9871 18.5833C91.9031 18.854 91.8611 19.1667 91.8611 19.5213C91.8611 20.212 92.0244 20.758 92.3511 21.1593C92.6871 21.5513 93.1584 21.7473 93.7651 21.7473C93.9611 21.7473 94.1618 21.7193 94.3671 21.6633C94.5818 21.6073 94.7964 21.5187 95.0111 21.3973C95.1698 21.3133 95.3098 21.2853 95.4311 21.3133C95.5618 21.3413 95.6691 21.4067 95.7531 21.5093C95.8371 21.6027 95.8884 21.7193 95.9071 21.8593C95.9258 21.99 95.9071 22.1207 95.8511 22.2513C95.8044 22.382 95.7111 22.4893 95.5711 22.5733C95.2631 22.76 94.9364 22.8953 94.5911 22.9793C94.2458 23.0633 93.9191 23.1053 93.6111 23.1053ZM100.036 23.1053C99.3266 23.1053 98.7106 22.9607 98.1879 22.6713C97.6652 22.382 97.2592 21.9713 96.9699 21.4393C96.6806 20.898 96.5359 20.2633 96.5359 19.5353C96.5359 18.9847 96.6152 18.4947 96.7739 18.0653C96.9419 17.6267 97.1799 17.2533 97.4879 16.9453C97.7959 16.628 98.1646 16.39 98.5939 16.2313C99.0232 16.0633 99.5039 15.9793 100.036 15.9793C100.745 15.9793 101.361 16.124 101.884 16.4133C102.407 16.7027 102.813 17.1133 103.102 17.6453C103.391 18.1773 103.536 18.8073 103.536 19.5353C103.536 20.086 103.452 20.5807 103.284 21.0193C103.125 21.458 102.892 21.836 102.584 22.1533C102.276 22.4613 101.907 22.6993 101.478 22.8673C101.049 23.026 100.568 23.1053 100.036 23.1053ZM100.036 21.7753C100.381 21.7753 100.685 21.6913 100.946 21.5233C101.207 21.3553 101.408 21.108 101.548 20.7813C101.697 20.4453 101.772 20.03 101.772 19.5353C101.772 18.7887 101.613 18.2333 101.296 17.8693C100.979 17.496 100.559 17.3093 100.036 17.3093C99.6906 17.3093 99.3872 17.3933 99.1259 17.5613C98.8646 17.72 98.6592 17.9673 98.5099 18.3033C98.3699 18.63 98.2999 19.0407 98.2999 19.5353C98.2999 20.2727 98.4586 20.8327 98.7759 21.2153C99.0932 21.5887 99.5132 21.7753 100.036 21.7753ZM107.458 23.1053C106.889 23.1053 106.418 23.0027 106.044 22.7973C105.671 22.5827 105.391 22.2653 105.204 21.8453C105.027 21.4253 104.938 20.9027 104.938 20.2773V16.8893C104.938 16.5907 105.013 16.3713 105.162 16.2313C105.312 16.082 105.526 16.0073 105.806 16.0073C106.086 16.0073 106.301 16.082 106.45 16.2313C106.609 16.3713 106.688 16.5907 106.688 16.8893V20.3053C106.688 20.7907 106.786 21.15 106.982 21.3833C107.178 21.6167 107.491 21.7333 107.92 21.7333C108.387 21.7333 108.77 21.5747 109.068 21.2573C109.367 20.9307 109.516 20.5013 109.516 19.9693V16.8893C109.516 16.5907 109.591 16.3713 109.74 16.2313C109.89 16.082 110.104 16.0073 110.384 16.0073C110.664 16.0073 110.879 16.082 111.028 16.2313C111.187 16.3713 111.266 16.5907 111.266 16.8893V22.1813C111.266 22.7787 110.982 23.0773 110.412 23.0773C110.142 23.0773 109.932 23.0027 109.782 22.8533C109.633 22.6947 109.558 22.4707 109.558 22.1813V21.1173L109.754 21.5373C109.558 22.0413 109.26 22.4287 108.858 22.6993C108.466 22.97 108 23.1053 107.458 23.1053ZM113.956 23.0773C113.676 23.0773 113.461 23.0027 113.312 22.8533C113.162 22.6947 113.088 22.4707 113.088 22.1813V16.8893C113.088 16.6 113.162 16.3807 113.312 16.2313C113.461 16.082 113.671 16.0073 113.942 16.0073C114.212 16.0073 114.422 16.082 114.572 16.2313C114.721 16.3807 114.796 16.6 114.796 16.8893V17.8413L114.642 17.4913C114.847 16.9967 115.164 16.6233 115.594 16.3713C116.032 16.11 116.527 15.9793 117.078 15.9793C117.628 15.9793 118.081 16.082 118.436 16.2873C118.79 16.4927 119.056 16.8053 119.234 17.2253C119.411 17.636 119.5 18.1587 119.5 18.7933V22.1813C119.5 22.4707 119.425 22.6947 119.276 22.8533C119.126 23.0027 118.912 23.0773 118.632 23.0773C118.352 23.0773 118.132 23.0027 117.974 22.8533C117.824 22.6947 117.75 22.4707 117.75 22.1813V18.8773C117.75 18.3453 117.647 17.958 117.442 17.7153C117.246 17.4727 116.938 17.3513 116.518 17.3513C116.004 17.3513 115.594 17.5147 115.286 17.8413C114.987 18.1587 114.838 18.5833 114.838 19.1153V22.1813C114.838 22.7787 114.544 23.0773 113.956 23.0773ZM124.413 23.1053C123.807 23.1053 123.298 23.0027 122.887 22.7973C122.486 22.592 122.187 22.2933 121.991 21.9013C121.795 21.5 121.697 21.0053 121.697 20.4173V17.4353H120.969C120.745 17.4353 120.573 17.3793 120.451 17.2673C120.33 17.146 120.269 16.9827 120.269 16.7773C120.269 16.5627 120.33 16.3993 120.451 16.2873C120.573 16.1753 120.745 16.1193 120.969 16.1193H121.697V14.8453C121.697 14.556 121.772 14.3367 121.921 14.1873C122.08 14.038 122.299 13.9633 122.579 13.9633C122.859 13.9633 123.074 14.038 123.223 14.1873C123.373 14.3367 123.447 14.556 123.447 14.8453V16.1193H124.931C125.155 16.1193 125.328 16.1753 125.449 16.2873C125.571 16.3993 125.631 16.5627 125.631 16.7773C125.631 16.9827 125.571 17.146 125.449 17.2673C125.328 17.3793 125.155 17.4353 124.931 17.4353H123.447V20.3193C123.447 20.7673 123.545 21.1033 123.741 21.3273C123.937 21.5513 124.255 21.6633 124.693 21.6633C124.852 21.6633 124.992 21.6493 125.113 21.6213C125.235 21.5933 125.342 21.5747 125.435 21.5653C125.547 21.556 125.641 21.5933 125.715 21.6773C125.79 21.752 125.827 21.9107 125.827 22.1533C125.827 22.34 125.795 22.508 125.729 22.6573C125.673 22.7973 125.566 22.8953 125.407 22.9513C125.286 22.9887 125.127 23.0213 124.931 23.0493C124.735 23.0867 124.563 23.1053 124.413 23.1053Z" fill="white"/>
</svg>
