<svg width="66" height="63" viewBox="0 0 66 63" fill="none" xmlns="http://www.w3.org/2000/svg">
<path d="M9.2373 45.0106C9.10059 44.9878 8.95247 44.9764 8.79297 44.9764C8.20052 44.9764 7.7985 45.2287 7.58691 45.7333V49.4833H6.68359V44.2001H7.5625L7.57715 44.8104C7.87337 44.3384 8.29329 44.1024 8.83691 44.1024C9.0127 44.1024 9.14616 44.1252 9.2373 44.1708V45.0106Z" fill="#555555"/>
<path d="M12.167 49.5809C11.4508 49.5809 10.8682 49.3466 10.4189 48.8778C9.96973 48.4058 9.74512 47.7759 9.74512 46.9882V46.8221C9.74512 46.2981 9.8444 45.8309 10.043 45.4208C10.2448 45.0074 10.5247 44.6851 10.8828 44.454C11.2441 44.2196 11.6348 44.1024 12.0547 44.1024C12.7415 44.1024 13.2754 44.3287 13.6562 44.7811C14.0371 45.2336 14.2275 45.8814 14.2275 46.7245V47.1005H10.6484C10.6615 47.6213 10.8128 48.0428 11.1025 48.3651C11.3955 48.6841 11.7666 48.8436 12.2158 48.8436C12.5348 48.8436 12.805 48.7785 13.0264 48.6483C13.2477 48.5181 13.4414 48.3456 13.6074 48.1307L14.1592 48.5604C13.7165 49.2408 13.0524 49.5809 12.167 49.5809ZM12.0547 44.8446C11.6901 44.8446 11.3841 44.9781 11.1367 45.245C10.8893 45.5087 10.7363 45.8798 10.6777 46.3583H13.3242V46.2899C13.2982 45.8309 13.1745 45.4761 12.9531 45.2255C12.7318 44.9716 12.4323 44.8446 12.0547 44.8446Z" fill="#555555"/>
<path d="M20.6484 47.2274C20.5605 47.9794 20.2822 48.5604 19.8135 48.9706C19.348 49.3775 18.7279 49.5809 17.9531 49.5809C17.1133 49.5809 16.4395 49.2798 15.9316 48.6776C15.4271 48.0754 15.1748 47.2697 15.1748 46.2606V45.577C15.1748 44.9162 15.292 44.3352 15.5264 43.8339C15.764 43.3326 16.0993 42.9484 16.5322 42.6815C16.9652 42.4113 17.4665 42.2762 18.0361 42.2762C18.7913 42.2762 19.3968 42.4878 19.8525 42.911C20.3083 43.3309 20.5736 43.9136 20.6484 44.6591H19.7061C19.6247 44.0927 19.4473 43.6825 19.1738 43.4286C18.9036 43.1747 18.5244 43.0477 18.0361 43.0477C17.4372 43.0477 16.9668 43.2691 16.625 43.7118C16.2865 44.1545 16.1172 44.7844 16.1172 45.6014V46.2899C16.1172 47.0614 16.2783 47.675 16.6006 48.1307C16.9229 48.5865 17.3737 48.8143 17.9531 48.8143C18.474 48.8143 18.8727 48.6971 19.1494 48.4628C19.4294 48.2251 19.6149 47.8134 19.7061 47.2274H20.6484Z" fill="#555555"/>
<path d="M25.8584 47.6278H22.8799L22.2109 49.4833H21.2441L23.959 42.3739H24.7793L27.499 49.4833H26.5371L25.8584 47.6278ZM23.1631 46.8563H25.5801L24.3691 43.5311L23.1631 46.8563Z" fill="#555555"/>
<path d="M29.3936 46.7001V49.4833H28.4561V42.3739H31.0781C31.8561 42.3739 32.4648 42.5725 32.9043 42.9696C33.347 43.3667 33.5684 43.8925 33.5684 44.5468C33.5684 45.2369 33.3519 45.7691 32.9189 46.1434C32.4893 46.5145 31.8724 46.7001 31.0684 46.7001H29.3936ZM29.3936 45.9335H31.0781C31.5794 45.9335 31.9635 45.8163 32.2305 45.5819C32.4974 45.3443 32.6309 45.0025 32.6309 44.5565C32.6309 44.1333 32.4974 43.7948 32.2305 43.5409C31.9635 43.287 31.5973 43.1552 31.1318 43.1454H29.3936V45.9335Z" fill="#555555"/>
<path d="M39.6768 43.1454H37.3916V49.4833H36.459V43.1454H34.1787V42.3739H39.6768V43.1454Z" fill="#555555"/>
<path d="M45.8242 47.2274C45.7363 47.9794 45.458 48.5604 44.9893 48.9706C44.5238 49.3775 43.9036 49.5809 43.1289 49.5809C42.2891 49.5809 41.6152 49.2798 41.1074 48.6776C40.6029 48.0754 40.3506 47.2697 40.3506 46.2606V45.577C40.3506 44.9162 40.4678 44.3352 40.7021 43.8339C40.9398 43.3326 41.2751 42.9484 41.708 42.6815C42.1409 42.4113 42.6423 42.2762 43.2119 42.2762C43.9671 42.2762 44.5726 42.4878 45.0283 42.911C45.4841 43.3309 45.7493 43.9136 45.8242 44.6591H44.8818C44.8005 44.0927 44.623 43.6825 44.3496 43.4286C44.0794 43.1747 43.7002 43.0477 43.2119 43.0477C42.613 43.0477 42.1426 43.2691 41.8008 43.7118C41.4622 44.1545 41.293 44.7844 41.293 45.6014V46.2899C41.293 47.0614 41.4541 47.675 41.7764 48.1307C42.0986 48.5865 42.5495 48.8143 43.1289 48.8143C43.6497 48.8143 44.0485 48.6971 44.3252 48.4628C44.6051 48.2251 44.7907 47.8134 44.8818 47.2274H45.8242Z" fill="#555555"/>
<path d="M52.5723 49.4833H51.6299V46.1971H48.0459V49.4833H47.1084V42.3739H48.0459V45.4305H51.6299V42.3739H52.5723V49.4833Z" fill="#555555"/>
<path d="M58.251 47.6278H55.2725L54.6035 49.4833H53.6367L56.3516 42.3739H57.1719L59.8916 49.4833H58.9297L58.251 47.6278ZM55.5557 46.8563H57.9727L56.7617 43.5311L55.5557 46.8563Z" fill="#555555"/>
<path d="M5.75 58.0223V60.2489H5V54.5614H7.09766C7.72005 54.5614 8.20703 54.7203 8.55859 55.038C8.91276 55.3557 9.08984 55.7762 9.08984 56.2997C9.08984 56.8518 8.91667 57.2775 8.57031 57.577C8.22656 57.8739 7.73307 58.0223 7.08984 58.0223H5.75ZM5.75 57.4091H7.09766C7.4987 57.4091 7.80599 57.3153 8.01953 57.1278C8.23307 56.9377 8.33984 56.6643 8.33984 56.3075C8.33984 55.969 8.23307 55.6981 8.01953 55.495C7.80599 55.2919 7.51302 55.1864 7.14062 55.1786H5.75V57.4091Z" fill="#555555"/>
<path d="M11.9766 56.6708C11.8672 56.6525 11.7487 56.6434 11.6211 56.6434C11.1471 56.6434 10.8255 56.8453 10.6562 57.2489V60.2489H9.93359V56.0223H10.6367L10.6484 56.5106C10.8854 56.133 11.2214 55.9442 11.6562 55.9442C11.7969 55.9442 11.9036 55.9624 11.9766 55.9989V56.6708Z" fill="#555555"/>
<path d="M13.4297 60.2489H12.707V56.0223H13.4297V60.2489ZM12.6484 54.9012C12.6484 54.7841 12.6836 54.6851 12.7539 54.6044C12.8268 54.5236 12.9336 54.4833 13.0742 54.4833C13.2148 54.4833 13.3216 54.5236 13.3945 54.6044C13.4674 54.6851 13.5039 54.7841 13.5039 54.9012C13.5039 55.0184 13.4674 55.1161 13.3945 55.1942C13.3216 55.2723 13.2148 55.3114 13.0742 55.3114C12.9336 55.3114 12.8268 55.2723 12.7539 55.1942C12.6836 55.1161 12.6484 55.0184 12.6484 54.9012Z" fill="#555555"/>
<path d="M15.9844 59.2684L17.0312 56.0223H17.7695L16.2539 60.2489H15.7031L14.1719 56.0223H14.9102L15.9844 59.2684Z" fill="#555555"/>
<path d="M21.0117 60.2489C20.9701 60.1656 20.9362 60.0171 20.9102 59.8036C20.5742 60.1525 20.1732 60.327 19.707 60.327C19.2904 60.327 18.9479 60.2098 18.6797 59.9755C18.4141 59.7385 18.2812 59.439 18.2812 59.077C18.2812 58.6369 18.4479 58.2958 18.7812 58.0536C19.1172 57.8088 19.5885 57.6864 20.1953 57.6864H20.8984V57.3544C20.8984 57.1018 20.8229 56.9012 20.6719 56.7528C20.5208 56.6018 20.2982 56.5262 20.0039 56.5262C19.7461 56.5262 19.5299 56.5913 19.3555 56.7216C19.181 56.8518 19.0938 57.0093 19.0938 57.1942H18.3672C18.3672 56.9833 18.4414 56.7802 18.5898 56.5848C18.7409 56.3869 18.944 56.2307 19.1992 56.1161C19.457 56.0015 19.7396 55.9442 20.0469 55.9442C20.5339 55.9442 20.9154 56.0666 21.1914 56.3114C21.4674 56.5536 21.6107 56.8882 21.6211 57.3153V59.2606C21.6211 59.6486 21.6706 59.9572 21.7695 60.1864V60.2489H21.0117ZM19.8125 59.6981C20.0391 59.6981 20.2539 59.6395 20.457 59.5223C20.6602 59.4052 20.8073 59.2528 20.8984 59.0653V58.1981H20.332C19.4466 58.1981 19.0039 58.4572 19.0039 58.9755C19.0039 59.202 19.0794 59.3791 19.2305 59.5067C19.3815 59.6343 19.5755 59.6981 19.8125 59.6981Z" fill="#555555"/>
<path d="M24.4492 59.7372C24.707 59.7372 24.9323 59.6591 25.125 59.5028C25.3177 59.3466 25.4245 59.1512 25.4453 58.9169H26.1289C26.1159 59.1591 26.0326 59.3895 25.8789 59.6083C25.7253 59.827 25.5195 60.0015 25.2617 60.1317C25.0065 60.2619 24.7357 60.327 24.4492 60.327C23.8737 60.327 23.4154 60.1356 23.0742 59.7528C22.7357 59.3674 22.5664 58.8413 22.5664 58.1747V58.0536C22.5664 57.6421 22.6419 57.2762 22.793 56.9559C22.944 56.6356 23.1602 56.3869 23.4414 56.2098C23.7253 56.0328 24.0599 55.9442 24.4453 55.9442C24.9193 55.9442 25.3125 56.0861 25.625 56.37C25.9401 56.6538 26.1081 57.0223 26.1289 57.4755H25.4453C25.4245 57.202 25.3203 56.9781 25.1328 56.8036C24.9479 56.6265 24.7188 56.538 24.4453 56.538C24.0781 56.538 23.793 56.6708 23.5898 56.9364C23.3893 57.1994 23.2891 57.5809 23.2891 58.0809V58.2177C23.2891 58.7046 23.3893 59.0796 23.5898 59.3427C23.7904 59.6057 24.0768 59.7372 24.4492 59.7372Z" fill="#555555"/>
<path d="M28.3242 59.1903L29.3086 56.0223H30.082L28.3828 60.9012C28.1198 61.6044 27.7018 61.9559 27.1289 61.9559L26.9922 61.9442L26.7227 61.8934V61.3075L26.918 61.3231C27.1628 61.3231 27.3529 61.2736 27.4883 61.1747C27.6263 61.0757 27.7396 60.8947 27.8281 60.6317L27.9883 60.202L26.4805 56.0223H27.2695L28.3242 59.1903Z" fill="#555555"/>
<path d="M42.9297 55.1786H41.1016V60.2489H40.3555V55.1786H38.5312V54.5614H42.9297V55.1786Z" fill="#555555"/>
<path d="M45.0234 60.327C44.4505 60.327 43.9844 60.1395 43.625 59.7645C43.2656 59.3869 43.0859 58.883 43.0859 58.2528V58.12C43.0859 57.7007 43.1654 57.327 43.3242 56.9989C43.4857 56.6682 43.7096 56.4104 43.9961 56.2255C44.2852 56.038 44.5977 55.9442 44.9336 55.9442C45.4831 55.9442 45.9102 56.1252 46.2148 56.4872C46.5195 56.8492 46.6719 57.3674 46.6719 58.0419V58.3427H43.8086C43.819 58.7593 43.9401 59.0966 44.1719 59.3544C44.4062 59.6096 44.7031 59.7372 45.0625 59.7372C45.3177 59.7372 45.5339 59.6851 45.7109 59.5809C45.888 59.4768 46.043 59.3387 46.1758 59.1669L46.6172 59.5106C46.263 60.0549 45.7318 60.327 45.0234 60.327ZM44.9336 56.538C44.6419 56.538 44.3971 56.6447 44.1992 56.8583C44.0013 57.0692 43.8789 57.3661 43.832 57.7489H45.9492V57.6942C45.9284 57.327 45.8294 57.0432 45.6523 56.8427C45.4753 56.6395 45.2357 56.538 44.9336 56.538Z" fill="#555555"/>
<path d="M49.5547 56.6708C49.4453 56.6525 49.3268 56.6434 49.1992 56.6434C48.7253 56.6434 48.4036 56.8453 48.2344 57.2489V60.2489H47.5117V56.0223H48.2148L48.2266 56.5106C48.4635 56.133 48.7995 55.9442 49.2344 55.9442C49.375 55.9442 49.4818 55.9624 49.5547 55.9989V56.6708Z" fill="#555555"/>
<path d="M50.9023 56.0223L50.9219 56.4911C51.2318 56.1265 51.6497 55.9442 52.1758 55.9442C52.7669 55.9442 53.1693 56.1708 53.3828 56.6239C53.5234 56.4208 53.7057 56.2567 53.9297 56.1317C54.1562 56.0067 54.4232 55.9442 54.7305 55.9442C55.6576 55.9442 56.1289 56.4351 56.1445 57.4169V60.2489H55.4219V57.4598C55.4219 57.1578 55.3529 56.9325 55.2148 56.7841C55.0768 56.633 54.8451 56.5575 54.5195 56.5575C54.2513 56.5575 54.0286 56.6382 53.8516 56.7997C53.6745 56.9585 53.5716 57.1734 53.543 57.4442V60.2489H52.8164V57.4794C52.8164 56.8648 52.5156 56.5575 51.9141 56.5575C51.4401 56.5575 51.1159 56.7593 50.9414 57.163V60.2489H50.2188V56.0223H50.9023Z" fill="#555555"/>
<path d="M59.6992 59.1278C59.6992 58.9325 59.625 58.7815 59.4766 58.6747C59.3307 58.5653 59.0742 58.4716 58.707 58.3934C58.3424 58.3153 58.0521 58.2216 57.8359 58.1122C57.6224 58.0028 57.4635 57.8726 57.3594 57.7216C57.2578 57.5705 57.207 57.3908 57.207 57.1825C57.207 56.8361 57.3529 56.5432 57.6445 56.3036C57.9388 56.064 58.3138 55.9442 58.7695 55.9442C59.2487 55.9442 59.6367 56.0679 59.9336 56.3153C60.2331 56.5627 60.3828 56.8791 60.3828 57.2645H59.6562C59.6562 57.0666 59.5716 56.896 59.4023 56.7528C59.2357 56.6096 59.0247 56.538 58.7695 56.538C58.5065 56.538 58.3008 56.5953 58.1523 56.7098C58.0039 56.8244 57.9297 56.9742 57.9297 57.1591C57.9297 57.3335 57.9987 57.465 58.1367 57.5536C58.2747 57.6421 58.5234 57.7268 58.8828 57.8075C59.2448 57.8882 59.5378 57.9846 59.7617 58.0966C59.9857 58.2085 60.151 58.344 60.2578 58.5028C60.3672 58.6591 60.4219 58.8505 60.4219 59.077C60.4219 59.4546 60.2708 59.758 59.9688 59.9872C59.6667 60.2137 59.2747 60.327 58.793 60.327C58.4544 60.327 58.1549 60.2671 57.8945 60.1473C57.6341 60.0275 57.4297 59.8609 57.2812 59.6473C57.1354 59.4312 57.0625 59.1981 57.0625 58.9481H57.7852C57.7982 59.1903 57.8945 59.383 58.0742 59.5262C58.2565 59.6669 58.4961 59.7372 58.793 59.7372C59.0664 59.7372 59.2852 59.6825 59.4492 59.5731C59.6159 59.4611 59.6992 59.3127 59.6992 59.1278Z" fill="#555555"/>
<path d="M35.3281 58.4481H33.2773V57.6825H35.3281V58.4481Z" fill="black"/>
<g filter="url(#filter0_d_176_3531)">
<path d="M44.402 11.8211C44.2665 11.6524 44.1269 11.4864 43.9834 11.3233C41.6886 8.71728 38.5224 7.03727 35.0779 6.59798C31.6334 6.15869 28.1469 6.99026 25.2715 8.93693L29.388 15.0174C30.784 14.0723 32.4767 13.6685 34.149 13.8818C35.8213 14.0951 37.3584 14.9107 38.4725 16.176C38.7223 16.4595 38.9469 16.7614 39.1451 17.078L35.5013 20.7218H47.6106V8.61243L44.402 11.8211Z" fill="#1C3AA9"/>
</g>
<g filter="url(#filter1_d_176_3531)">
<path d="M33.2385 6.48389H21.1291L24.301 9.6557C21.9308 11.5712 20.227 14.2033 19.4568 17.1736C18.5853 20.5348 18.9691 24.0985 20.5364 27.1971L27.0888 23.8829C26.3279 22.3786 26.1415 20.6484 26.5646 19.0165C26.9878 17.3847 27.9913 15.963 29.3873 15.0179C29.4424 14.9806 29.4979 14.9442 29.5539 14.9086L33.2385 18.5932V6.48389Z" fill="#4285F4"/>
</g>
<g filter="url(#filter2_d_176_3531)">
<path d="M19 20.8548H31.1093L27.4507 24.5135C28.2265 25.7151 29.3592 26.6526 30.6981 27.1883C32.2634 27.8144 34.0032 27.8485 35.5917 27.284C37.1803 26.7195 38.5085 25.5953 39.3277 24.1218L44.6238 29.4046C42.9537 31.5965 40.6744 33.2705 38.0504 34.203C34.7784 35.3656 31.1948 35.2955 27.9708 34.0058C25.7029 33.0985 23.7224 31.6315 22.2016 29.7626L19 32.9642V20.8548Z" fill="#ABABAB"/>
</g>
<defs>
<filter id="filter0_d_176_3531" x="24.2715" y="5.48328" width="24.3398" height="16.2385" filterUnits="userSpaceOnUse" color-interpolation-filters="sRGB">
<feFlood flood-opacity="0" result="BackgroundImageFix"/>
<feColorMatrix in="SourceAlpha" type="matrix" values="0 0 0 0 0 0 0 0 0 0 0 0 0 0 0 0 0 0 127 0" result="hardAlpha"/>
<feOffset/>
<feGaussianBlur stdDeviation="0.5"/>
<feColorMatrix type="matrix" values="0 0 0 0 0 0 0 0 0 0 0 0 0 0 0 0 0 0 0.38 0"/>
<feBlend mode="normal" in2="BackgroundImageFix" result="effect1_dropShadow_176_3531"/>
<feBlend mode="normal" in="SourceGraphic" in2="effect1_dropShadow_176_3531" result="shape"/>
</filter>
<filter id="filter1_d_176_3531" x="18" y="5.48389" width="16.2383" height="22.7132" filterUnits="userSpaceOnUse" color-interpolation-filters="sRGB">
<feFlood flood-opacity="0" result="BackgroundImageFix"/>
<feColorMatrix in="SourceAlpha" type="matrix" values="0 0 0 0 0 0 0 0 0 0 0 0 0 0 0 0 0 0 127 0" result="hardAlpha"/>
<feOffset/>
<feGaussianBlur stdDeviation="0.5"/>
<feColorMatrix type="matrix" values="0 0 0 0 0 0 0 0 0 0 0 0 0 0 0 0 0 0 0.38 0"/>
<feBlend mode="normal" in2="BackgroundImageFix" result="effect1_dropShadow_176_3531"/>
<feBlend mode="normal" in="SourceGraphic" in2="effect1_dropShadow_176_3531" result="shape"/>
</filter>
<filter id="filter2_d_176_3531" x="18" y="19.8548" width="27.623" height="16.1719" filterUnits="userSpaceOnUse" color-interpolation-filters="sRGB">
<feFlood flood-opacity="0" result="BackgroundImageFix"/>
<feColorMatrix in="SourceAlpha" type="matrix" values="0 0 0 0 0 0 0 0 0 0 0 0 0 0 0 0 0 0 127 0" result="hardAlpha"/>
<feOffset/>
<feGaussianBlur stdDeviation="0.5"/>
<feColorMatrix type="matrix" values="0 0 0 0 0 0 0 0 0 0 0 0 0 0 0 0 0 0 0.38 0"/>
<feBlend mode="normal" in2="BackgroundImageFix" result="effect1_dropShadow_176_3531"/>
<feBlend mode="normal" in="SourceGraphic" in2="effect1_dropShadow_176_3531" result="shape"/>
</filter>
</defs>
</svg>
