<svg width="17" height="17" viewBox="0 0 17 17" fill="none" xmlns="http://www.w3.org/2000/svg">
<path d="M13.3534 12.1226L13.6459 14.4926C13.7209 15.1151 13.0534 15.5501 12.5209 15.2276L9.37841 13.3601C9.03341 13.3601 8.69591 13.3376 8.36591 13.2926C8.92091 12.6401 9.25091 11.8151 9.25091 10.9226C9.25091 8.79254 7.4059 7.06757 5.12588 7.06757C4.25587 7.06757 3.45337 7.31505 2.78587 7.75005C2.76337 7.56255 2.75586 7.37504 2.75586 7.18004C2.75586 3.76751 5.71838 1 9.37841 1C13.0384 1 16.001 3.76751 16.001 7.18004C16.001 9.20506 14.9585 10.9976 13.3534 12.1226Z" stroke="black" stroke-linecap="round" stroke-linejoin="round"/>
<path d="M9.25006 10.9226C9.25006 11.8151 8.92007 12.6401 8.36506 13.2927C7.62256 14.1927 6.44504 14.7701 5.12503 14.7701L3.16752 15.9326C2.83751 16.1351 2.41751 15.8576 2.46251 15.4751L2.65001 13.9977C1.645 13.3002 1 12.1826 1 10.9226C1 9.6026 1.70501 8.4401 2.78502 7.7501C3.45252 7.31509 4.25502 7.06761 5.12503 7.06761C7.40505 7.06761 9.25006 8.79259 9.25006 10.9226Z" stroke="black" stroke-linecap="round" stroke-linejoin="round"/>
</svg>
