<svg width="390" height="237" viewBox="0 0 390 237" fill="none" xmlns="http://www.w3.org/2000/svg">
<rect y="0.0795898" width="390" height="236.921" rx="30.5272" fill="url(#paint0_linear_172_3740)"/>
<path d="M70.8506 29.5398V18.3398H77.8746V20.2918H72.8026V22.5638H76.8266V24.5158H72.8026V27.5878H77.8746V29.5398H70.8506ZM86.9599 24.4838V29.5398H85.0079V24.9958C85.0079 24.6811 84.9305 24.3958 84.7759 24.1398C84.6212 23.8785 84.4132 23.6731 84.1519 23.5238C83.8959 23.3691 83.6105 23.2918 83.2959 23.2918C82.9812 23.2918 82.6932 23.3691 82.4319 23.5238C82.1759 23.6731 81.9705 23.8785 81.8159 24.1398C81.6665 24.3958 81.5919 24.6811 81.5919 24.9958V29.5398H79.6399L79.6319 21.5398H81.5839L81.5919 22.2518C81.8639 21.9638 82.1892 21.7371 82.5679 21.5718C82.9465 21.4011 83.3545 21.3158 83.7919 21.3158C84.3732 21.3158 84.9039 21.4598 85.3839 21.7478C85.8639 22.0305 86.2452 22.4118 86.5279 22.8918C86.8159 23.3665 86.9599 23.8971 86.9599 24.4838ZM92.1255 29.7638C91.3522 29.7638 90.6455 29.5745 90.0055 29.1958C89.3708 28.8171 88.8642 28.3078 88.4855 27.6678C88.1068 27.0278 87.9175 26.3185 87.9175 25.5398C87.9175 24.9585 88.0268 24.4145 88.2455 23.9078C88.4642 23.4011 88.7655 22.9558 89.1495 22.5718C89.5388 22.1825 89.9868 21.8785 90.4935 21.6598C91.0002 21.4411 91.5442 21.3318 92.1255 21.3318C92.6375 21.3318 93.0855 21.4465 93.4695 21.6758C93.8535 21.8998 94.1735 22.1931 94.4295 22.5558V21.5398H96.3815V33.5398H94.4295V28.5398C94.1735 28.9025 93.8535 29.1985 93.4695 29.4278C93.0855 29.6518 92.6375 29.7638 92.1255 29.7638ZM92.1495 23.2118C91.7388 23.2118 91.3628 23.3185 91.0215 23.5318C90.6855 23.7398 90.4162 24.0198 90.2135 24.3718C90.0162 24.7238 89.9175 25.1131 89.9175 25.5398C89.9175 25.9718 90.0162 26.3665 90.2135 26.7238C90.4162 27.0758 90.6855 27.3558 91.0215 27.5638C91.3628 27.7718 91.7388 27.8758 92.1495 27.8758C92.5655 27.8758 92.9308 27.7718 93.2455 27.5638C93.5655 27.3505 93.8162 27.0678 93.9975 26.7158C94.1788 26.3585 94.2695 25.9665 94.2695 25.5398C94.2695 25.1131 94.1788 24.7238 93.9975 24.3718C93.8162 24.0198 93.5655 23.7398 93.2455 23.5318C92.9255 23.3185 92.5602 23.2118 92.1495 23.2118ZM97.7338 26.5798V21.5398H99.6858V26.0678C99.6858 26.3825 99.7631 26.6705 99.9178 26.9318C100.072 27.1878 100.278 27.3931 100.534 27.5478C100.795 27.6971 101.08 27.7718 101.39 27.7718C101.71 27.7718 101.998 27.6971 102.254 27.5478C102.51 27.3931 102.715 27.1878 102.87 26.9318C103.024 26.6705 103.102 26.3825 103.102 26.0678V21.5398H105.054L105.062 29.5398H103.11L103.102 28.8118C102.824 29.0998 102.496 29.3291 102.118 29.4998C101.739 29.6651 101.334 29.7478 100.902 29.7478C100.32 29.7478 99.7898 29.6065 99.3098 29.3238C98.8298 29.0358 98.4458 28.6545 98.1578 28.1798C97.8751 27.6998 97.7338 27.1665 97.7338 26.5798ZM106.663 21.5398H108.615V29.5398H106.663V21.5398ZM107.655 20.5078C107.367 20.5078 107.124 20.4145 106.927 20.2278C106.73 20.0358 106.631 19.7958 106.631 19.5078C106.631 19.2251 106.73 18.9878 106.927 18.7958C107.124 18.6038 107.364 18.5078 107.647 18.5078C107.93 18.5078 108.167 18.6038 108.359 18.7958C108.556 18.9878 108.655 19.2251 108.655 19.5078C108.655 19.7958 108.559 20.0358 108.367 20.2278C108.175 20.4145 107.938 20.5078 107.655 20.5078ZM110.484 29.5398L110.476 21.5398H112.428L112.436 22.2518C112.708 21.9638 113.033 21.7371 113.412 21.5718C113.79 21.4011 114.198 21.3158 114.636 21.3158C114.929 21.3158 115.222 21.3585 115.516 21.4438L114.748 23.4118C114.545 23.3318 114.342 23.2918 114.14 23.2918C113.825 23.2918 113.537 23.3691 113.276 23.5238C113.02 23.6731 112.814 23.8785 112.66 24.1398C112.51 24.3958 112.436 24.6811 112.436 24.9958V29.5398H110.484ZM121.87 21.5398H123.942L119.566 33.5398H117.494L118.942 29.5398L116.062 21.5398H118.198L119.918 26.8678L121.87 21.5398Z" fill="white"/>
<path d="M74.6006 52.5698V53.3098H71.5706V55.6598H74.0306V56.3998H71.5706V59.5398H70.6606V52.5698H74.6006ZM78.0897 59.6298C77.5764 59.6298 77.1097 59.5131 76.6897 59.2798C76.2764 59.0465 75.9497 58.7165 75.7097 58.2898C75.4764 57.8565 75.3597 57.3565 75.3597 56.7898C75.3597 56.2298 75.4797 55.7365 75.7197 55.3098C75.9664 54.8765 76.2997 54.5465 76.7197 54.3198C77.1397 54.0865 77.6097 53.9698 78.1297 53.9698C78.6497 53.9698 79.1197 54.0865 79.5397 54.3198C79.9597 54.5465 80.2897 54.8731 80.5297 55.2998C80.7764 55.7265 80.8997 56.2231 80.8997 56.7898C80.8997 57.3565 80.773 57.8565 80.5197 58.2898C80.273 58.7165 79.9364 59.0465 79.5097 59.2798C79.083 59.5131 78.6097 59.6298 78.0897 59.6298ZM78.0897 58.8298C78.4164 58.8298 78.723 58.7531 79.0097 58.5998C79.2964 58.4465 79.5264 58.2165 79.6997 57.9098C79.8797 57.6031 79.9697 57.2298 79.9697 56.7898C79.9697 56.3498 79.883 55.9765 79.7097 55.6698C79.5364 55.3631 79.3097 55.1365 79.0297 54.9898C78.7497 54.8365 78.4464 54.7598 78.1197 54.7598C77.7864 54.7598 77.4797 54.8365 77.1997 54.9898C76.9264 55.1365 76.7064 55.3631 76.5397 55.6698C76.373 55.9765 76.2897 56.3498 76.2897 56.7898C76.2897 57.2365 76.3697 57.6131 76.5297 57.9198C76.6964 58.2265 76.9164 58.4565 77.1897 58.6098C77.463 58.7565 77.763 58.8298 78.0897 58.8298ZM83.0062 54.9498C83.1662 54.6365 83.3928 54.3931 83.6862 54.2198C83.9862 54.0465 84.3495 53.9598 84.7762 53.9598V54.8998H84.5362C83.5162 54.8998 83.0062 55.4531 83.0062 56.5598V59.5398H82.0962V54.0598H83.0062V54.9498ZM89.4027 53.3098V55.6398H91.9427V56.3898H89.4027V58.7898H92.2427V59.5398H88.4927V52.5598H92.2427V53.3098H89.4027ZM96.2896 53.9598C96.9563 53.9598 97.4963 54.1631 97.9096 54.5698C98.3229 54.9698 98.5296 55.5498 98.5296 56.3098V59.5398H97.6296V56.4398C97.6296 55.8931 97.4929 55.4765 97.2196 55.1898C96.9463 54.8965 96.5729 54.7498 96.0996 54.7498C95.6196 54.7498 95.2363 54.8998 94.9496 55.1998C94.6696 55.4998 94.5296 55.9365 94.5296 56.5098V59.5398H93.6196V54.0598H94.5296V54.8398C94.7096 54.5598 94.9529 54.3431 95.2596 54.1898C95.5729 54.0365 95.9163 53.9598 96.2896 53.9598ZM99.6761 56.7798C99.6761 56.2198 99.7894 55.7298 100.016 55.3098C100.243 54.8831 100.553 54.5531 100.946 54.3198C101.346 54.0865 101.793 53.9698 102.286 53.9698C102.759 53.9698 103.173 54.0765 103.526 54.2898C103.886 54.4965 104.149 54.7531 104.316 55.0598V54.0598H105.236V62.1398H104.316V58.5298C104.143 58.8365 103.876 59.0965 103.516 59.3098C103.156 59.5231 102.736 59.6298 102.256 59.6298C101.776 59.6298 101.339 59.5098 100.946 59.2698C100.553 59.0298 100.243 58.6931 100.016 58.2598C99.7894 57.8265 99.6761 57.3331 99.6761 56.7798ZM104.316 56.7898C104.316 56.3765 104.233 56.0165 104.066 55.7098C103.899 55.4031 103.673 55.1698 103.386 55.0098C103.106 54.8431 102.796 54.7598 102.456 54.7598C102.116 54.7598 101.806 54.8398 101.526 54.9998C101.246 55.1598 101.023 55.3931 100.856 55.6998C100.689 56.0065 100.606 56.3665 100.606 56.7798C100.606 57.1998 100.689 57.5665 100.856 57.8798C101.023 58.1865 101.246 58.4231 101.526 58.5898C101.806 58.7498 102.116 58.8298 102.456 58.8298C102.796 58.8298 103.106 58.7498 103.386 58.5898C103.673 58.4231 103.899 58.1865 104.066 57.8798C104.233 57.5665 104.316 57.2031 104.316 56.7898ZM111.634 54.0598V59.5398H110.724V58.7298C110.551 59.0098 110.307 59.2298 109.994 59.3898C109.687 59.5431 109.347 59.6198 108.974 59.6198C108.547 59.6198 108.164 59.5331 107.824 59.3598C107.484 59.1798 107.214 58.9131 107.014 58.5598C106.821 58.2065 106.724 57.7765 106.724 57.2698V54.0598H107.624V57.1498C107.624 57.6898 107.761 58.1065 108.034 58.3998C108.307 58.6865 108.681 58.8298 109.154 58.8298C109.641 58.8298 110.024 58.6798 110.304 58.3798C110.584 58.0798 110.724 57.6431 110.724 57.0698V54.0598H111.634ZM113.64 53.1698C113.467 53.1698 113.32 53.1098 113.2 52.9898C113.08 52.8698 113.02 52.7231 113.02 52.5498C113.02 52.3765 113.08 52.2298 113.2 52.1098C113.32 51.9898 113.467 51.9298 113.64 51.9298C113.807 51.9298 113.947 51.9898 114.06 52.1098C114.18 52.2298 114.24 52.3765 114.24 52.5498C114.24 52.7231 114.18 52.8698 114.06 52.9898C113.947 53.1098 113.807 53.1698 113.64 53.1698ZM114.08 54.0598V59.5398H113.17V54.0598H114.08ZM116.541 54.9498C116.701 54.6365 116.928 54.3931 117.221 54.2198C117.521 54.0465 117.885 53.9598 118.311 53.9598V54.8998H118.071C117.051 54.8998 116.541 55.4531 116.541 56.5598V59.5398H115.631V54.0598H116.541V54.9498ZM124.082 54.0598L120.782 62.1198H119.842L120.922 59.4798L118.712 54.0598H119.722L121.442 58.4998L123.142 54.0598H124.082ZM125.937 58.2798L124.817 60.9698H124.207L124.937 58.2798H125.937ZM129.305 56.0498C129.305 55.3698 129.458 54.7598 129.765 54.2198C130.072 53.6731 130.488 53.2465 131.015 52.9398C131.548 52.6331 132.138 52.4798 132.785 52.4798C133.545 52.4798 134.208 52.6631 134.775 53.0298C135.342 53.3965 135.755 53.9165 136.015 54.5898H134.925C134.732 54.1698 134.452 53.8465 134.085 53.6198C133.725 53.3931 133.292 53.2798 132.785 53.2798C132.298 53.2798 131.862 53.3931 131.475 53.6198C131.088 53.8465 130.785 54.1698 130.565 54.5898C130.345 55.0031 130.235 55.4898 130.235 56.0498C130.235 56.6031 130.345 57.0898 130.565 57.5098C130.785 57.9231 131.088 58.2431 131.475 58.4698C131.862 58.6965 132.298 58.8098 132.785 58.8098C133.292 58.8098 133.725 58.6998 134.085 58.4798C134.452 58.2531 134.732 57.9298 134.925 57.5098H136.015C135.755 58.1765 135.342 58.6931 134.775 59.0598C134.208 59.4198 133.545 59.5998 132.785 59.5998C132.138 59.5998 131.548 59.4498 131.015 59.1498C130.488 58.8431 130.072 58.4198 129.765 57.8798C129.458 57.3398 129.305 56.7298 129.305 56.0498ZM139.76 59.6298C139.246 59.6298 138.78 59.5131 138.36 59.2798C137.946 59.0465 137.62 58.7165 137.38 58.2898C137.146 57.8565 137.03 57.3565 137.03 56.7898C137.03 56.2298 137.15 55.7365 137.39 55.3098C137.636 54.8765 137.97 54.5465 138.39 54.3198C138.81 54.0865 139.28 53.9698 139.8 53.9698C140.32 53.9698 140.79 54.0865 141.21 54.3198C141.63 54.5465 141.96 54.8731 142.2 55.2998C142.446 55.7265 142.57 56.2231 142.57 56.7898C142.57 57.3565 142.443 57.8565 142.19 58.2898C141.943 58.7165 141.606 59.0465 141.18 59.2798C140.753 59.5131 140.28 59.6298 139.76 59.6298ZM139.76 58.8298C140.086 58.8298 140.393 58.7531 140.68 58.5998C140.966 58.4465 141.196 58.2165 141.37 57.9098C141.55 57.6031 141.64 57.2298 141.64 56.7898C141.64 56.3498 141.553 55.9765 141.38 55.6698C141.206 55.3631 140.98 55.1365 140.7 54.9898C140.42 54.8365 140.116 54.7598 139.79 54.7598C139.456 54.7598 139.15 54.8365 138.87 54.9898C138.596 55.1365 138.376 55.3631 138.21 55.6698C138.043 55.9765 137.96 56.3498 137.96 56.7898C137.96 57.2365 138.04 57.6131 138.2 57.9198C138.366 58.2265 138.586 58.4565 138.86 58.6098C139.133 58.7565 139.433 58.8298 139.76 58.8298ZM146.436 53.9598C147.103 53.9598 147.643 54.1631 148.056 54.5698C148.469 54.9698 148.676 55.5498 148.676 56.3098V59.5398H147.776V56.4398C147.776 55.8931 147.639 55.4765 147.366 55.1898C147.093 54.8965 146.719 54.7498 146.246 54.7498C145.766 54.7498 145.383 54.8998 145.096 55.1998C144.816 55.4998 144.676 55.9365 144.676 56.5098V59.5398H143.766V54.0598H144.676V54.8398C144.856 54.5598 145.099 54.3431 145.406 54.1898C145.719 54.0365 146.063 53.9598 146.436 53.9598ZM151.273 54.8098V58.0398C151.273 58.3065 151.329 58.4965 151.443 58.6098C151.556 58.7165 151.753 58.7698 152.033 58.7698H152.703V59.5398H151.883C151.376 59.5398 150.996 59.4231 150.743 59.1898C150.489 58.9565 150.363 58.5731 150.363 58.0398V54.8098H149.653V54.0598H150.363V52.6798H151.273V54.0598H152.703V54.8098H151.273ZM153.465 56.7798C153.465 56.2198 153.578 55.7298 153.805 55.3098C154.032 54.8831 154.342 54.5531 154.735 54.3198C155.135 54.0865 155.578 53.9698 156.065 53.9698C156.545 53.9698 156.962 54.0731 157.315 54.2798C157.668 54.4865 157.932 54.7465 158.105 55.0598V54.0598H159.025V59.5398H158.105V58.5198C157.925 58.8398 157.655 59.1065 157.295 59.3198C156.942 59.5265 156.528 59.6298 156.055 59.6298C155.568 59.6298 155.128 59.5098 154.735 59.2698C154.342 59.0298 154.032 58.6931 153.805 58.2598C153.578 57.8265 153.465 57.3331 153.465 56.7798ZM158.105 56.7898C158.105 56.3765 158.022 56.0165 157.855 55.7098C157.688 55.4031 157.462 55.1698 157.175 55.0098C156.895 54.8431 156.585 54.7598 156.245 54.7598C155.905 54.7598 155.595 54.8398 155.315 54.9998C155.035 55.1598 154.812 55.3931 154.645 55.6998C154.478 56.0065 154.395 56.3665 154.395 56.7798C154.395 57.1998 154.478 57.5665 154.645 57.8798C154.812 58.1865 155.035 58.4231 155.315 58.5898C155.595 58.7498 155.905 58.8298 156.245 58.8298C156.585 58.8298 156.895 58.7498 157.175 58.5898C157.462 58.4231 157.688 58.1865 157.855 57.8798C158.022 57.5665 158.105 57.2031 158.105 56.7898ZM160.223 56.7898C160.223 56.2231 160.336 55.7298 160.563 55.3098C160.79 54.8831 161.103 54.5531 161.503 54.3198C161.91 54.0865 162.373 53.9698 162.893 53.9698C163.566 53.9698 164.12 54.1331 164.553 54.4598C164.993 54.7865 165.283 55.2398 165.423 55.8198H164.443C164.35 55.4865 164.166 55.2231 163.893 55.0298C163.626 54.8365 163.293 54.7398 162.893 54.7398C162.373 54.7398 161.953 54.9198 161.633 55.2798C161.313 55.6331 161.153 56.1365 161.153 56.7898C161.153 57.4498 161.313 57.9598 161.633 58.3198C161.953 58.6798 162.373 58.8598 162.893 58.8598C163.293 58.8598 163.626 58.7665 163.893 58.5798C164.16 58.3931 164.343 58.1265 164.443 57.7798H165.423C165.276 58.3398 164.983 58.7898 164.543 59.1298C164.103 59.4631 163.553 59.6298 162.893 59.6298C162.373 59.6298 161.91 59.5131 161.503 59.2798C161.103 59.0465 160.79 58.7165 160.563 58.2898C160.336 57.8631 160.223 57.3631 160.223 56.7898ZM167.747 54.8098V58.0398C167.747 58.3065 167.804 58.4965 167.917 58.6098C168.031 58.7165 168.227 58.7698 168.507 58.7698H169.177V59.5398H168.357C167.851 59.5398 167.471 59.4231 167.217 59.1898C166.964 58.9565 166.837 58.5731 166.837 58.0398V54.8098H166.127V54.0598H166.837V52.6798H167.747V54.0598H169.177V54.8098H167.747ZM177.806 54.0598V59.5398H176.896V58.7298C176.722 59.0098 176.479 59.2298 176.166 59.3898C175.859 59.5431 175.519 59.6198 175.146 59.6198C174.719 59.6198 174.336 59.5331 173.996 59.3598C173.656 59.1798 173.386 58.9131 173.186 58.5598C172.992 58.2065 172.896 57.7765 172.896 57.2698V54.0598H173.796V57.1498C173.796 57.6898 173.932 58.1065 174.206 58.3998C174.479 58.6865 174.852 58.8298 175.326 58.8298C175.812 58.8298 176.196 58.6798 176.476 58.3798C176.756 58.0798 176.896 57.6431 176.896 57.0698V54.0598H177.806ZM181.282 59.6298C180.862 59.6298 180.486 59.5598 180.152 59.4198C179.819 59.2731 179.556 59.0731 179.362 58.8198C179.169 58.5598 179.062 58.2631 179.042 57.9298H179.982C180.009 58.2031 180.136 58.4265 180.362 58.5998C180.596 58.7731 180.899 58.8598 181.272 58.8598C181.619 58.8598 181.892 58.7831 182.092 58.6298C182.292 58.4765 182.392 58.2831 182.392 58.0498C182.392 57.8098 182.286 57.6331 182.072 57.5198C181.859 57.3998 181.529 57.2831 181.082 57.1698C180.676 57.0631 180.342 56.9565 180.082 56.8498C179.829 56.7365 179.609 56.5731 179.422 56.3598C179.242 56.1398 179.152 55.8531 179.152 55.4998C179.152 55.2198 179.236 54.9631 179.402 54.7298C179.569 54.4965 179.806 54.3131 180.112 54.1798C180.419 54.0398 180.769 53.9698 181.162 53.9698C181.769 53.9698 182.259 54.1231 182.632 54.4298C183.006 54.7365 183.206 55.1565 183.232 55.6898H182.322C182.302 55.4031 182.186 55.1731 181.972 54.9998C181.766 54.8265 181.486 54.7398 181.132 54.7398C180.806 54.7398 180.546 54.8098 180.352 54.9498C180.159 55.0898 180.062 55.2731 180.062 55.4998C180.062 55.6798 180.119 55.8298 180.232 55.9498C180.352 56.0631 180.499 56.1565 180.672 56.2298C180.852 56.2965 181.099 56.3731 181.412 56.4598C181.806 56.5665 182.126 56.6731 182.372 56.7798C182.619 56.8798 182.829 57.0331 183.002 57.2398C183.182 57.4465 183.276 57.7165 183.282 58.0498C183.282 58.3498 183.199 58.6198 183.032 58.8598C182.866 59.0998 182.629 59.2898 182.322 59.4298C182.022 59.5631 181.676 59.6298 181.282 59.6298ZM189.623 59.6298C189.11 59.6298 188.643 59.5131 188.223 59.2798C187.81 59.0465 187.483 58.7165 187.243 58.2898C187.01 57.8565 186.893 57.3565 186.893 56.7898C186.893 56.2298 187.013 55.7365 187.253 55.3098C187.5 54.8765 187.833 54.5465 188.253 54.3198C188.673 54.0865 189.143 53.9698 189.663 53.9698C190.183 53.9698 190.653 54.0865 191.073 54.3198C191.493 54.5465 191.823 54.8731 192.063 55.2998C192.31 55.7265 192.433 56.2231 192.433 56.7898C192.433 57.3565 192.306 57.8565 192.053 58.2898C191.806 58.7165 191.47 59.0465 191.043 59.2798C190.616 59.5131 190.143 59.6298 189.623 59.6298ZM189.623 58.8298C189.95 58.8298 190.256 58.7531 190.543 58.5998C190.83 58.4465 191.06 58.2165 191.233 57.9098C191.413 57.6031 191.503 57.2298 191.503 56.7898C191.503 56.3498 191.416 55.9765 191.243 55.6698C191.07 55.3631 190.843 55.1365 190.563 54.9898C190.283 54.8365 189.98 54.7598 189.653 54.7598C189.32 54.7598 189.013 54.8365 188.733 54.9898C188.46 55.1365 188.24 55.3631 188.073 55.6698C187.906 55.9765 187.823 56.3498 187.823 56.7898C187.823 57.2365 187.903 57.6131 188.063 57.9198C188.23 58.2265 188.45 58.4565 188.723 58.6098C188.996 58.7565 189.296 58.8298 189.623 58.8298ZM196.299 53.9598C196.966 53.9598 197.506 54.1631 197.919 54.5698C198.333 54.9698 198.539 55.5498 198.539 56.3098V59.5398H197.639V56.4398C197.639 55.8931 197.503 55.4765 197.229 55.1898C196.956 54.8965 196.583 54.7498 196.109 54.7498C195.629 54.7498 195.246 54.8998 194.959 55.1998C194.679 55.4998 194.539 55.9365 194.539 56.5098V59.5398H193.629V54.0598H194.539V54.8398C194.719 54.5598 194.963 54.3431 195.269 54.1898C195.583 54.0365 195.926 53.9598 196.299 53.9598ZM203.802 54.8098V58.0398C203.802 58.3065 203.859 58.4965 203.972 58.6098C204.085 58.7165 204.282 58.7698 204.562 58.7698H205.232V59.5398H204.412C203.905 59.5398 203.525 59.4231 203.272 59.1898C203.019 58.9565 202.892 58.5731 202.892 58.0398V54.8098H202.182V54.0598H202.892V52.6798H203.802V54.0598H205.232V54.8098H203.802ZM209.054 53.9598C209.468 53.9598 209.841 54.0498 210.174 54.2298C210.508 54.4031 210.768 54.6665 210.954 55.0198C211.148 55.3731 211.244 55.8031 211.244 56.3098V59.5398H210.344V56.4398C210.344 55.8931 210.208 55.4765 209.934 55.1898C209.661 54.8965 209.288 54.7498 208.814 54.7498C208.334 54.7498 207.951 54.8998 207.664 55.1998C207.384 55.4998 207.244 55.9365 207.244 56.5098V59.5398H206.334V52.1398H207.244V54.8398C207.424 54.5598 207.671 54.3431 207.984 54.1898C208.304 54.0365 208.661 53.9598 209.054 53.9598ZM217.731 56.5898C217.731 56.7631 217.721 56.9465 217.701 57.1398H213.321C213.354 57.6798 213.538 58.1031 213.871 58.4098C214.211 58.7098 214.621 58.8598 215.101 58.8598C215.494 58.8598 215.821 58.7698 216.081 58.5898C216.348 58.4031 216.534 58.1565 216.641 57.8498H217.621C217.474 58.3765 217.181 58.8065 216.741 59.1398C216.301 59.4665 215.754 59.6298 215.101 59.6298C214.581 59.6298 214.114 59.5131 213.701 59.2798C213.294 59.0465 212.974 58.7165 212.741 58.2898C212.508 57.8565 212.391 57.3565 212.391 56.7898C212.391 56.2231 212.504 55.7265 212.731 55.2998C212.958 54.8731 213.274 54.5465 213.681 54.3198C214.094 54.0865 214.568 53.9698 215.101 53.9698C215.621 53.9698 216.081 54.0831 216.481 54.3098C216.881 54.5365 217.188 54.8498 217.401 55.2498C217.621 55.6431 217.731 56.0898 217.731 56.5898ZM216.791 56.3998C216.791 56.0531 216.714 55.7565 216.561 55.5098C216.408 55.2565 216.198 55.0665 215.931 54.9398C215.671 54.8065 215.381 54.7398 215.061 54.7398C214.601 54.7398 214.208 54.8865 213.881 55.1798C213.561 55.4731 213.378 55.8798 213.331 56.3998H216.791ZM223.828 54.8098H222.678V59.5398H221.768V54.8098H221.058V54.0598H221.768V53.6698C221.768 53.0565 221.925 52.6098 222.238 52.3298C222.558 52.0431 223.068 51.8998 223.768 51.8998V52.6598C223.368 52.6598 223.085 52.7398 222.918 52.8998C222.758 53.0531 222.678 53.3098 222.678 53.6698V54.0598H223.828V54.8098ZM227.279 59.6298C226.766 59.6298 226.299 59.5131 225.879 59.2798C225.466 59.0465 225.139 58.7165 224.899 58.2898C224.666 57.8565 224.549 57.3565 224.549 56.7898C224.549 56.2298 224.669 55.7365 224.909 55.3098C225.156 54.8765 225.489 54.5465 225.909 54.3198C226.329 54.0865 226.799 53.9698 227.319 53.9698C227.839 53.9698 228.309 54.0865 228.729 54.3198C229.149 54.5465 229.479 54.8731 229.719 55.2998C229.966 55.7265 230.089 56.2231 230.089 56.7898C230.089 57.3565 229.962 57.8565 229.709 58.2898C229.462 58.7165 229.126 59.0465 228.699 59.2798C228.272 59.5131 227.799 59.6298 227.279 59.6298ZM227.279 58.8298C227.606 58.8298 227.912 58.7531 228.199 58.5998C228.486 58.4465 228.716 58.2165 228.889 57.9098C229.069 57.6031 229.159 57.2298 229.159 56.7898C229.159 56.3498 229.072 55.9765 228.899 55.6698C228.726 55.3631 228.499 55.1365 228.219 54.9898C227.939 54.8365 227.636 54.7598 227.309 54.7598C226.976 54.7598 226.669 54.8365 226.389 54.9898C226.116 55.1365 225.896 55.3631 225.729 55.6698C225.562 55.9765 225.479 56.3498 225.479 56.7898C225.479 57.2365 225.559 57.6131 225.719 57.9198C225.886 58.2265 226.106 58.4565 226.379 58.6098C226.652 58.7565 226.952 58.8298 227.279 58.8298ZM232.196 52.1398V59.5398H231.286V52.1398H232.196ZM234.657 52.1398V59.5398H233.747V52.1398H234.657ZM238.598 59.6298C238.084 59.6298 237.618 59.5131 237.198 59.2798C236.784 59.0465 236.458 58.7165 236.218 58.2898C235.984 57.8565 235.868 57.3565 235.868 56.7898C235.868 56.2298 235.988 55.7365 236.228 55.3098C236.474 54.8765 236.808 54.5465 237.228 54.3198C237.648 54.0865 238.118 53.9698 238.638 53.9698C239.158 53.9698 239.628 54.0865 240.048 54.3198C240.468 54.5465 240.798 54.8731 241.038 55.2998C241.284 55.7265 241.408 56.2231 241.408 56.7898C241.408 57.3565 241.281 57.8565 241.028 58.2898C240.781 58.7165 240.444 59.0465 240.018 59.2798C239.591 59.5131 239.118 59.6298 238.598 59.6298ZM238.598 58.8298C238.924 58.8298 239.231 58.7531 239.518 58.5998C239.804 58.4465 240.034 58.2165 240.208 57.9098C240.388 57.6031 240.478 57.2298 240.478 56.7898C240.478 56.3498 240.391 55.9765 240.218 55.6698C240.044 55.3631 239.818 55.1365 239.538 54.9898C239.258 54.8365 238.954 54.7598 238.628 54.7598C238.294 54.7598 237.988 54.8365 237.708 54.9898C237.434 55.1365 237.214 55.3631 237.048 55.6698C236.881 55.9765 236.798 56.3498 236.798 56.7898C236.798 57.2365 236.878 57.6131 237.038 57.9198C237.204 58.2265 237.424 58.4565 237.698 58.6098C237.971 58.7565 238.271 58.8298 238.598 58.8298ZM249.904 54.0598L248.194 59.5398H247.254L245.934 55.1898L244.614 59.5398H243.674L241.954 54.0598H242.884L244.144 58.6598L245.504 54.0598H246.434L247.764 58.6698L249.004 54.0598H249.904ZM251.277 53.1698C251.104 53.1698 250.957 53.1098 250.837 52.9898C250.717 52.8698 250.657 52.7231 250.657 52.5498C250.657 52.3765 250.717 52.2298 250.837 52.1098C250.957 51.9898 251.104 51.9298 251.277 51.9298C251.444 51.9298 251.584 51.9898 251.697 52.1098C251.817 52.2298 251.877 52.3765 251.877 52.5498C251.877 52.7231 251.817 52.8698 251.697 52.9898C251.584 53.1098 251.444 53.1698 251.277 53.1698ZM251.717 54.0598V59.5398H250.807V54.0598H251.717ZM255.938 53.9598C256.605 53.9598 257.145 54.1631 257.558 54.5698C257.971 54.9698 258.178 55.5498 258.178 56.3098V59.5398H257.278V56.4398C257.278 55.8931 257.141 55.4765 256.868 55.1898C256.595 54.8965 256.221 54.7498 255.748 54.7498C255.268 54.7498 254.885 54.8998 254.598 55.1998C254.318 55.4998 254.178 55.9365 254.178 56.5098V59.5398H253.268V54.0598H254.178V54.8398C254.358 54.5598 254.601 54.3431 254.908 54.1898C255.221 54.0365 255.565 53.9598 255.938 53.9598ZM261.925 53.9698C262.398 53.9698 262.811 54.0731 263.165 54.2798C263.525 54.4865 263.791 54.7465 263.965 55.0598V54.0598H264.885V59.6598C264.885 60.1598 264.778 60.6031 264.565 60.9898C264.351 61.3831 264.045 61.6898 263.645 61.9098C263.251 62.1298 262.791 62.2398 262.265 62.2398C261.545 62.2398 260.945 62.0698 260.465 61.7298C259.985 61.3898 259.701 60.9265 259.615 60.3398H260.515C260.615 60.6731 260.821 60.9398 261.135 61.1398C261.448 61.3465 261.825 61.4498 262.265 61.4498C262.765 61.4498 263.171 61.2931 263.485 60.9798C263.805 60.6665 263.965 60.2265 263.965 59.6598V58.5098C263.785 58.8298 263.518 59.0965 263.165 59.3098C262.811 59.5231 262.398 59.6298 261.925 59.6298C261.438 59.6298 260.995 59.5098 260.595 59.2698C260.201 59.0298 259.891 58.6931 259.665 58.2598C259.438 57.8265 259.325 57.3331 259.325 56.7798C259.325 56.2198 259.438 55.7298 259.665 55.3098C259.891 54.8831 260.201 54.5531 260.595 54.3198C260.995 54.0865 261.438 53.9698 261.925 53.9698ZM263.965 56.7898C263.965 56.3765 263.881 56.0165 263.715 55.7098C263.548 55.4031 263.321 55.1698 263.035 55.0098C262.755 54.8431 262.445 54.7598 262.105 54.7598C261.765 54.7598 261.455 54.8398 261.175 54.9998C260.895 55.1598 260.671 55.3931 260.505 55.6998C260.338 56.0065 260.255 56.3665 260.255 56.7798C260.255 57.1998 260.338 57.5665 260.505 57.8798C260.671 58.1865 260.895 58.4231 261.175 58.5898C261.455 58.7498 261.765 58.8298 262.105 58.8298C262.445 58.8298 262.755 58.7498 263.035 58.5898C263.321 58.4231 263.548 58.1865 263.715 57.8798C263.881 57.5665 263.965 57.2031 263.965 56.7898Z" fill="white"/>
<path d="M81.8915 90.9697C83.6146 90.9697 85.0115 89.5729 85.0115 87.8497C85.0115 86.1266 83.6146 84.7297 81.8915 84.7297C80.1684 84.7297 78.7715 86.1266 78.7715 87.8497C78.7715 89.5729 80.1684 90.9697 81.8915 90.9697Z" stroke="white" stroke-width="1.5"/>
<path d="M73.5103 86.0298C75.4803 77.3698 88.3103 77.3798 90.2703 86.0398C91.4203 91.1198 88.2603 95.4198 85.4903 98.0798C83.4803 100.02 80.3003 100.02 78.2803 98.0798C75.5203 95.4198 72.3603 91.1098 73.5103 86.0298Z" stroke="white" stroke-width="1.5"/>
<path d="M107.321 90.0498C107.321 89.3698 107.474 88.7598 107.781 88.2198C108.087 87.6731 108.504 87.2465 109.031 86.9398C109.564 86.6331 110.154 86.4798 110.801 86.4798C111.561 86.4798 112.224 86.6631 112.791 87.0298C113.357 87.3965 113.771 87.9165 114.031 88.5898H112.941C112.747 88.1698 112.467 87.8465 112.101 87.6198C111.741 87.3931 111.307 87.2798 110.801 87.2798C110.314 87.2798 109.877 87.3931 109.491 87.6198C109.104 87.8465 108.801 88.1698 108.581 88.5898C108.361 89.0031 108.251 89.4898 108.251 90.0498C108.251 90.6031 108.361 91.0898 108.581 91.5098C108.801 91.9231 109.104 92.2431 109.491 92.4698C109.877 92.6965 110.314 92.8098 110.801 92.8098C111.307 92.8098 111.741 92.6998 112.101 92.4798C112.467 92.2531 112.747 91.9298 112.941 91.5098H114.031C113.771 92.1765 113.357 92.6931 112.791 93.0598C112.224 93.4198 111.561 93.5998 110.801 93.5998C110.154 93.5998 109.564 93.4498 109.031 93.1498C108.504 92.8431 108.087 92.4198 107.781 91.8798C107.474 91.3398 107.321 90.7298 107.321 90.0498ZM117.775 93.6298C117.262 93.6298 116.795 93.5131 116.375 93.2798C115.962 93.0465 115.635 92.7165 115.395 92.2898C115.162 91.8565 115.045 91.3565 115.045 90.7898C115.045 90.2298 115.165 89.7365 115.405 89.3098C115.652 88.8765 115.985 88.5465 116.405 88.3198C116.825 88.0865 117.295 87.9698 117.815 87.9698C118.335 87.9698 118.805 88.0865 119.225 88.3198C119.645 88.5465 119.975 88.8731 120.215 89.2998C120.462 89.7265 120.585 90.2231 120.585 90.7898C120.585 91.3565 120.459 91.8565 120.205 92.2898C119.959 92.7165 119.622 93.0465 119.195 93.2798C118.769 93.5131 118.295 93.6298 117.775 93.6298ZM117.775 92.8298C118.102 92.8298 118.409 92.7531 118.695 92.5998C118.982 92.4465 119.212 92.2165 119.385 91.9098C119.565 91.6031 119.655 91.2298 119.655 90.7898C119.655 90.3498 119.569 89.9765 119.395 89.6698C119.222 89.3631 118.995 89.1365 118.715 88.9898C118.435 88.8365 118.132 88.7598 117.805 88.7598C117.472 88.7598 117.165 88.8365 116.885 88.9898C116.612 89.1365 116.392 89.3631 116.225 89.6698C116.059 89.9765 115.975 90.3498 115.975 90.7898C115.975 91.2365 116.055 91.6131 116.215 91.9198C116.382 92.2265 116.602 92.4565 116.875 92.6098C117.149 92.7565 117.449 92.8298 117.775 92.8298ZM122.692 88.9498C122.852 88.6365 123.078 88.3931 123.372 88.2198C123.672 88.0465 124.035 87.9598 124.462 87.9598V88.8998H124.222C123.202 88.8998 122.692 89.4531 122.692 90.5598V93.5398H121.782V88.0598H122.692V88.9498ZM126.422 89.0698C126.602 88.7565 126.869 88.4965 127.222 88.2898C127.582 88.0765 127.999 87.9698 128.472 87.9698C128.959 87.9698 129.399 88.0865 129.792 88.3198C130.192 88.5531 130.506 88.8831 130.732 89.3098C130.959 89.7298 131.072 90.2198 131.072 90.7798C131.072 91.3331 130.959 91.8265 130.732 92.2598C130.506 92.6931 130.192 93.0298 129.792 93.2698C129.399 93.5098 128.959 93.6298 128.472 93.6298C128.006 93.6298 127.592 93.5265 127.232 93.3198C126.879 93.1065 126.609 92.8431 126.422 92.5298V96.1398H125.512V88.0598H126.422V89.0698ZM130.142 90.7798C130.142 90.3665 130.059 90.0065 129.892 89.6998C129.726 89.3931 129.499 89.1598 129.212 88.9998C128.932 88.8398 128.622 88.7598 128.282 88.7598C127.949 88.7598 127.639 88.8431 127.352 89.0098C127.072 89.1698 126.846 89.4065 126.672 89.7198C126.506 90.0265 126.422 90.3831 126.422 90.7898C126.422 91.2031 126.506 91.5665 126.672 91.8798C126.846 92.1865 127.072 92.4231 127.352 92.5898C127.639 92.7498 127.949 92.8298 128.282 92.8298C128.622 92.8298 128.932 92.7498 129.212 92.5898C129.499 92.4231 129.726 92.1865 129.892 91.8798C130.059 91.5665 130.142 91.1998 130.142 90.7798ZM134.66 93.6298C134.147 93.6298 133.68 93.5131 133.26 93.2798C132.847 93.0465 132.52 92.7165 132.28 92.2898C132.047 91.8565 131.93 91.3565 131.93 90.7898C131.93 90.2298 132.05 89.7365 132.29 89.3098C132.537 88.8765 132.87 88.5465 133.29 88.3198C133.71 88.0865 134.18 87.9698 134.7 87.9698C135.22 87.9698 135.69 88.0865 136.11 88.3198C136.53 88.5465 136.86 88.8731 137.1 89.2998C137.347 89.7265 137.47 90.2231 137.47 90.7898C137.47 91.3565 137.343 91.8565 137.09 92.2898C136.843 92.7165 136.507 93.0465 136.08 93.2798C135.653 93.5131 135.18 93.6298 134.66 93.6298ZM134.66 92.8298C134.987 92.8298 135.293 92.7531 135.58 92.5998C135.867 92.4465 136.097 92.2165 136.27 91.9098C136.45 91.6031 136.54 91.2298 136.54 90.7898C136.54 90.3498 136.453 89.9765 136.28 89.6698C136.107 89.3631 135.88 89.1365 135.6 88.9898C135.32 88.8365 135.017 88.7598 134.69 88.7598C134.357 88.7598 134.05 88.8365 133.77 88.9898C133.497 89.1365 133.277 89.3631 133.11 89.6698C132.943 89.9765 132.86 90.3498 132.86 90.7898C132.86 91.2365 132.94 91.6131 133.1 91.9198C133.267 92.2265 133.487 92.4565 133.76 92.6098C134.033 92.7565 134.333 92.8298 134.66 92.8298ZM139.576 88.9498C139.736 88.6365 139.963 88.3931 140.256 88.2198C140.556 88.0465 140.92 87.9598 141.346 87.9598V88.8998H141.106C140.086 88.8998 139.576 89.4531 139.576 90.5598V93.5398H138.666V88.0598H139.576V88.9498ZM142.057 90.7798C142.057 90.2198 142.17 89.7298 142.397 89.3098C142.624 88.8831 142.934 88.5531 143.327 88.3198C143.727 88.0865 144.17 87.9698 144.657 87.9698C145.137 87.9698 145.554 88.0731 145.907 88.2798C146.26 88.4865 146.524 88.7465 146.697 89.0598V88.0598H147.617V93.5398H146.697V92.5198C146.517 92.8398 146.247 93.1065 145.887 93.3198C145.534 93.5265 145.12 93.6298 144.647 93.6298C144.16 93.6298 143.72 93.5098 143.327 93.2698C142.934 93.0298 142.624 92.6931 142.397 92.2598C142.17 91.8265 142.057 91.3331 142.057 90.7798ZM146.697 90.7898C146.697 90.3765 146.614 90.0165 146.447 89.7098C146.28 89.4031 146.054 89.1698 145.767 89.0098C145.487 88.8431 145.177 88.7598 144.837 88.7598C144.497 88.7598 144.187 88.8398 143.907 88.9998C143.627 89.1598 143.404 89.3931 143.237 89.6998C143.07 90.0065 142.987 90.3665 142.987 90.7798C142.987 91.1998 143.07 91.5665 143.237 91.8798C143.404 92.1865 143.627 92.4231 143.907 92.5898C144.187 92.7498 144.497 92.8298 144.837 92.8298C145.177 92.8298 145.487 92.7498 145.767 92.5898C146.054 92.4231 146.28 92.1865 146.447 91.8798C146.614 91.5665 146.697 91.2031 146.697 90.7898ZM150.265 88.8098V92.0398C150.265 92.3065 150.321 92.4965 150.435 92.6098C150.548 92.7165 150.745 92.7698 151.025 92.7698H151.695V93.5398H150.875C150.368 93.5398 149.988 93.4231 149.735 93.1898C149.481 92.9565 149.355 92.5731 149.355 92.0398V88.8098H148.645V88.0598H149.355V86.6798H150.265V88.0598H151.695V88.8098H150.265ZM157.797 90.5898C157.797 90.7631 157.787 90.9465 157.767 91.1398H153.387C153.421 91.6798 153.604 92.1031 153.937 92.4098C154.277 92.7098 154.687 92.8598 155.167 92.8598C155.561 92.8598 155.887 92.7698 156.147 92.5898C156.414 92.4031 156.601 92.1565 156.707 91.8498H157.687C157.541 92.3765 157.247 92.8065 156.807 93.1398C156.367 93.4665 155.821 93.6298 155.167 93.6298C154.647 93.6298 154.181 93.5131 153.767 93.2798C153.361 93.0465 153.041 92.7165 152.807 92.2898C152.574 91.8565 152.457 91.3565 152.457 90.7898C152.457 90.2231 152.571 89.7265 152.797 89.2998C153.024 88.8731 153.341 88.5465 153.747 88.3198C154.161 88.0865 154.634 87.9698 155.167 87.9698C155.687 87.9698 156.147 88.0831 156.547 88.3098C156.947 88.5365 157.254 88.8498 157.467 89.2498C157.687 89.6431 157.797 90.0898 157.797 90.5898ZM156.857 90.3998C156.857 90.0531 156.781 89.7565 156.627 89.5098C156.474 89.2565 156.264 89.0665 155.997 88.9398C155.737 88.8065 155.447 88.7398 155.127 88.7398C154.667 88.7398 154.274 88.8865 153.947 89.1798C153.627 89.4731 153.444 89.8798 153.397 90.3998H156.857ZM167.035 86.5698V93.5398H166.125V90.3798H162.575V93.5398H161.665V86.5698H162.575V89.6298H166.125V86.5698H167.035ZM174.178 94.8598L172.788 93.4698C172.448 93.5631 172.102 93.6098 171.748 93.6098C171.102 93.6098 170.512 93.4598 169.978 93.1598C169.445 92.8531 169.022 92.4298 168.708 91.8898C168.402 91.3431 168.248 90.7298 168.248 90.0498C168.248 89.3698 168.402 88.7598 168.708 88.2198C169.022 87.6731 169.445 87.2498 169.978 86.9498C170.512 86.6431 171.102 86.4898 171.748 86.4898C172.402 86.4898 172.995 86.6431 173.528 86.9498C174.062 87.2498 174.482 87.6698 174.788 88.2098C175.095 88.7498 175.248 89.3631 175.248 90.0498C175.248 90.7165 175.102 91.3165 174.808 91.8498C174.515 92.3831 174.112 92.8031 173.598 93.1098L175.358 94.8598H174.178ZM169.178 90.0498C169.178 90.6031 169.288 91.0898 169.508 91.5098C169.735 91.9298 170.042 92.2531 170.428 92.4798C170.822 92.7065 171.262 92.8198 171.748 92.8198C172.235 92.8198 172.672 92.7065 173.058 92.4798C173.452 92.2531 173.758 91.9298 173.978 91.5098C174.205 91.0898 174.318 90.6031 174.318 90.0498C174.318 89.4898 174.205 89.0031 173.978 88.5898C173.758 88.1698 173.455 87.8465 173.068 87.6198C172.682 87.3931 172.242 87.2798 171.748 87.2798C171.255 87.2798 170.815 87.3931 170.428 87.6198C170.042 87.8465 169.735 88.1698 169.508 88.5898C169.288 89.0031 169.178 89.4898 169.178 90.0498ZM176.759 93.5998C176.586 93.5998 176.439 93.5398 176.319 93.4198C176.199 93.2998 176.139 93.1531 176.139 92.9798C176.139 92.8065 176.199 92.6598 176.319 92.5398C176.439 92.4198 176.586 92.3598 176.759 92.3598C176.926 92.3598 177.066 92.4198 177.179 92.5398C177.299 92.6598 177.359 92.8065 177.359 92.9798C177.359 93.1531 177.299 93.2998 177.179 93.4198C177.066 93.5398 176.926 93.5998 176.759 93.5998ZM176.759 89.3198C176.586 89.3198 176.439 89.2598 176.319 89.1398C176.199 89.0198 176.139 88.8731 176.139 88.6998C176.139 88.5265 176.199 88.3798 176.319 88.2598C176.439 88.1398 176.586 88.0798 176.759 88.0798C176.926 88.0798 177.066 88.1398 177.179 88.2598C177.299 88.3798 177.359 88.5265 177.359 88.6998C177.359 88.8731 177.299 89.0198 177.179 89.1398C177.066 89.2598 176.926 89.3198 176.759 89.3198ZM186.634 86.5698V93.5398H185.724V90.3798H182.174V93.5398H181.264V86.5698H182.174V89.6298H185.724V86.5698H186.634ZM190.578 93.6298C190.065 93.6298 189.598 93.5131 189.178 93.2798C188.765 93.0465 188.438 92.7165 188.198 92.2898C187.965 91.8565 187.848 91.3565 187.848 90.7898C187.848 90.2298 187.968 89.7365 188.208 89.3098C188.455 88.8765 188.788 88.5465 189.208 88.3198C189.628 88.0865 190.098 87.9698 190.618 87.9698C191.138 87.9698 191.608 88.0865 192.028 88.3198C192.448 88.5465 192.778 88.8731 193.018 89.2998C193.265 89.7265 193.388 90.2231 193.388 90.7898C193.388 91.3565 193.261 91.8565 193.008 92.2898C192.761 92.7165 192.425 93.0465 191.998 93.2798C191.571 93.5131 191.098 93.6298 190.578 93.6298ZM190.578 92.8298C190.905 92.8298 191.211 92.7531 191.498 92.5998C191.785 92.4465 192.015 92.2165 192.188 91.9098C192.368 91.6031 192.458 91.2298 192.458 90.7898C192.458 90.3498 192.371 89.9765 192.198 89.6698C192.025 89.3631 191.798 89.1365 191.518 88.9898C191.238 88.8365 190.935 88.7598 190.608 88.7598C190.275 88.7598 189.968 88.8365 189.688 88.9898C189.415 89.1365 189.195 89.3631 189.028 89.6698C188.861 89.9765 188.778 90.3498 188.778 90.7898C188.778 91.2365 188.858 91.6131 189.018 91.9198C189.185 92.2265 189.405 92.4565 189.678 92.6098C189.951 92.7565 190.251 92.8298 190.578 92.8298ZM199.444 88.0598V93.5398H198.534V92.7298C198.361 93.0098 198.118 93.2298 197.804 93.3898C197.498 93.5431 197.158 93.6198 196.784 93.6198C196.358 93.6198 195.974 93.5331 195.634 93.3598C195.294 93.1798 195.024 92.9131 194.824 92.5598C194.631 92.2065 194.534 91.7765 194.534 91.2698V88.0598H195.434V91.1498C195.434 91.6898 195.571 92.1065 195.844 92.3998C196.118 92.6865 196.491 92.8298 196.964 92.8298C197.451 92.8298 197.834 92.6798 198.114 92.3798C198.394 92.0798 198.534 91.6431 198.534 91.0698V88.0598H199.444ZM202.921 93.6298C202.501 93.6298 202.124 93.5598 201.791 93.4198C201.458 93.2731 201.194 93.0731 201.001 92.8198C200.808 92.5598 200.701 92.2631 200.681 91.9298H201.621C201.648 92.2031 201.774 92.4265 202.001 92.5998C202.234 92.7731 202.538 92.8598 202.911 92.8598C203.258 92.8598 203.531 92.7831 203.731 92.6298C203.931 92.4765 204.031 92.2831 204.031 92.0498C204.031 91.8098 203.924 91.6331 203.711 91.5198C203.498 91.3998 203.168 91.2831 202.721 91.1698C202.314 91.0631 201.981 90.9565 201.721 90.8498C201.468 90.7365 201.248 90.5731 201.061 90.3598C200.881 90.1398 200.791 89.8531 200.791 89.4998C200.791 89.2198 200.874 88.9631 201.041 88.7298C201.208 88.4965 201.444 88.3131 201.751 88.1798C202.058 88.0398 202.408 87.9698 202.801 87.9698C203.408 87.9698 203.898 88.1231 204.271 88.4298C204.644 88.7365 204.844 89.1565 204.871 89.6898H203.961C203.941 89.4031 203.824 89.1731 203.611 88.9998C203.404 88.8265 203.124 88.7398 202.771 88.7398C202.444 88.7398 202.184 88.8098 201.991 88.9498C201.798 89.0898 201.701 89.2731 201.701 89.4998C201.701 89.6798 201.758 89.8298 201.871 89.9498C201.991 90.0631 202.138 90.1565 202.311 90.2298C202.491 90.2965 202.738 90.3731 203.051 90.4598C203.444 90.5665 203.764 90.6731 204.011 90.7798C204.258 90.8798 204.468 91.0331 204.641 91.2398C204.821 91.4465 204.914 91.7165 204.921 92.0498C204.921 92.3498 204.838 92.6198 204.671 92.8598C204.504 93.0998 204.268 93.2898 203.961 93.4298C203.661 93.5631 203.314 93.6298 202.921 93.6298ZM207.316 88.8098V92.0398C207.316 92.3065 207.372 92.4965 207.486 92.6098C207.599 92.7165 207.796 92.7698 208.076 92.7698H208.746V93.5398H207.926C207.419 93.5398 207.039 93.4231 206.786 93.1898C206.532 92.9565 206.406 92.5731 206.406 92.0398V88.8098H205.696V88.0598H206.406V86.6798H207.316V88.0598H208.746V88.8098H207.316ZM212.238 93.6298C211.725 93.6298 211.258 93.5131 210.838 93.2798C210.425 93.0465 210.098 92.7165 209.858 92.2898C209.625 91.8565 209.508 91.3565 209.508 90.7898C209.508 90.2298 209.628 89.7365 209.868 89.3098C210.115 88.8765 210.448 88.5465 210.868 88.3198C211.288 88.0865 211.758 87.9698 212.278 87.9698C212.798 87.9698 213.268 88.0865 213.688 88.3198C214.108 88.5465 214.438 88.8731 214.678 89.2998C214.925 89.7265 215.048 90.2231 215.048 90.7898C215.048 91.3565 214.921 91.8565 214.668 92.2898C214.421 92.7165 214.085 93.0465 213.658 93.2798C213.231 93.5131 212.758 93.6298 212.238 93.6298ZM212.238 92.8298C212.565 92.8298 212.871 92.7531 213.158 92.5998C213.445 92.4465 213.675 92.2165 213.848 91.9098C214.028 91.6031 214.118 91.2298 214.118 90.7898C214.118 90.3498 214.031 89.9765 213.858 89.6698C213.685 89.3631 213.458 89.1365 213.178 88.9898C212.898 88.8365 212.595 88.7598 212.268 88.7598C211.935 88.7598 211.628 88.8365 211.348 88.9898C211.075 89.1365 210.855 89.3631 210.688 89.6698C210.521 89.9765 210.438 90.3498 210.438 90.7898C210.438 91.2365 210.518 91.6131 210.678 91.9198C210.845 92.2265 211.065 92.4565 211.338 92.6098C211.611 92.7565 211.911 92.8298 212.238 92.8298ZM218.915 87.9598C219.581 87.9598 220.121 88.1631 220.535 88.5698C220.948 88.9698 221.155 89.5498 221.155 90.3098V93.5398H220.255V90.4398C220.255 89.8931 220.118 89.4765 219.845 89.1898C219.571 88.8965 219.198 88.7498 218.725 88.7498C218.245 88.7498 217.861 88.8998 217.575 89.1998C217.295 89.4998 217.155 89.9365 217.155 90.5098V93.5398H216.245V88.0598H217.155V88.8398C217.335 88.5598 217.578 88.3431 217.885 88.1898C218.198 88.0365 218.541 87.9598 218.915 87.9598ZM229.597 86.5698V87.3098H227.697V93.5398H226.787V87.3098H224.877V86.5698H229.597ZM233.567 90.0598L235.707 93.5398H234.677L233.007 90.8198L231.417 93.5398H230.407L232.537 90.0598L230.397 86.5698H231.417L233.097 89.2998L234.697 86.5698H235.717L233.567 90.0598ZM237.868 92.2798L236.748 94.9698H236.138L236.868 92.2798H237.868ZM242.467 86.5698V90.9798C242.467 91.5998 242.617 92.0598 242.917 92.3598C243.223 92.6598 243.647 92.8098 244.187 92.8098C244.72 92.8098 245.137 92.6598 245.437 92.3598C245.743 92.0598 245.897 91.5998 245.897 90.9798V86.5698H246.807V90.9698C246.807 91.5498 246.69 92.0398 246.457 92.4398C246.223 92.8331 245.907 93.1265 245.507 93.3198C245.113 93.5131 244.67 93.6098 244.177 93.6098C243.683 93.6098 243.237 93.5131 242.837 93.3198C242.443 93.1265 242.13 92.8331 241.897 92.4398C241.67 92.0398 241.557 91.5498 241.557 90.9698V86.5698H242.467ZM250.535 93.6098C250.075 93.6098 249.661 93.5298 249.295 93.3698C248.935 93.2031 248.651 92.9765 248.445 92.6898C248.238 92.3965 248.131 92.0598 248.125 91.6798H249.095C249.128 92.0065 249.261 92.2831 249.495 92.5098C249.735 92.7298 250.081 92.8398 250.535 92.8398C250.968 92.8398 251.308 92.7331 251.555 92.5198C251.808 92.2998 251.935 92.0198 251.935 91.6798C251.935 91.4131 251.861 91.1965 251.715 91.0298C251.568 90.8631 251.385 90.7365 251.165 90.6498C250.945 90.5631 250.648 90.4698 250.275 90.3698C249.815 90.2498 249.445 90.1298 249.165 90.0098C248.891 89.8898 248.655 89.7031 248.455 89.4498C248.261 89.1898 248.165 88.8431 248.165 88.4098C248.165 88.0298 248.261 87.6931 248.455 87.3998C248.648 87.1065 248.918 86.8798 249.265 86.7198C249.618 86.5598 250.021 86.4798 250.475 86.4798C251.128 86.4798 251.661 86.6431 252.075 86.9698C252.495 87.2965 252.731 87.7298 252.785 88.2698H251.785C251.751 88.0031 251.611 87.7698 251.365 87.5698C251.118 87.3631 250.791 87.2598 250.385 87.2598C250.005 87.2598 249.695 87.3598 249.455 87.5598C249.215 87.7531 249.095 88.0265 249.095 88.3798C249.095 88.6331 249.165 88.8398 249.305 88.9998C249.451 89.1598 249.628 89.2831 249.835 89.3698C250.048 89.4498 250.345 89.5431 250.725 89.6498C251.185 89.7765 251.555 89.9031 251.835 90.0298C252.115 90.1498 252.355 90.3398 252.555 90.5998C252.755 90.8531 252.855 91.1998 252.855 91.6398C252.855 91.9798 252.765 92.2998 252.585 92.5998C252.405 92.8998 252.138 93.1431 251.785 93.3298C251.431 93.5165 251.015 93.6098 250.535 93.6098ZM258.314 91.9898H255.274L254.714 93.5398H253.754L256.274 86.6098H257.324L259.834 93.5398H258.874L258.314 91.9898ZM258.054 91.2498L256.794 87.7298L255.534 91.2498H258.054Z" fill="white"/>
<path d="M86.8906 137.04H76.8906C73.8906 137.04 71.8906 135.54 71.8906 132.04V125.04C71.8906 121.54 73.8906 120.04 76.8906 120.04H86.8906C89.8906 120.04 91.8906 121.54 91.8906 125.04V132.04C91.8906 135.54 89.8906 137.04 86.8906 137.04Z" stroke="white" stroke-width="1.5" stroke-miterlimit="10" stroke-linecap="round" stroke-linejoin="round"/>
<path d="M86.8906 125.54L83.7606 128.04C82.7306 128.86 81.0406 128.86 80.0106 128.04L76.8906 125.54" stroke="white" stroke-width="1.5" stroke-miterlimit="10" stroke-linecap="round" stroke-linejoin="round"/>
<path d="M108.131 126.17C107.957 126.17 107.811 126.11 107.691 125.99C107.571 125.87 107.511 125.723 107.511 125.55C107.511 125.376 107.571 125.23 107.691 125.11C107.811 124.99 107.957 124.93 108.131 124.93C108.297 124.93 108.437 124.99 108.551 125.11C108.671 125.23 108.731 125.376 108.731 125.55C108.731 125.723 108.671 125.87 108.551 125.99C108.437 126.11 108.297 126.17 108.131 126.17ZM108.571 127.06V132.54H107.661V127.06H108.571ZM112.792 126.96C113.458 126.96 113.998 127.163 114.412 127.57C114.825 127.97 115.032 128.55 115.032 129.31V132.54H114.132V129.44C114.132 128.893 113.995 128.476 113.722 128.19C113.448 127.896 113.075 127.75 112.602 127.75C112.122 127.75 111.738 127.9 111.452 128.2C111.172 128.5 111.032 128.936 111.032 129.51V132.54H110.122V127.06H111.032V127.84C111.212 127.56 111.455 127.343 111.762 127.19C112.075 127.036 112.418 126.96 112.792 126.96ZM118.748 127.81H117.598V132.54H116.688V127.81H115.978V127.06H116.688V126.67C116.688 126.056 116.845 125.61 117.158 125.33C117.478 125.043 117.988 124.9 118.688 124.9V125.66C118.288 125.66 118.005 125.74 117.838 125.9C117.678 126.053 117.598 126.31 117.598 126.67V127.06H118.748V127.81ZM122.199 132.63C121.686 132.63 121.219 132.513 120.799 132.28C120.386 132.046 120.059 131.716 119.819 131.29C119.586 130.856 119.469 130.356 119.469 129.79C119.469 129.23 119.589 128.736 119.829 128.31C120.076 127.876 120.409 127.546 120.829 127.32C121.249 127.086 121.719 126.97 122.239 126.97C122.759 126.97 123.229 127.086 123.649 127.32C124.069 127.546 124.399 127.873 124.639 128.3C124.886 128.726 125.009 129.223 125.009 129.79C125.009 130.356 124.882 130.856 124.629 131.29C124.382 131.716 124.046 132.046 123.619 132.28C123.192 132.513 122.719 132.63 122.199 132.63ZM122.199 131.83C122.526 131.83 122.832 131.753 123.119 131.6C123.406 131.446 123.636 131.216 123.809 130.91C123.989 130.603 124.079 130.23 124.079 129.79C124.079 129.35 123.992 128.976 123.819 128.67C123.646 128.363 123.419 128.136 123.139 127.99C122.859 127.836 122.556 127.76 122.229 127.76C121.896 127.76 121.589 127.836 121.309 127.99C121.036 128.136 120.816 128.363 120.649 128.67C120.482 128.976 120.399 129.35 120.399 129.79C120.399 130.236 120.479 130.613 120.639 130.92C120.806 131.226 121.026 131.456 121.299 131.61C121.572 131.756 121.872 131.83 122.199 131.83ZM131.206 126.13C131.946 126.13 132.589 126.27 133.136 126.55C133.682 126.83 134.102 127.223 134.396 127.73C134.689 128.23 134.836 128.81 134.836 129.47C134.836 129.996 134.749 130.503 134.576 130.99C134.402 131.47 134.149 131.86 133.816 132.16C133.489 132.46 133.106 132.61 132.666 132.61C132.332 132.61 132.076 132.526 131.896 132.36C131.716 132.193 131.612 131.966 131.586 131.68C131.379 131.966 131.116 132.193 130.796 132.36C130.482 132.526 130.149 132.61 129.796 132.61C129.289 132.61 128.889 132.456 128.596 132.15C128.309 131.836 128.166 131.416 128.166 130.89C128.166 130.39 128.269 129.923 128.476 129.49C128.689 129.056 128.982 128.71 129.356 128.45C129.729 128.183 130.152 128.05 130.626 128.05C131.259 128.05 131.686 128.29 131.906 128.77L132.016 128.15H132.806L132.306 131.04C132.286 131.166 132.276 131.283 132.276 131.39C132.276 131.79 132.452 131.99 132.806 131.99C133.072 131.99 133.302 131.863 133.496 131.61C133.696 131.356 133.846 131.04 133.946 130.66C134.046 130.273 134.096 129.893 134.096 129.52C134.096 128.646 133.832 127.97 133.306 127.49C132.786 127.01 132.049 126.77 131.096 126.77C130.302 126.77 129.586 126.963 128.946 127.35C128.312 127.73 127.816 128.253 127.456 128.92C127.096 129.586 126.916 130.323 126.916 131.13C126.909 132.01 127.172 132.686 127.706 133.16C128.239 133.64 128.979 133.88 129.926 133.88C130.552 133.88 131.106 133.766 131.586 133.54L131.706 134.16C131.112 134.406 130.459 134.53 129.746 134.53C129.032 134.53 128.402 134.393 127.856 134.12C127.316 133.853 126.896 133.466 126.596 132.96C126.302 132.46 126.156 131.876 126.156 131.21C126.156 130.27 126.372 129.413 126.806 128.64C127.239 127.86 127.839 127.246 128.606 126.8C129.379 126.353 130.246 126.13 131.206 126.13ZM130.066 131.9C130.366 131.9 130.642 131.813 130.896 131.64C131.149 131.46 131.349 131.22 131.496 130.92C131.642 130.613 131.716 130.28 131.716 129.92C131.716 129.573 131.619 129.293 131.426 129.08C131.239 128.86 130.972 128.75 130.626 128.75C130.306 128.75 130.022 128.846 129.776 129.04C129.536 129.226 129.349 129.476 129.216 129.79C129.082 130.096 129.016 130.416 129.016 130.75C129.016 131.103 129.106 131.383 129.286 131.59C129.466 131.796 129.726 131.9 130.066 131.9ZM141.333 129.59C141.333 129.763 141.323 129.946 141.303 130.14H136.923C136.956 130.68 137.139 131.103 137.473 131.41C137.813 131.71 138.223 131.86 138.703 131.86C139.096 131.86 139.423 131.77 139.683 131.59C139.949 131.403 140.136 131.156 140.243 130.85H141.223C141.076 131.376 140.783 131.806 140.343 132.14C139.903 132.466 139.356 132.63 138.703 132.63C138.183 132.63 137.716 132.513 137.303 132.28C136.896 132.046 136.576 131.716 136.343 131.29C136.109 130.856 135.993 130.356 135.993 129.79C135.993 129.223 136.106 128.726 136.333 128.3C136.559 127.873 136.876 127.546 137.283 127.32C137.696 127.086 138.169 126.97 138.703 126.97C139.223 126.97 139.683 127.083 140.083 127.31C140.483 127.536 140.789 127.85 141.003 128.25C141.223 128.643 141.333 129.09 141.333 129.59ZM140.393 129.4C140.393 129.053 140.316 128.756 140.163 128.51C140.009 128.256 139.799 128.066 139.533 127.94C139.273 127.806 138.983 127.74 138.663 127.74C138.203 127.74 137.809 127.886 137.483 128.18C137.163 128.473 136.979 128.88 136.933 129.4H140.393ZM144.744 132.61C144.284 132.61 143.87 132.53 143.504 132.37C143.144 132.203 142.86 131.976 142.654 131.69C142.447 131.396 142.34 131.06 142.334 130.68H143.304C143.337 131.006 143.47 131.283 143.704 131.51C143.944 131.73 144.29 131.84 144.744 131.84C145.177 131.84 145.517 131.733 145.764 131.52C146.017 131.3 146.144 131.02 146.144 130.68C146.144 130.413 146.07 130.196 145.924 130.03C145.777 129.863 145.594 129.736 145.374 129.65C145.154 129.563 144.857 129.47 144.484 129.37C144.024 129.25 143.654 129.13 143.374 129.01C143.1 128.89 142.864 128.703 142.664 128.45C142.47 128.19 142.374 127.843 142.374 127.41C142.374 127.03 142.47 126.693 142.664 126.4C142.857 126.106 143.127 125.88 143.474 125.72C143.827 125.56 144.23 125.48 144.684 125.48C145.337 125.48 145.87 125.643 146.284 125.97C146.704 126.296 146.94 126.73 146.994 127.27H145.994C145.96 127.003 145.82 126.77 145.574 126.57C145.327 126.363 145 126.26 144.594 126.26C144.214 126.26 143.904 126.36 143.664 126.56C143.424 126.753 143.304 127.026 143.304 127.38C143.304 127.633 143.374 127.84 143.514 128C143.66 128.16 143.837 128.283 144.044 128.37C144.257 128.45 144.554 128.543 144.934 128.65C145.394 128.776 145.764 128.903 146.044 129.03C146.324 129.15 146.564 129.34 146.764 129.6C146.964 129.853 147.064 130.2 147.064 130.64C147.064 130.98 146.974 131.3 146.794 131.6C146.614 131.9 146.347 132.143 145.994 132.33C145.64 132.516 145.224 132.61 144.744 132.61ZM150.793 132.63C150.279 132.63 149.813 132.513 149.393 132.28C148.979 132.046 148.653 131.716 148.413 131.29C148.179 130.856 148.063 130.356 148.063 129.79C148.063 129.23 148.183 128.736 148.423 128.31C148.669 127.876 149.003 127.546 149.423 127.32C149.843 127.086 150.313 126.97 150.833 126.97C151.353 126.97 151.823 127.086 152.243 127.32C152.663 127.546 152.993 127.873 153.233 128.3C153.479 128.726 153.603 129.223 153.603 129.79C153.603 130.356 153.476 130.856 153.223 131.29C152.976 131.716 152.639 132.046 152.213 132.28C151.786 132.513 151.313 132.63 150.793 132.63ZM150.793 131.83C151.119 131.83 151.426 131.753 151.713 131.6C151.999 131.446 152.229 131.216 152.403 130.91C152.583 130.603 152.673 130.23 152.673 129.79C152.673 129.35 152.586 128.976 152.413 128.67C152.239 128.363 152.013 128.136 151.733 127.99C151.453 127.836 151.149 127.76 150.823 127.76C150.489 127.76 150.183 127.836 149.903 127.99C149.629 128.136 149.409 128.363 149.243 128.67C149.076 128.976 148.993 129.35 148.993 129.79C148.993 130.236 149.073 130.613 149.233 130.92C149.399 131.226 149.619 131.456 149.893 131.61C150.166 131.756 150.466 131.83 150.793 131.83ZM154.459 129.79C154.459 129.223 154.573 128.73 154.799 128.31C155.026 127.883 155.339 127.553 155.739 127.32C156.146 127.086 156.609 126.97 157.129 126.97C157.803 126.97 158.356 127.133 158.789 127.46C159.229 127.786 159.519 128.24 159.659 128.82H158.679C158.586 128.486 158.403 128.223 158.129 128.03C157.863 127.836 157.529 127.74 157.129 127.74C156.609 127.74 156.189 127.92 155.869 128.28C155.549 128.633 155.389 129.136 155.389 129.79C155.389 130.45 155.549 130.96 155.869 131.32C156.189 131.68 156.609 131.86 157.129 131.86C157.529 131.86 157.863 131.766 158.129 131.58C158.396 131.393 158.579 131.126 158.679 130.78H159.659C159.513 131.34 159.219 131.79 158.779 132.13C158.339 132.463 157.789 132.63 157.129 132.63C156.609 132.63 156.146 132.513 155.739 132.28C155.339 132.046 155.026 131.716 154.799 131.29C154.573 130.863 154.459 130.363 154.459 129.79ZM161.344 126.17C161.17 126.17 161.024 126.11 160.904 125.99C160.784 125.87 160.724 125.723 160.724 125.55C160.724 125.376 160.784 125.23 160.904 125.11C161.024 124.99 161.17 124.93 161.344 124.93C161.51 124.93 161.65 124.99 161.764 125.11C161.884 125.23 161.944 125.376 161.944 125.55C161.944 125.723 161.884 125.87 161.764 125.99C161.65 126.11 161.51 126.17 161.344 126.17ZM161.784 127.06V132.54H160.874V127.06H161.784ZM162.994 129.78C162.994 129.22 163.108 128.73 163.334 128.31C163.561 127.883 163.871 127.553 164.264 127.32C164.664 127.086 165.108 126.97 165.594 126.97C166.074 126.97 166.491 127.073 166.844 127.28C167.198 127.486 167.461 127.746 167.634 128.06V127.06H168.554V132.54H167.634V131.52C167.454 131.84 167.184 132.106 166.824 132.32C166.471 132.526 166.058 132.63 165.584 132.63C165.098 132.63 164.658 132.51 164.264 132.27C163.871 132.03 163.561 131.693 163.334 131.26C163.108 130.826 162.994 130.333 162.994 129.78ZM167.634 129.79C167.634 129.376 167.551 129.016 167.384 128.71C167.218 128.403 166.991 128.17 166.704 128.01C166.424 127.843 166.114 127.76 165.774 127.76C165.434 127.76 165.124 127.84 164.844 128C164.564 128.16 164.341 128.393 164.174 128.7C164.008 129.006 163.924 129.366 163.924 129.78C163.924 130.2 164.008 130.566 164.174 130.88C164.341 131.186 164.564 131.423 164.844 131.59C165.124 131.75 165.434 131.83 165.774 131.83C166.114 131.83 166.424 131.75 166.704 131.59C166.991 131.423 167.218 131.186 167.384 130.88C167.551 130.566 167.634 130.203 167.634 129.79ZM171.002 125.14V132.54H170.092V125.14H171.002ZM179.623 125.62V132.54H178.713V127.38L176.413 132.54H175.773L173.463 127.37V132.54H172.553V125.62H173.533L176.093 131.34L178.653 125.62H179.623ZM181.636 126.17C181.463 126.17 181.316 126.11 181.196 125.99C181.076 125.87 181.016 125.723 181.016 125.55C181.016 125.376 181.076 125.23 181.196 125.11C181.316 124.99 181.463 124.93 181.636 124.93C181.803 124.93 181.943 124.99 182.056 125.11C182.176 125.23 182.236 125.376 182.236 125.55C182.236 125.723 182.176 125.87 182.056 125.99C181.943 126.11 181.803 126.17 181.636 126.17ZM182.076 127.06V132.54H181.166V127.06H182.076ZM186.297 126.96C186.964 126.96 187.504 127.163 187.917 127.57C188.331 127.97 188.537 128.55 188.537 129.31V132.54H187.637V129.44C187.637 128.893 187.501 128.476 187.227 128.19C186.954 127.896 186.581 127.75 186.107 127.75C185.627 127.75 185.244 127.9 184.957 128.2C184.677 128.5 184.537 128.936 184.537 129.51V132.54H183.627V127.06H184.537V127.84C184.717 127.56 184.961 127.343 185.267 127.19C185.581 127.036 185.924 126.96 186.297 126.96ZM191.134 127.81V131.04C191.134 131.306 191.191 131.496 191.304 131.61C191.417 131.716 191.614 131.77 191.894 131.77H192.564V132.54H191.744C191.237 132.54 190.857 132.423 190.604 132.19C190.351 131.956 190.224 131.573 190.224 131.04V127.81H189.514V127.06H190.224V125.68H191.134V127.06H192.564V127.81H191.134ZM193.956 132.6C193.783 132.6 193.636 132.54 193.516 132.42C193.396 132.3 193.336 132.153 193.336 131.98C193.336 131.806 193.396 131.66 193.516 131.54C193.636 131.42 193.783 131.36 193.956 131.36C194.123 131.36 194.263 131.42 194.376 131.54C194.496 131.66 194.556 131.806 194.556 131.98C194.556 132.153 194.496 132.3 194.376 132.42C194.263 132.54 194.123 132.6 193.956 132.6ZM195.426 129.79C195.426 129.223 195.539 128.73 195.766 128.31C195.993 127.883 196.306 127.553 196.706 127.32C197.113 127.086 197.576 126.97 198.096 126.97C198.769 126.97 199.323 127.133 199.756 127.46C200.196 127.786 200.486 128.24 200.626 128.82H199.646C199.553 128.486 199.369 128.223 199.096 128.03C198.829 127.836 198.496 127.74 198.096 127.74C197.576 127.74 197.156 127.92 196.836 128.28C196.516 128.633 196.356 129.136 196.356 129.79C196.356 130.45 196.516 130.96 196.836 131.32C197.156 131.68 197.576 131.86 198.096 131.86C198.496 131.86 198.829 131.766 199.096 131.58C199.363 131.393 199.546 131.126 199.646 130.78H200.626C200.479 131.34 200.186 131.79 199.746 132.13C199.306 132.463 198.756 132.63 198.096 132.63C197.576 132.63 197.113 132.513 196.706 132.28C196.306 132.046 195.993 131.716 195.766 131.29C195.539 130.863 195.426 130.363 195.426 129.79ZM204.23 132.63C203.717 132.63 203.25 132.513 202.83 132.28C202.417 132.046 202.09 131.716 201.85 131.29C201.617 130.856 201.5 130.356 201.5 129.79C201.5 129.23 201.62 128.736 201.86 128.31C202.107 127.876 202.44 127.546 202.86 127.32C203.28 127.086 203.75 126.97 204.27 126.97C204.79 126.97 205.26 127.086 205.68 127.32C206.1 127.546 206.43 127.873 206.67 128.3C206.917 128.726 207.04 129.223 207.04 129.79C207.04 130.356 206.914 130.856 206.66 131.29C206.414 131.716 206.077 132.046 205.65 132.28C205.224 132.513 204.75 132.63 204.23 132.63ZM204.23 131.83C204.557 131.83 204.864 131.753 205.15 131.6C205.437 131.446 205.667 131.216 205.84 130.91C206.02 130.603 206.11 130.23 206.11 129.79C206.11 129.35 206.024 128.976 205.85 128.67C205.677 128.363 205.45 128.136 205.17 127.99C204.89 127.836 204.587 127.76 204.26 127.76C203.927 127.76 203.62 127.836 203.34 127.99C203.067 128.136 202.847 128.363 202.68 128.67C202.514 128.976 202.43 129.35 202.43 129.79C202.43 130.236 202.51 130.613 202.67 130.92C202.837 131.226 203.057 131.456 203.33 131.61C203.604 131.756 203.904 131.83 204.23 131.83ZM214.827 126.96C215.253 126.96 215.633 127.05 215.967 127.23C216.3 127.403 216.563 127.666 216.757 128.02C216.95 128.373 217.047 128.803 217.047 129.31V132.54H216.147V129.44C216.147 128.893 216.01 128.476 215.737 128.19C215.47 127.896 215.107 127.75 214.647 127.75C214.173 127.75 213.797 127.903 213.517 128.21C213.237 128.51 213.097 128.946 213.097 129.52V132.54H212.197V129.44C212.197 128.893 212.06 128.476 211.787 128.19C211.52 127.896 211.157 127.75 210.697 127.75C210.223 127.75 209.847 127.903 209.567 128.21C209.287 128.51 209.147 128.946 209.147 129.52V132.54H208.237V127.06H209.147V127.85C209.327 127.563 209.567 127.343 209.867 127.19C210.173 127.036 210.51 126.96 210.877 126.96C211.337 126.96 211.743 127.063 212.097 127.27C212.45 127.476 212.713 127.78 212.887 128.18C213.04 127.793 213.293 127.493 213.647 127.28C214 127.066 214.393 126.96 214.827 126.96Z" fill="white"/>
<path d="M89.8606 175.87C89.8606 176.23 89.7806 176.6 89.6106 176.96C89.4406 177.32 89.2206 177.66 88.9306 177.98C88.4406 178.52 87.9006 178.91 87.2906 179.16C86.6906 179.41 86.0406 179.54 85.3406 179.54C84.3206 179.54 83.2306 179.3 82.0806 178.81C80.9306 178.32 79.7806 177.66 78.6406 176.83C77.4906 175.99 76.4006 175.06 75.3606 174.03C74.3306 172.99 73.4006 171.9 72.5706 170.76C71.7506 169.62 71.0906 168.48 70.6106 167.35C70.1306 166.21 69.8906 165.12 69.8906 164.08C69.8906 163.4 70.0106 162.75 70.2506 162.15C70.4906 161.54 70.8706 160.98 71.4006 160.48C72.0406 159.85 72.7406 159.54 73.4806 159.54C73.7606 159.54 74.0406 159.6 74.2906 159.72C74.5506 159.84 74.7806 160.02 74.9606 160.28L77.2806 163.55C77.4606 163.8 77.5906 164.03 77.6806 164.25C77.7706 164.46 77.8206 164.67 77.8206 164.86C77.8206 165.1 77.7506 165.34 77.6106 165.57C77.4806 165.8 77.2906 166.04 77.0506 166.28L76.2906 167.07C76.1806 167.18 76.1306 167.31 76.1306 167.47C76.1306 167.55 76.1406 167.62 76.1606 167.7C76.1906 167.78 76.2206 167.84 76.2406 167.9C76.4206 168.23 76.7306 168.66 77.1706 169.18C77.6206 169.7 78.1006 170.23 78.6206 170.76C79.1606 171.29 79.6806 171.78 80.2106 172.23C80.7306 172.67 81.1606 172.97 81.5006 173.15C81.5506 173.17 81.6106 173.2 81.6806 173.23C81.7606 173.26 81.8406 173.27 81.9306 173.27C82.1006 173.27 82.2306 173.21 82.3406 173.1L83.1006 172.35C83.3506 172.1 83.5906 171.91 83.8206 171.79C84.0506 171.65 84.2806 171.58 84.5306 171.58C84.7206 171.58 84.9206 171.62 85.1406 171.71C85.3606 171.8 85.5906 171.93 85.8406 172.1L89.1506 174.45C89.4106 174.63 89.5906 174.84 89.7006 175.09C89.8006 175.34 89.8606 175.59 89.8606 175.87Z" stroke="white" stroke-width="1.5" stroke-miterlimit="10"/>
<path d="M108.831 163.27H106.701V165.43H105.851V163.27H103.731V162.5H105.851V160.33H106.701V162.5H108.831V163.27ZM110.068 160.14V159.31H111.948V166.54H111.028V160.14H110.068ZM118.667 168.4C118.027 167.773 117.527 166.976 117.167 166.01C116.813 165.043 116.637 164 116.637 162.88C116.637 161.733 116.823 160.663 117.197 159.67C117.577 158.67 118.117 157.846 118.817 157.2H119.767V157.29C119.02 157.99 118.457 158.833 118.077 159.82C117.703 160.8 117.517 161.82 117.517 162.88C117.517 163.913 117.693 164.9 118.047 165.84C118.407 166.78 118.93 167.603 119.617 168.31V168.4H118.667ZM122.038 162.78C121.664 162.633 121.378 162.42 121.178 162.14C120.978 161.86 120.878 161.52 120.878 161.12C120.878 160.76 120.968 160.436 121.148 160.15C121.328 159.856 121.594 159.626 121.948 159.46C122.308 159.286 122.741 159.2 123.248 159.2C123.754 159.2 124.184 159.286 124.538 159.46C124.898 159.626 125.168 159.856 125.348 160.15C125.534 160.436 125.628 160.76 125.628 161.12C125.628 161.506 125.524 161.846 125.318 162.14C125.111 162.426 124.828 162.64 124.468 162.78C124.881 162.906 125.208 163.13 125.448 163.45C125.694 163.763 125.818 164.143 125.818 164.59C125.818 165.023 125.711 165.403 125.498 165.73C125.284 166.05 124.981 166.3 124.588 166.48C124.201 166.653 123.754 166.74 123.248 166.74C122.741 166.74 122.294 166.653 121.908 166.48C121.528 166.3 121.231 166.05 121.018 165.73C120.804 165.403 120.698 165.023 120.698 164.59C120.698 164.143 120.818 163.76 121.058 163.44C121.298 163.12 121.624 162.9 122.038 162.78ZM124.748 161.23C124.748 160.823 124.614 160.51 124.348 160.29C124.081 160.07 123.714 159.96 123.248 159.96C122.788 159.96 122.424 160.07 122.158 160.29C121.891 160.51 121.758 160.826 121.758 161.24C121.758 161.613 121.894 161.913 122.168 162.14C122.448 162.366 122.808 162.48 123.248 162.48C123.694 162.48 124.054 162.366 124.328 162.14C124.608 161.906 124.748 161.603 124.748 161.23ZM123.248 163.18C122.754 163.18 122.351 163.296 122.038 163.53C121.724 163.756 121.568 164.1 121.568 164.56C121.568 164.986 121.718 165.33 122.018 165.59C122.324 165.85 122.734 165.98 123.248 165.98C123.761 165.98 124.168 165.85 124.468 165.59C124.768 165.33 124.918 164.986 124.918 164.56C124.918 164.113 124.764 163.773 124.458 163.54C124.151 163.3 123.748 163.18 123.248 163.18ZM127.026 162.85C127.026 161.703 127.213 160.81 127.586 160.17C127.96 159.523 128.613 159.2 129.546 159.2C130.473 159.2 131.123 159.523 131.496 160.17C131.87 160.81 132.056 161.703 132.056 162.85C132.056 164.016 131.87 164.923 131.496 165.57C131.123 166.216 130.473 166.54 129.546 166.54C128.613 166.54 127.96 166.216 127.586 165.57C127.213 164.923 127.026 164.016 127.026 162.85ZM131.156 162.85C131.156 162.27 131.116 161.78 131.036 161.38C130.963 160.973 130.806 160.646 130.566 160.4C130.333 160.153 129.993 160.03 129.546 160.03C129.093 160.03 128.746 160.153 128.506 160.4C128.273 160.646 128.116 160.973 128.036 161.38C127.963 161.78 127.926 162.27 127.926 162.85C127.926 163.45 127.963 163.953 128.036 164.36C128.116 164.766 128.273 165.093 128.506 165.34C128.746 165.586 129.093 165.71 129.546 165.71C129.993 165.71 130.333 165.586 130.566 165.34C130.806 165.093 130.963 164.766 131.036 164.36C131.116 163.953 131.156 163.45 131.156 162.85ZM133.306 162.85C133.306 161.703 133.492 160.81 133.866 160.17C134.239 159.523 134.892 159.2 135.826 159.2C136.752 159.2 137.402 159.523 137.776 160.17C138.149 160.81 138.336 161.703 138.336 162.85C138.336 164.016 138.149 164.923 137.776 165.57C137.402 166.216 136.752 166.54 135.826 166.54C134.892 166.54 134.239 166.216 133.866 165.57C133.492 164.923 133.306 164.016 133.306 162.85ZM137.436 162.85C137.436 162.27 137.396 161.78 137.316 161.38C137.242 160.973 137.086 160.646 136.846 160.4C136.612 160.153 136.272 160.03 135.826 160.03C135.372 160.03 135.026 160.153 134.786 160.4C134.552 160.646 134.396 160.973 134.316 161.38C134.242 161.78 134.206 162.27 134.206 162.85C134.206 163.45 134.242 163.953 134.316 164.36C134.396 164.766 134.552 165.093 134.786 165.34C135.026 165.586 135.372 165.71 135.826 165.71C136.272 165.71 136.612 165.586 136.846 165.34C137.086 165.093 137.242 164.766 137.316 164.36C137.396 163.953 137.436 163.45 137.436 162.85ZM139.445 168.4V168.31C140.132 167.603 140.652 166.78 141.005 165.84C141.365 164.9 141.545 163.913 141.545 162.88C141.545 161.82 141.355 160.8 140.975 159.82C140.602 158.833 140.042 157.99 139.295 157.29V157.2H140.245C140.945 157.846 141.482 158.67 141.855 159.67C142.235 160.663 142.425 161.733 142.425 162.88C142.425 164 142.245 165.043 141.885 166.01C141.532 166.976 141.035 167.773 140.395 168.4H139.445ZM150.822 161.03C150.675 160.29 150.219 159.92 149.452 159.92C148.859 159.92 148.415 160.15 148.122 160.61C147.829 161.063 147.685 161.813 147.692 162.86C147.845 162.513 148.099 162.243 148.452 162.05C148.812 161.85 149.212 161.75 149.652 161.75C150.339 161.75 150.885 161.963 151.292 162.39C151.705 162.816 151.912 163.406 151.912 164.16C151.912 164.613 151.822 165.02 151.642 165.38C151.469 165.74 151.202 166.026 150.842 166.24C150.489 166.453 150.059 166.56 149.552 166.56C148.865 166.56 148.329 166.406 147.942 166.1C147.555 165.793 147.285 165.37 147.132 164.83C146.979 164.29 146.902 163.623 146.902 162.83C146.902 160.383 147.755 159.16 149.462 159.16C150.115 159.16 150.629 159.336 151.002 159.69C151.375 160.043 151.595 160.49 151.662 161.03H150.822ZM149.462 162.52C149.175 162.52 148.905 162.58 148.652 162.7C148.399 162.813 148.192 162.99 148.032 163.23C147.879 163.463 147.802 163.75 147.802 164.09C147.802 164.596 147.949 165.01 148.242 165.33C148.535 165.643 148.955 165.8 149.502 165.8C149.969 165.8 150.339 165.656 150.612 165.37C150.892 165.076 151.032 164.683 151.032 164.19C151.032 163.67 150.899 163.263 150.632 162.97C150.365 162.67 149.975 162.52 149.462 162.52ZM153.14 162.85C153.14 161.703 153.326 160.81 153.7 160.17C154.073 159.523 154.726 159.2 155.66 159.2C156.586 159.2 157.236 159.523 157.61 160.17C157.983 160.81 158.17 161.703 158.17 162.85C158.17 164.016 157.983 164.923 157.61 165.57C157.236 166.216 156.586 166.54 155.66 166.54C154.726 166.54 154.073 166.216 153.7 165.57C153.326 164.923 153.14 164.016 153.14 162.85ZM157.27 162.85C157.27 162.27 157.23 161.78 157.15 161.38C157.076 160.973 156.92 160.646 156.68 160.4C156.446 160.153 156.106 160.03 155.66 160.03C155.206 160.03 154.86 160.153 154.62 160.4C154.386 160.646 154.23 160.973 154.15 161.38C154.076 161.78 154.04 162.27 154.04 162.85C154.04 163.45 154.076 163.953 154.15 164.36C154.23 164.766 154.386 165.093 154.62 165.34C154.86 165.586 155.206 165.71 155.66 165.71C156.106 165.71 156.446 165.586 156.68 165.34C156.92 165.093 157.076 164.766 157.15 164.36C157.23 163.953 157.27 163.45 157.27 162.85ZM163.869 160.02L161.089 166.54H160.169L162.989 160.11H159.129V159.33H163.869V160.02ZM168.828 162.49V163.26H164.838V162.49H168.828ZM170.146 160.14V159.31H172.026V166.54H171.106V160.14H170.146ZM178.039 160.02L175.259 166.54H174.339L177.159 160.11H173.299V159.33H178.039V160.02ZM179.028 161.13C179.074 160.516 179.311 160.036 179.738 159.69C180.164 159.343 180.718 159.17 181.398 159.17C181.851 159.17 182.241 159.253 182.568 159.42C182.901 159.58 183.151 159.8 183.318 160.08C183.491 160.36 183.578 160.676 183.578 161.03C183.578 161.443 183.458 161.8 183.218 162.1C182.984 162.4 182.678 162.593 182.298 162.68V162.73C182.731 162.836 183.074 163.046 183.328 163.36C183.581 163.673 183.708 164.083 183.708 164.59C183.708 164.97 183.621 165.313 183.448 165.62C183.274 165.92 183.014 166.156 182.668 166.33C182.321 166.503 181.904 166.59 181.418 166.59C180.711 166.59 180.131 166.406 179.678 166.04C179.224 165.666 178.971 165.14 178.918 164.46H179.798C179.844 164.86 180.008 165.186 180.288 165.44C180.568 165.693 180.941 165.82 181.408 165.82C181.874 165.82 182.228 165.7 182.468 165.46C182.714 165.213 182.838 164.896 182.838 164.51C182.838 164.01 182.671 163.65 182.338 163.43C182.004 163.21 181.501 163.1 180.828 163.1H180.598V162.34H180.838C181.451 162.333 181.914 162.233 182.228 162.04C182.541 161.84 182.698 161.533 182.698 161.12C182.698 160.766 182.581 160.483 182.348 160.27C182.121 160.056 181.794 159.95 181.368 159.95C180.954 159.95 180.621 160.056 180.368 160.27C180.114 160.483 179.964 160.77 179.918 161.13H179.028ZM186.256 162.78C185.883 162.633 185.596 162.42 185.396 162.14C185.196 161.86 185.096 161.52 185.096 161.12C185.096 160.76 185.186 160.436 185.366 160.15C185.546 159.856 185.813 159.626 186.166 159.46C186.526 159.286 186.96 159.2 187.466 159.2C187.973 159.2 188.403 159.286 188.756 159.46C189.116 159.626 189.386 159.856 189.566 160.15C189.753 160.436 189.846 160.76 189.846 161.12C189.846 161.506 189.743 161.846 189.536 162.14C189.33 162.426 189.046 162.64 188.686 162.78C189.1 162.906 189.426 163.13 189.666 163.45C189.913 163.763 190.036 164.143 190.036 164.59C190.036 165.023 189.93 165.403 189.716 165.73C189.503 166.05 189.2 166.3 188.806 166.48C188.42 166.653 187.973 166.74 187.466 166.74C186.96 166.74 186.513 166.653 186.126 166.48C185.746 166.3 185.45 166.05 185.236 165.73C185.023 165.403 184.916 165.023 184.916 164.59C184.916 164.143 185.036 163.76 185.276 163.44C185.516 163.12 185.843 162.9 186.256 162.78ZM188.966 161.23C188.966 160.823 188.833 160.51 188.566 160.29C188.3 160.07 187.933 159.96 187.466 159.96C187.006 159.96 186.643 160.07 186.376 160.29C186.11 160.51 185.976 160.826 185.976 161.24C185.976 161.613 186.113 161.913 186.386 162.14C186.666 162.366 187.026 162.48 187.466 162.48C187.913 162.48 188.273 162.366 188.546 162.14C188.826 161.906 188.966 161.603 188.966 161.23ZM187.466 163.18C186.973 163.18 186.57 163.296 186.256 163.53C185.943 163.756 185.786 164.1 185.786 164.56C185.786 164.986 185.936 165.33 186.236 165.59C186.543 165.85 186.953 165.98 187.466 165.98C187.98 165.98 188.386 165.85 188.686 165.59C188.986 165.33 189.136 164.986 189.136 164.56C189.136 164.113 188.983 163.773 188.676 163.54C188.37 163.3 187.966 163.18 187.466 163.18ZM108.831 177.27H106.701V179.43H105.851V177.27H103.731V176.5H105.851V174.33H106.701V176.5H108.831V177.27ZM110.068 174.14V173.31H111.948V180.54H111.028V174.14H110.068ZM118.667 182.4C118.027 181.773 117.527 180.976 117.167 180.01C116.813 179.043 116.637 178 116.637 176.88C116.637 175.733 116.823 174.663 117.197 173.67C117.577 172.67 118.117 171.846 118.817 171.2H119.767V171.29C119.02 171.99 118.457 172.833 118.077 173.82C117.703 174.8 117.517 175.82 117.517 176.88C117.517 177.913 117.693 178.9 118.047 179.84C118.407 180.78 118.93 181.603 119.617 182.31V182.4H118.667ZM125.168 174.02L122.388 180.54H121.468L124.288 174.11H120.428V173.33H125.168V174.02ZM125.937 174.14V173.31H127.817V180.54H126.897V174.14H125.937ZM129.36 175.13C129.406 174.516 129.643 174.036 130.07 173.69C130.496 173.343 131.05 173.17 131.73 173.17C132.183 173.17 132.573 173.253 132.9 173.42C133.233 173.58 133.483 173.8 133.65 174.08C133.823 174.36 133.91 174.676 133.91 175.03C133.91 175.443 133.79 175.8 133.55 176.1C133.316 176.4 133.01 176.593 132.63 176.68V176.73C133.063 176.836 133.406 177.046 133.66 177.36C133.913 177.673 134.04 178.083 134.04 178.59C134.04 178.97 133.953 179.313 133.78 179.62C133.606 179.92 133.346 180.156 133 180.33C132.653 180.503 132.236 180.59 131.75 180.59C131.043 180.59 130.463 180.406 130.01 180.04C129.556 179.666 129.303 179.14 129.25 178.46H130.13C130.176 178.86 130.34 179.186 130.62 179.44C130.9 179.693 131.273 179.82 131.74 179.82C132.206 179.82 132.56 179.7 132.8 179.46C133.046 179.213 133.17 178.896 133.17 178.51C133.17 178.01 133.003 177.65 132.67 177.43C132.336 177.21 131.833 177.1 131.16 177.1H130.93V176.34H131.17C131.783 176.333 132.246 176.233 132.56 176.04C132.873 175.84 133.03 175.533 133.03 175.12C133.03 174.766 132.913 174.483 132.68 174.27C132.453 174.056 132.126 173.95 131.7 173.95C131.286 173.95 130.953 174.056 130.7 174.27C130.446 174.483 130.296 174.77 130.25 175.13H129.36ZM135.128 182.4V182.31C135.815 181.603 136.335 180.78 136.688 179.84C137.048 178.9 137.228 177.913 137.228 176.88C137.228 175.82 137.038 174.8 136.658 173.82C136.285 172.833 135.725 171.99 134.978 171.29V171.2H135.928C136.628 171.846 137.165 172.67 137.538 173.67C137.918 174.663 138.108 175.733 138.108 176.88C138.108 178 137.928 179.043 137.568 180.01C137.215 180.976 136.718 181.773 136.078 182.4H135.128ZM143.645 178.6C143.712 178.98 143.865 179.273 144.105 179.48C144.352 179.686 144.682 179.79 145.095 179.79C145.649 179.79 146.055 179.573 146.315 179.14C146.582 178.706 146.709 177.976 146.695 176.95C146.555 177.25 146.322 177.486 145.995 177.66C145.669 177.826 145.305 177.91 144.905 177.91C144.459 177.91 144.059 177.82 143.705 177.64C143.359 177.453 143.085 177.183 142.885 176.83C142.685 176.476 142.585 176.05 142.585 175.55C142.585 174.836 142.792 174.263 143.205 173.83C143.619 173.39 144.205 173.17 144.965 173.17C145.899 173.17 146.552 173.473 146.925 174.08C147.305 174.686 147.495 175.59 147.495 176.79C147.495 177.63 147.419 178.323 147.265 178.87C147.119 179.416 146.865 179.833 146.505 180.12C146.152 180.406 145.665 180.55 145.045 180.55C144.365 180.55 143.835 180.366 143.455 180C143.075 179.633 142.859 179.166 142.805 178.6H143.645ZM145.055 177.14C145.502 177.14 145.869 177.003 146.155 176.73C146.442 176.45 146.585 176.073 146.585 175.6C146.585 175.1 146.445 174.696 146.165 174.39C145.885 174.083 145.492 173.93 144.985 173.93C144.519 173.93 144.145 174.076 143.865 174.37C143.592 174.663 143.455 175.05 143.455 175.53C143.455 176.016 143.592 176.406 143.865 176.7C144.139 176.993 144.535 177.14 145.055 177.14ZM148.774 176.85C148.774 175.703 148.961 174.81 149.334 174.17C149.708 173.523 150.361 173.2 151.294 173.2C152.221 173.2 152.871 173.523 153.244 174.17C153.618 174.81 153.804 175.703 153.804 176.85C153.804 178.016 153.618 178.923 153.244 179.57C152.871 180.216 152.221 180.54 151.294 180.54C150.361 180.54 149.708 180.216 149.334 179.57C148.961 178.923 148.774 178.016 148.774 176.85ZM152.904 176.85C152.904 176.27 152.864 175.78 152.784 175.38C152.711 174.973 152.554 174.646 152.314 174.4C152.081 174.153 151.741 174.03 151.294 174.03C150.841 174.03 150.494 174.153 150.254 174.4C150.021 174.646 149.864 174.973 149.784 175.38C149.711 175.78 149.674 176.27 149.674 176.85C149.674 177.45 149.711 177.953 149.784 178.36C149.864 178.766 150.021 179.093 150.254 179.34C150.494 179.586 150.841 179.71 151.294 179.71C151.741 179.71 152.081 179.586 152.314 179.34C152.554 179.093 152.711 178.766 152.784 178.36C152.864 177.953 152.904 177.45 152.904 176.85ZM156.224 178.6C156.29 178.98 156.444 179.273 156.684 179.48C156.93 179.686 157.26 179.79 157.674 179.79C158.227 179.79 158.634 179.573 158.894 179.14C159.16 178.706 159.287 177.976 159.274 176.95C159.134 177.25 158.9 177.486 158.574 177.66C158.247 177.826 157.884 177.91 157.484 177.91C157.037 177.91 156.637 177.82 156.284 177.64C155.937 177.453 155.664 177.183 155.464 176.83C155.264 176.476 155.164 176.05 155.164 175.55C155.164 174.836 155.37 174.263 155.784 173.83C156.197 173.39 156.784 173.17 157.544 173.17C158.477 173.17 159.13 173.473 159.504 174.08C159.884 174.686 160.074 175.59 160.074 176.79C160.074 177.63 159.997 178.323 159.844 178.87C159.697 179.416 159.444 179.833 159.084 180.12C158.73 180.406 158.244 180.55 157.624 180.55C156.944 180.55 156.414 180.366 156.034 180C155.654 179.633 155.437 179.166 155.384 178.6H156.224ZM157.634 177.14C158.08 177.14 158.447 177.003 158.734 176.73C159.02 176.45 159.164 176.073 159.164 175.6C159.164 175.1 159.024 174.696 158.744 174.39C158.464 174.083 158.07 173.93 157.564 173.93C157.097 173.93 156.724 174.076 156.444 174.37C156.17 174.663 156.034 175.05 156.034 175.53C156.034 176.016 156.17 176.406 156.444 176.7C156.717 176.993 157.114 177.14 157.634 177.14ZM165.302 176.49V177.26H161.312V176.49H165.302ZM166.84 175.13C166.887 174.516 167.124 174.036 167.55 173.69C167.977 173.343 168.53 173.17 169.21 173.17C169.664 173.17 170.054 173.253 170.38 173.42C170.714 173.58 170.964 173.8 171.13 174.08C171.304 174.36 171.39 174.676 171.39 175.03C171.39 175.443 171.27 175.8 171.03 176.1C170.797 176.4 170.49 176.593 170.11 176.68V176.73C170.544 176.836 170.887 177.046 171.14 177.36C171.394 177.673 171.52 178.083 171.52 178.59C171.52 178.97 171.434 179.313 171.26 179.62C171.087 179.92 170.827 180.156 170.48 180.33C170.134 180.503 169.717 180.59 169.23 180.59C168.524 180.59 167.944 180.406 167.49 180.04C167.037 179.666 166.784 179.14 166.73 178.46H167.61C167.657 178.86 167.82 179.186 168.1 179.44C168.38 179.693 168.754 179.82 169.22 179.82C169.687 179.82 170.04 179.7 170.28 179.46C170.527 179.213 170.65 178.896 170.65 178.51C170.65 178.01 170.484 177.65 170.15 177.43C169.817 177.21 169.314 177.1 168.64 177.1H168.41V176.34H168.65C169.264 176.333 169.727 176.233 170.04 176.04C170.354 175.84 170.51 175.533 170.51 175.12C170.51 174.766 170.394 174.483 170.16 174.27C169.934 174.056 169.607 173.95 169.18 173.95C168.767 173.95 168.434 174.056 168.18 174.27C167.927 174.483 167.777 174.77 167.73 175.13H166.84ZM172.509 174.14V173.31H174.389V180.54H173.469V174.14H172.509ZM180.402 174.02L177.622 180.54H176.702L179.522 174.11H175.662V173.33H180.402V174.02ZM181.171 174.14V173.31H183.051V180.54H182.131V174.14H181.171Z" fill="white"/>
<path d="M76.7906 219.14C78.2906 220.04 80.0906 220.54 81.8906 220.54C87.3906 220.54 91.8906 216.04 91.8906 210.54C91.8906 205.04 87.3906 200.54 81.8906 200.54C76.3906 200.54 71.8906 205.04 71.8906 210.54C71.8906 212.34 72.3906 214.04 73.1906 215.54L72.3311 218.846C72.1363 219.595 72.8295 220.272 73.5736 220.059L76.7906 219.14Z" stroke="white" stroke-width="1.5" stroke-miterlimit="10" stroke-linecap="round" stroke-linejoin="round"/>
<path d="M86.3906 213.388C86.3906 213.55 86.3546 213.717 86.278 213.879C86.2013 214.041 86.1022 214.194 85.9715 214.338C85.7507 214.581 85.5073 214.756 85.2324 214.869C84.962 214.981 84.669 215.04 84.3536 215.04C83.8939 215.04 83.4026 214.932 82.8844 214.711C82.3661 214.491 81.8478 214.194 81.334 213.82C80.8158 213.442 80.3245 213.024 79.8558 212.56C79.3916 212.092 78.9725 211.602 78.5984 211.089C78.2289 210.576 77.9314 210.063 77.7151 209.554C77.4988 209.041 77.3906 208.551 77.3906 208.083C77.3906 207.777 77.4447 207.484 77.5529 207.214C77.661 206.94 77.8323 206.688 78.0711 206.463C78.3596 206.179 78.6751 206.04 79.0086 206.04C79.1347 206.04 79.2609 206.067 79.3736 206.121C79.4908 206.175 79.5944 206.256 79.6756 206.373L80.7211 207.844C80.8022 207.957 80.8608 208.06 80.9014 208.159C80.942 208.254 80.9645 208.348 80.9645 208.434C80.9645 208.542 80.9329 208.65 80.8698 208.753C80.8113 208.857 80.7256 208.965 80.6175 209.073L80.275 209.428C80.2254 209.478 80.2028 209.536 80.2028 209.608C80.2028 209.644 80.2074 209.676 80.2164 209.712C80.2299 209.748 80.2434 209.775 80.2524 209.802C80.3335 209.95 80.4732 210.144 80.6715 210.378C80.8744 210.612 81.0907 210.85 81.325 211.089C81.5684 211.327 81.8027 211.548 82.0416 211.75C82.276 211.948 82.4697 212.083 82.623 212.164C82.6455 212.173 82.6725 212.187 82.7041 212.2C82.7401 212.214 82.7762 212.218 82.8168 212.218C82.8934 212.218 82.952 212.191 83.0015 212.142L83.3441 211.804C83.4567 211.692 83.5649 211.606 83.6685 211.552C83.7722 211.489 83.8759 211.458 83.9885 211.458C84.0742 211.458 84.1643 211.476 84.2634 211.516C84.3626 211.557 84.4662 211.615 84.5789 211.692L86.0706 212.749C86.1878 212.83 86.2689 212.925 86.3185 213.037C86.3636 213.15 86.3906 213.262 86.3906 213.388Z" stroke="white" stroke-width="1.5" stroke-miterlimit="10"/>
<path d="M112.861 211.27H110.731V213.43H109.881V211.27H107.761V210.5H109.881V208.33H110.731V210.5H112.861V211.27ZM114.097 208.14V207.31H115.977V214.54H115.057V208.14H114.097ZM122.696 216.4C122.056 215.773 121.556 214.976 121.196 214.01C120.843 213.043 120.666 212 120.666 210.88C120.666 209.733 120.853 208.663 121.226 207.67C121.606 206.67 122.146 205.846 122.846 205.2H123.796V205.29C123.049 205.99 122.486 206.833 122.106 207.82C121.733 208.8 121.546 209.82 121.546 210.88C121.546 211.913 121.723 212.9 122.076 213.84C122.436 214.78 122.959 215.603 123.646 216.31V216.4H122.696ZM126.067 210.78C125.694 210.633 125.407 210.42 125.207 210.14C125.007 209.86 124.907 209.52 124.907 209.12C124.907 208.76 124.997 208.436 125.177 208.15C125.357 207.856 125.624 207.626 125.977 207.46C126.337 207.286 126.77 207.2 127.277 207.2C127.784 207.2 128.214 207.286 128.567 207.46C128.927 207.626 129.197 207.856 129.377 208.15C129.564 208.436 129.657 208.76 129.657 209.12C129.657 209.506 129.554 209.846 129.347 210.14C129.14 210.426 128.857 210.64 128.497 210.78C128.91 210.906 129.237 211.13 129.477 211.45C129.724 211.763 129.847 212.143 129.847 212.59C129.847 213.023 129.74 213.403 129.527 213.73C129.314 214.05 129.01 214.3 128.617 214.48C128.23 214.653 127.784 214.74 127.277 214.74C126.77 214.74 126.324 214.653 125.937 214.48C125.557 214.3 125.26 214.05 125.047 213.73C124.834 213.403 124.727 213.023 124.727 212.59C124.727 212.143 124.847 211.76 125.087 211.44C125.327 211.12 125.654 210.9 126.067 210.78ZM128.777 209.23C128.777 208.823 128.644 208.51 128.377 208.29C128.11 208.07 127.744 207.96 127.277 207.96C126.817 207.96 126.454 208.07 126.187 208.29C125.92 208.51 125.787 208.826 125.787 209.24C125.787 209.613 125.924 209.913 126.197 210.14C126.477 210.366 126.837 210.48 127.277 210.48C127.724 210.48 128.084 210.366 128.357 210.14C128.637 209.906 128.777 209.603 128.777 209.23ZM127.277 211.18C126.784 211.18 126.38 211.296 126.067 211.53C125.754 211.756 125.597 212.1 125.597 212.56C125.597 212.986 125.747 213.33 126.047 213.59C126.354 213.85 126.764 213.98 127.277 213.98C127.79 213.98 128.197 213.85 128.497 213.59C128.797 213.33 128.947 212.986 128.947 212.56C128.947 212.113 128.794 211.773 128.487 211.54C128.18 211.3 127.777 211.18 127.277 211.18ZM131.036 209.13C131.082 208.516 131.319 208.036 131.746 207.69C132.172 207.343 132.726 207.17 133.406 207.17C133.859 207.17 134.249 207.253 134.576 207.42C134.909 207.58 135.159 207.8 135.326 208.08C135.499 208.36 135.586 208.676 135.586 209.03C135.586 209.443 135.466 209.8 135.226 210.1C134.992 210.4 134.686 210.593 134.306 210.68V210.73C134.739 210.836 135.082 211.046 135.336 211.36C135.589 211.673 135.716 212.083 135.716 212.59C135.716 212.97 135.629 213.313 135.456 213.62C135.282 213.92 135.022 214.156 134.676 214.33C134.329 214.503 133.912 214.59 133.426 214.59C132.719 214.59 132.139 214.406 131.686 214.04C131.232 213.666 130.979 213.14 130.926 212.46H131.806C131.852 212.86 132.016 213.186 132.296 213.44C132.576 213.693 132.949 213.82 133.416 213.82C133.882 213.82 134.236 213.7 134.476 213.46C134.722 213.213 134.846 212.896 134.846 212.51C134.846 212.01 134.679 211.65 134.346 211.43C134.012 211.21 133.509 211.1 132.836 211.1H132.606V210.34H132.846C133.459 210.333 133.922 210.233 134.236 210.04C134.549 209.84 134.706 209.533 134.706 209.12C134.706 208.766 134.589 208.483 134.356 208.27C134.129 208.056 133.802 207.95 133.376 207.95C132.962 207.95 132.629 208.056 132.376 208.27C132.122 208.483 131.972 208.77 131.926 209.13H131.036ZM136.834 213.81C137.681 213.13 138.344 212.573 138.824 212.14C139.304 211.7 139.708 211.243 140.034 210.77C140.368 210.29 140.534 209.82 140.534 209.36C140.534 208.926 140.428 208.586 140.214 208.34C140.008 208.086 139.671 207.96 139.204 207.96C138.751 207.96 138.398 208.103 138.144 208.39C137.898 208.67 137.764 209.046 137.744 209.52H136.864C136.891 208.773 137.118 208.196 137.544 207.79C137.971 207.383 138.521 207.18 139.194 207.18C139.881 207.18 140.424 207.37 140.824 207.75C141.231 208.13 141.434 208.653 141.434 209.32C141.434 209.873 141.268 210.413 140.934 210.94C140.608 211.46 140.234 211.92 139.814 212.32C139.394 212.713 138.858 213.173 138.204 213.7H141.644V214.46H136.834V213.81ZM142.556 216.4V216.31C143.243 215.603 143.763 214.78 144.116 213.84C144.476 212.9 144.656 211.913 144.656 210.88C144.656 209.82 144.466 208.8 144.086 207.82C143.713 206.833 143.153 205.99 142.406 205.29V205.2H143.356C144.056 205.846 144.593 206.67 144.966 207.67C145.346 208.663 145.536 209.733 145.536 210.88C145.536 212 145.356 213.043 144.996 214.01C144.643 214.976 144.146 215.773 143.506 216.4H142.556ZM154.513 208.1H151.003V210.38C151.157 210.166 151.383 209.993 151.683 209.86C151.983 209.72 152.307 209.65 152.653 209.65C153.207 209.65 153.657 209.766 154.003 210C154.35 210.226 154.597 210.523 154.743 210.89C154.897 211.25 154.973 211.633 154.973 212.04C154.973 212.52 154.883 212.95 154.703 213.33C154.523 213.71 154.247 214.01 153.873 214.23C153.507 214.45 153.05 214.56 152.503 214.56C151.803 214.56 151.237 214.38 150.803 214.02C150.37 213.66 150.107 213.18 150.013 212.58H150.903C150.99 212.96 151.173 213.256 151.453 213.47C151.733 213.683 152.087 213.79 152.513 213.79C153.04 213.79 153.437 213.633 153.703 213.32C153.97 213 154.103 212.58 154.103 212.06C154.103 211.54 153.97 211.14 153.703 210.86C153.437 210.573 153.043 210.43 152.523 210.43C152.17 210.43 151.86 210.516 151.593 210.69C151.333 210.856 151.143 211.086 151.023 211.38H150.163V207.3H154.513V208.1ZM157.503 210.78C157.129 210.633 156.843 210.42 156.643 210.14C156.443 209.86 156.343 209.52 156.343 209.12C156.343 208.76 156.433 208.436 156.613 208.15C156.793 207.856 157.059 207.626 157.413 207.46C157.773 207.286 158.206 207.2 158.713 207.2C159.219 207.2 159.649 207.286 160.003 207.46C160.363 207.626 160.633 207.856 160.813 208.15C160.999 208.436 161.093 208.76 161.093 209.12C161.093 209.506 160.989 209.846 160.783 210.14C160.576 210.426 160.293 210.64 159.933 210.78C160.346 210.906 160.673 211.13 160.913 211.45C161.159 211.763 161.283 212.143 161.283 212.59C161.283 213.023 161.176 213.403 160.963 213.73C160.749 214.05 160.446 214.3 160.053 214.48C159.666 214.653 159.219 214.74 158.713 214.74C158.206 214.74 157.759 214.653 157.373 214.48C156.993 214.3 156.696 214.05 156.483 213.73C156.269 213.403 156.163 213.023 156.163 212.59C156.163 212.143 156.283 211.76 156.523 211.44C156.762 211.12 157.089 210.9 157.503 210.78ZM160.213 209.23C160.213 208.823 160.079 208.51 159.813 208.29C159.546 208.07 159.179 207.96 158.713 207.96C158.253 207.96 157.889 208.07 157.623 208.29C157.356 208.51 157.223 208.826 157.223 209.24C157.223 209.613 157.359 209.913 157.633 210.14C157.913 210.366 158.273 210.48 158.713 210.48C159.159 210.48 159.519 210.366 159.793 210.14C160.073 209.906 160.213 209.603 160.213 209.23ZM158.713 211.18C158.219 211.18 157.816 211.296 157.503 211.53C157.189 211.756 157.032 212.1 157.032 212.56C157.032 212.986 157.183 213.33 157.483 213.59C157.789 213.85 158.199 213.98 158.713 213.98C159.226 213.98 159.633 213.85 159.933 213.59C160.233 213.33 160.383 212.986 160.383 212.56C160.383 212.113 160.229 211.773 159.923 211.54C159.616 211.3 159.213 211.18 158.713 211.18ZM162.491 210.85C162.491 209.703 162.678 208.81 163.051 208.17C163.424 207.523 164.078 207.2 165.011 207.2C165.938 207.2 166.588 207.523 166.961 208.17C167.334 208.81 167.521 209.703 167.521 210.85C167.521 212.016 167.334 212.923 166.961 213.57C166.588 214.216 165.938 214.54 165.011 214.54C164.078 214.54 163.424 214.216 163.051 213.57C162.678 212.923 162.491 212.016 162.491 210.85ZM166.621 210.85C166.621 210.27 166.581 209.78 166.501 209.38C166.428 208.973 166.271 208.646 166.031 208.4C165.798 208.153 165.458 208.03 165.011 208.03C164.558 208.03 164.211 208.153 163.971 208.4C163.738 208.646 163.581 208.973 163.501 209.38C163.428 209.78 163.391 210.27 163.391 210.85C163.391 211.45 163.428 211.953 163.501 212.36C163.581 212.766 163.738 213.093 163.971 213.34C164.211 213.586 164.558 213.71 165.011 213.71C165.458 213.71 165.798 213.586 166.031 213.34C166.271 213.093 166.428 212.766 166.501 212.36C166.581 211.953 166.621 211.45 166.621 210.85ZM172.72 210.49V211.26H168.73V210.49H172.72ZM174.278 210.85C174.278 209.703 174.465 208.81 174.838 208.17C175.212 207.523 175.865 207.2 176.798 207.2C177.725 207.2 178.375 207.523 178.748 208.17C179.122 208.81 179.308 209.703 179.308 210.85C179.308 212.016 179.122 212.923 178.748 213.57C178.375 214.216 177.725 214.54 176.798 214.54C175.865 214.54 175.212 214.216 174.838 213.57C174.465 212.923 174.278 212.016 174.278 210.85ZM178.408 210.85C178.408 210.27 178.368 209.78 178.288 209.38C178.215 208.973 178.058 208.646 177.818 208.4C177.585 208.153 177.245 208.03 176.798 208.03C176.345 208.03 175.998 208.153 175.758 208.4C175.525 208.646 175.368 208.973 175.288 209.38C175.215 209.78 175.178 210.27 175.178 210.85C175.178 211.45 175.215 211.953 175.288 212.36C175.368 212.766 175.525 213.093 175.758 213.34C175.998 213.586 176.345 213.71 176.798 213.71C177.245 213.71 177.585 213.586 177.818 213.34C178.058 213.093 178.215 212.766 178.288 212.36C178.368 211.953 178.408 211.45 178.408 210.85ZM184.588 209.03C184.441 208.29 183.984 207.92 183.218 207.92C182.624 207.92 182.181 208.15 181.888 208.61C181.594 209.063 181.451 209.813 181.458 210.86C181.611 210.513 181.864 210.243 182.218 210.05C182.578 209.85 182.978 209.75 183.418 209.75C184.104 209.75 184.651 209.963 185.058 210.39C185.471 210.816 185.678 211.406 185.678 212.16C185.678 212.613 185.588 213.02 185.408 213.38C185.234 213.74 184.968 214.026 184.608 214.24C184.254 214.453 183.824 214.56 183.318 214.56C182.631 214.56 182.094 214.406 181.708 214.1C181.321 213.793 181.051 213.37 180.898 212.83C180.744 212.29 180.668 211.623 180.668 210.83C180.668 208.383 181.521 207.16 183.228 207.16C183.881 207.16 184.394 207.336 184.768 207.69C185.141 208.043 185.361 208.49 185.428 209.03H184.588ZM183.228 210.52C182.941 210.52 182.671 210.58 182.418 210.7C182.164 210.813 181.958 210.99 181.798 211.23C181.644 211.463 181.568 211.75 181.568 212.09C181.568 212.596 181.714 213.01 182.008 213.33C182.301 213.643 182.721 213.8 183.268 213.8C183.734 213.8 184.104 213.656 184.378 213.37C184.658 213.076 184.798 212.683 184.798 212.19C184.798 211.67 184.664 211.263 184.398 210.97C184.131 210.67 183.741 210.52 183.228 210.52ZM190.935 209.03C190.788 208.29 190.332 207.92 189.565 207.92C188.972 207.92 188.528 208.15 188.235 208.61C187.942 209.063 187.798 209.813 187.805 210.86C187.958 210.513 188.212 210.243 188.565 210.05C188.925 209.85 189.325 209.75 189.765 209.75C190.452 209.75 190.998 209.963 191.405 210.39C191.818 210.816 192.025 211.406 192.025 212.16C192.025 212.613 191.935 213.02 191.755 213.38C191.582 213.74 191.315 214.026 190.955 214.24C190.602 214.453 190.172 214.56 189.665 214.56C188.978 214.56 188.442 214.406 188.055 214.1C187.668 213.793 187.398 213.37 187.245 212.83C187.092 212.29 187.015 211.623 187.015 210.83C187.015 208.383 187.868 207.16 189.575 207.16C190.228 207.16 190.742 207.336 191.115 207.69C191.488 208.043 191.708 208.49 191.775 209.03H190.935ZM189.575 210.52C189.288 210.52 189.018 210.58 188.765 210.7C188.512 210.813 188.305 210.99 188.145 211.23C187.992 211.463 187.915 211.75 187.915 212.09C187.915 212.596 188.062 213.01 188.355 213.33C188.648 213.643 189.068 213.8 189.615 213.8C190.082 213.8 190.452 213.656 190.725 213.37C191.005 213.076 191.145 212.683 191.145 212.19C191.145 211.67 191.012 211.263 190.745 210.97C190.478 210.67 190.088 210.52 189.575 210.52ZM197.283 209.03C197.136 208.29 196.679 207.92 195.913 207.92C195.319 207.92 194.876 208.15 194.583 208.61C194.289 209.063 194.146 209.813 194.153 210.86C194.306 210.513 194.559 210.243 194.913 210.05C195.273 209.85 195.673 209.75 196.113 209.75C196.799 209.75 197.346 209.963 197.753 210.39C198.166 210.816 198.373 211.406 198.373 212.16C198.373 212.613 198.283 213.02 198.103 213.38C197.929 213.74 197.663 214.026 197.303 214.24C196.949 214.453 196.519 214.56 196.013 214.56C195.326 214.56 194.789 214.406 194.403 214.1C194.016 213.793 193.746 213.37 193.593 212.83C193.439 212.29 193.363 211.623 193.363 210.83C193.363 208.383 194.216 207.16 195.923 207.16C196.576 207.16 197.089 207.336 197.463 207.69C197.836 208.043 198.056 208.49 198.123 209.03H197.283ZM195.923 210.52C195.636 210.52 195.366 210.58 195.113 210.7C194.859 210.813 194.653 210.99 194.493 211.23C194.339 211.463 194.263 211.75 194.263 212.09C194.263 212.596 194.409 213.01 194.703 213.33C194.996 213.643 195.416 213.8 195.963 213.8C196.429 213.8 196.799 213.656 197.073 213.37C197.353 213.076 197.493 212.683 197.493 212.19C197.493 211.67 197.359 211.263 197.093 210.97C196.826 210.67 196.436 210.52 195.923 210.52Z" fill="white"/>
<defs>
<linearGradient id="paint0_linear_172_3740" x1="20.3355" y1="13.2419" x2="383.059" y2="42.5654" gradientUnits="userSpaceOnUse">
<stop stop-color="#007BFF"/>
<stop offset="1" stop-color="#56A8FF"/>
</linearGradient>
</defs>
</svg>
