<svg width="226" height="46" viewBox="0 0 226 46" fill="none" xmlns="http://www.w3.org/2000/svg">
<rect x="0.109375" y="0.469971" width="225.782" height="45" rx="22.5" fill="url(#paint0_linear_172_3739)"/>
<path d="M77.1594 24.3736C77.1594 25.7874 76.0283 27.0599 73.9846 27.0599C72.1208 27.0599 70.6812 26.0831 70.6555 24.3864H72.5836C72.635 25.1062 73.1106 25.5818 73.946 25.5818C74.7944 25.5818 75.2957 25.1319 75.2957 24.4892C75.2957 22.5483 70.6684 23.718 70.6812 20.4661C70.6812 18.8465 71.9923 17.8697 73.8432 17.8697C75.6813 17.8697 76.9409 18.808 77.0566 20.4275H75.0772C75.0386 19.8362 74.563 19.3735 73.7918 19.3607C73.0849 19.335 72.5579 19.682 72.5579 20.4147C72.5579 22.2142 77.1594 21.2116 77.1594 24.3736ZM81.7787 21.2116C80.9175 21.2116 80.2363 21.7643 80.0949 22.7412H83.4753C83.4496 21.8028 82.7041 21.2116 81.7787 21.2116ZM85.1592 24.7335C84.7736 26.0445 83.591 27.0857 81.8301 27.0857C79.7607 27.0857 78.2568 25.6461 78.2568 23.4095C78.2568 21.1602 79.7221 19.7334 81.8301 19.7334C83.8867 19.7334 85.3391 21.1345 85.3391 23.2553C85.3391 23.4867 85.3263 23.718 85.2877 23.9494H80.082C80.172 25.0034 80.8918 25.5946 81.7915 25.5946C82.5627 25.5946 82.9869 25.209 83.2183 24.7335H85.1592ZM91.6398 26.97V23.0368C91.6398 21.8928 91.0099 21.2758 90.0588 21.2758C89.0819 21.2758 88.4521 21.8928 88.4521 23.0368V26.97H86.6526V19.8491H88.4521V20.736C88.9148 20.1319 89.686 19.7463 90.5986 19.7463C92.2567 19.7463 93.4393 20.826 93.4393 22.7926V26.97H91.6398ZM94.6878 23.3838C94.6878 21.1602 96.1274 19.7334 97.9526 19.7334C98.8909 19.7334 99.7906 20.1704 100.279 20.8388V17.4583H102.104V26.97H100.279V25.916C99.8549 26.5715 99.058 27.0857 97.9397 27.0857C96.1274 27.0857 94.6878 25.6075 94.6878 23.3838ZM100.292 23.4095C100.292 22.0599 99.3922 21.3144 98.4024 21.3144C97.4384 21.3144 96.5258 22.0342 96.5258 23.3838C96.5258 24.7335 97.4384 25.5047 98.4024 25.5047C99.3922 25.5047 100.292 24.7592 100.292 23.4095ZM112.13 17.9853V19.4506H108.724V21.7H111.745V23.1268H108.724V25.5047H112.13V26.97H106.925V17.9853H112.13ZM118.753 26.97V23.0368C118.753 21.8928 118.123 21.2758 117.172 21.2758C116.195 21.2758 115.565 21.8928 115.565 23.0368V26.97H113.766V19.8491H115.565V20.736C116.028 20.1319 116.799 19.7463 117.712 19.7463C119.37 19.7463 120.552 20.826 120.552 22.7926V26.97H118.753ZM121.801 23.3967C121.801 21.2116 123.279 19.7463 125.117 19.7463C126.184 19.7463 126.968 20.2219 127.405 20.7746V19.8491H129.217V30.3633H127.405V25.9931C126.968 26.5587 126.158 27.0728 125.078 27.0728C123.279 27.0728 121.801 25.5818 121.801 23.3967ZM127.405 23.4095C127.405 22.0342 126.454 21.3144 125.515 21.3144C124.59 21.3144 123.639 22.0214 123.639 23.3967C123.639 24.772 124.59 25.5047 125.515 25.5047C126.454 25.5047 127.405 24.7849 127.405 23.4095ZM137.697 19.8491V26.97H135.885V26.0702C135.435 26.6743 134.651 27.0599 133.764 27.0599C132.106 27.0599 130.91 25.9802 130.91 24.0265V19.8491H132.71V23.7694C132.71 24.9134 133.34 25.5304 134.291 25.5304C135.268 25.5304 135.885 24.9134 135.885 23.7694V19.8491H137.697ZM139.473 26.97V19.8491H141.272V26.97H139.473ZM140.385 19.0008C139.743 19.0008 139.28 18.538 139.28 17.9468C139.28 17.3555 139.743 16.8928 140.385 16.8928C141.015 16.8928 141.491 17.3555 141.491 17.9468C141.491 18.538 141.015 19.0008 140.385 19.0008ZM144.85 23.4224V26.97H143.05V19.8491H144.85V20.9545C145.299 20.2219 146.045 19.7463 147.035 19.7463V21.6357H146.559C145.492 21.6357 144.85 22.0471 144.85 23.4224ZM151.28 24.8234L153.144 19.8491H155.059L150.65 30.3376H148.735L150.278 26.79L147.424 19.8491H149.442L151.28 24.8234Z" fill="white"/>
<defs>
<linearGradient id="paint0_linear_172_3739" x1="11.8822" y1="2.96998" x2="211.147" y2="52.0705" gradientUnits="userSpaceOnUse">
<stop stop-color="#007BFF"/>
<stop offset="1" stop-color="#56A8FF"/>
</linearGradient>
</defs>
</svg>
