<svg width="66" height="18" viewBox="0 0 66 18" fill="none" xmlns="http://www.w3.org/2000/svg">
<rect width="66" height="18" rx="9" fill="#00CA2C"/>
<path d="M5.72 13V4.6H10.646V5.608H6.728V7.996H10.07V9.004H6.728V13H5.72ZM11.2513 13V7H12.2593V7.75C12.4713 7.47 12.7393 7.248 13.0633 7.084C13.3873 6.916 13.7393 6.832 14.1193 6.832C14.3513 6.832 14.5753 6.862 14.7913 6.922L14.3833 7.93C14.2193 7.878 14.0593 7.852 13.9033 7.852C13.6033 7.852 13.3273 7.926 13.0753 8.074C12.8273 8.218 12.6293 8.414 12.4813 8.662C12.3333 8.91 12.2593 9.186 12.2593 9.49V13H11.2513ZM17.8639 13.156C17.3119 13.156 16.8079 13.014 16.3519 12.73C15.8999 12.446 15.5379 12.066 15.2659 11.59C14.9979 11.11 14.8639 10.58 14.8639 10C14.8639 9.56 14.9419 9.15 15.0979 8.77C15.2539 8.386 15.4679 8.05 15.7399 7.762C16.0159 7.47 16.3359 7.242 16.6999 7.078C17.0639 6.914 17.4519 6.832 17.8639 6.832C18.3159 6.832 18.7299 6.924 19.1059 7.108C19.4859 7.288 19.8099 7.54 20.0779 7.864C20.3499 8.188 20.5519 8.564 20.6839 8.992C20.8199 9.42 20.8699 9.878 20.8339 10.366H15.9379C15.9859 10.706 16.0979 11.01 16.2739 11.278C16.4499 11.542 16.6739 11.752 16.9459 11.908C17.2219 12.064 17.5279 12.144 17.8639 12.148C18.2239 12.148 18.5499 12.056 18.8419 11.872C19.1339 11.684 19.3699 11.428 19.5499 11.104L20.5759 11.344C20.3359 11.876 19.9739 12.312 19.4899 12.652C19.0059 12.988 18.4639 13.156 17.8639 13.156ZM15.9079 9.574H19.8199C19.7879 9.238 19.6799 8.932 19.4959 8.656C19.3119 8.376 19.0779 8.152 18.7939 7.984C18.5099 7.816 18.1999 7.732 17.8639 7.732C17.5279 7.732 17.2199 7.814 16.9399 7.978C16.6599 8.142 16.4279 8.364 16.2439 8.644C16.0639 8.92 15.9519 9.23 15.9079 9.574ZM24.4498 13.156C23.8978 13.156 23.3938 13.014 22.9378 12.73C22.4858 12.446 22.1238 12.066 21.8518 11.59C21.5838 11.11 21.4498 10.58 21.4498 10C21.4498 9.56 21.5278 9.15 21.6838 8.77C21.8398 8.386 22.0538 8.05 22.3258 7.762C22.6018 7.47 22.9218 7.242 23.2858 7.078C23.6498 6.914 24.0378 6.832 24.4498 6.832C24.9018 6.832 25.3158 6.924 25.6918 7.108C26.0718 7.288 26.3958 7.54 26.6638 7.864C26.9358 8.188 27.1378 8.564 27.2698 8.992C27.4058 9.42 27.4558 9.878 27.4198 10.366H22.5238C22.5718 10.706 22.6838 11.01 22.8598 11.278C23.0358 11.542 23.2598 11.752 23.5318 11.908C23.8078 12.064 24.1138 12.144 24.4498 12.148C24.8098 12.148 25.1358 12.056 25.4278 11.872C25.7198 11.684 25.9558 11.428 26.1358 11.104L27.1618 11.344C26.9218 11.876 26.5598 12.312 26.0758 12.652C25.5918 12.988 25.0498 13.156 24.4498 13.156ZM22.4938 9.574H26.4058C26.3738 9.238 26.2658 8.932 26.0818 8.656C25.8978 8.376 25.6638 8.152 25.3798 7.984C25.0958 7.816 24.7858 7.732 24.4498 7.732C24.1138 7.732 23.8058 7.814 23.5258 7.978C23.2458 8.142 23.0138 8.364 22.8298 8.644C22.6498 8.92 22.5378 9.23 22.4938 9.574ZM31.3958 13V4.6H36.5498V5.608H32.4038V7.996H35.7998V9.004H32.4038V11.992H36.5498V13H31.3958ZM40.7736 13H39.4836L37.2936 6.988H38.3676L40.1256 11.83L41.8836 6.988H42.9576L40.7736 13ZM46.3405 13.156C45.7885 13.156 45.2845 13.014 44.8285 12.73C44.3765 12.446 44.0145 12.066 43.7425 11.59C43.4745 11.11 43.3405 10.58 43.3405 10C43.3405 9.56 43.4185 9.15 43.5745 8.77C43.7305 8.386 43.9445 8.05 44.2165 7.762C44.4925 7.47 44.8125 7.242 45.1765 7.078C45.5405 6.914 45.9285 6.832 46.3405 6.832C46.7925 6.832 47.2065 6.924 47.5825 7.108C47.9625 7.288 48.2865 7.54 48.5545 7.864C48.8265 8.188 49.0285 8.564 49.1605 8.992C49.2965 9.42 49.3465 9.878 49.3105 10.366H44.4145C44.4625 10.706 44.5745 11.01 44.7505 11.278C44.9265 11.542 45.1505 11.752 45.4225 11.908C45.6985 12.064 46.0045 12.144 46.3405 12.148C46.7005 12.148 47.0265 12.056 47.3185 11.872C47.6105 11.684 47.8465 11.428 48.0265 11.104L49.0525 11.344C48.8125 11.876 48.4505 12.312 47.9665 12.652C47.4825 12.988 46.9405 13.156 46.3405 13.156ZM44.3845 9.574H48.2965C48.2645 9.238 48.1565 8.932 47.9725 8.656C47.7885 8.376 47.5545 8.152 47.2705 7.984C46.9865 7.816 46.6765 7.732 46.3405 7.732C46.0045 7.732 45.6965 7.814 45.4165 7.978C45.1365 8.142 44.9045 8.364 44.7205 8.644C44.5405 8.92 44.4285 9.23 44.3845 9.574ZM55.6256 9.268V13H54.6176V9.49C54.6176 9.186 54.5436 8.91 54.3956 8.662C54.2476 8.414 54.0496 8.218 53.8016 8.074C53.5536 7.926 53.2776 7.852 52.9736 7.852C52.6736 7.852 52.3976 7.926 52.1456 8.074C51.8976 8.218 51.6996 8.414 51.5516 8.662C51.4036 8.91 51.3296 9.186 51.3296 9.49V13H50.3216V7H51.3296V7.75C51.5416 7.47 51.8096 7.248 52.1336 7.084C52.4576 6.916 52.8096 6.832 53.1896 6.832C53.6376 6.832 54.0456 6.942 54.4136 7.162C54.7856 7.378 55.0796 7.67 55.2956 8.038C55.5156 8.406 55.6256 8.816 55.6256 9.268ZM59.9335 8.008H58.5715L58.5655 13H57.5575L57.5635 8.008H56.5315V7H57.5635L57.5575 5.116H58.5655L58.5715 7H59.9335V8.008Z" fill="white"/>
</svg>
