<svg width="161" height="38" viewBox="0 0 161 38" fill="none" xmlns="http://www.w3.org/2000/svg">
<rect x="0.929688" y="0.680664" width="160" height="36.875" rx="18.4375" fill="#00C72B"/>
<path d="M60.7537 23.7582C59.6617 23.7582 58.7377 23.5528 57.9817 23.1422C57.235 22.7315 56.6657 22.1482 56.2737 21.3922C55.8817 20.6362 55.6857 19.7402 55.6857 18.7042C55.6857 17.9202 55.7977 17.2155 56.0217 16.5902C56.255 15.9648 56.5864 15.4328 57.0157 14.9942C57.4544 14.5462 57.9864 14.2055 58.6117 13.9722C59.237 13.7295 59.9464 13.6082 60.7397 13.6082C61.2624 13.6082 61.785 13.6735 62.3077 13.8042C62.8397 13.9255 63.339 14.1355 63.8057 14.4342C63.9644 14.5368 64.067 14.6628 64.1137 14.8122C64.1697 14.9615 64.179 15.1155 64.1417 15.2742C64.1044 15.4235 64.0344 15.5542 63.9317 15.6662C63.829 15.7782 63.6984 15.8482 63.5397 15.8762C63.3904 15.9042 63.2224 15.8668 63.0357 15.7642C62.681 15.5588 62.3217 15.4095 61.9577 15.3162C61.5937 15.2228 61.1877 15.1762 60.7397 15.1762C60.049 15.1762 59.4657 15.3162 58.9897 15.5962C58.5137 15.8668 58.1544 16.2635 57.9117 16.7862C57.6784 17.3088 57.5617 17.9482 57.5617 18.7042C57.5617 19.8522 57.837 20.7248 58.3877 21.3222C58.9384 21.9195 59.755 22.2182 60.8377 22.2182C61.211 22.2182 61.589 22.1808 61.9717 22.1062C62.3544 22.0315 62.7277 21.9288 63.0917 21.7982L62.7417 22.5962V19.6142H61.2017C60.9684 19.6142 60.7864 19.5535 60.6557 19.4322C60.5344 19.3108 60.4737 19.1475 60.4737 18.9422C60.4737 18.7275 60.5344 18.5642 60.6557 18.4522C60.7864 18.3402 60.9684 18.2842 61.2017 18.2842H63.5117C63.745 18.2842 63.9224 18.3495 64.0437 18.4802C64.1744 18.6015 64.2397 18.7788 64.2397 19.0122V22.4142C64.2397 22.6195 64.1977 22.7922 64.1137 22.9322C64.039 23.0722 63.913 23.1748 63.7357 23.2402C63.325 23.3895 62.8537 23.5155 62.3217 23.6182C61.7897 23.7115 61.267 23.7582 60.7537 23.7582ZM69.5223 23.7582C68.7476 23.7582 68.0803 23.6135 67.5203 23.3242C66.9603 23.0348 66.5263 22.6242 66.2183 22.0922C65.9196 21.5602 65.7703 20.9302 65.7703 20.2022C65.7703 19.4928 65.9149 18.8722 66.2043 18.3402C66.5029 17.8082 66.9089 17.3928 67.4223 17.0942C67.9449 16.7862 68.5376 16.6322 69.2003 16.6322C69.6856 16.6322 70.1196 16.7115 70.5023 16.8702C70.8943 17.0288 71.2256 17.2575 71.4963 17.5562C71.7763 17.8548 71.9863 18.2188 72.1263 18.6482C72.2756 19.0682 72.3503 19.5442 72.3503 20.0762C72.3503 20.2442 72.2896 20.3748 72.1683 20.4682C72.0563 20.5522 71.8929 20.5942 71.6783 20.5942H67.1843V19.5862H71.1183L70.8943 19.7962C70.8943 19.3668 70.8289 19.0075 70.6983 18.7182C70.5769 18.4288 70.3949 18.2095 70.1523 18.0602C69.9189 17.9015 69.6249 17.8222 69.2703 17.8222C68.8783 17.8222 68.5423 17.9155 68.2623 18.1022C67.9916 18.2795 67.7816 18.5362 67.6323 18.8722C67.4923 19.1988 67.4223 19.5908 67.4223 20.0482V20.1462C67.4223 20.9115 67.5996 21.4855 67.9543 21.8682C68.3183 22.2415 68.8503 22.4282 69.5503 22.4282C69.7929 22.4282 70.0636 22.4002 70.3623 22.3442C70.6703 22.2788 70.9596 22.1715 71.2303 22.0222C71.4263 21.9102 71.5989 21.8635 71.7483 21.8822C71.8976 21.8915 72.0143 21.9428 72.0983 22.0362C72.1916 22.1295 72.2476 22.2462 72.2663 22.3862C72.2849 22.5168 72.2569 22.6522 72.1823 22.7922C72.1169 22.9322 72.0003 23.0535 71.8323 23.1562C71.5056 23.3615 71.1276 23.5155 70.6983 23.6182C70.2783 23.7115 69.8863 23.7582 69.5223 23.7582ZM74.6042 23.7302C74.3242 23.7302 74.1095 23.6555 73.9602 23.5062C73.8108 23.3475 73.7362 23.1235 73.7362 22.8342V17.5422C73.7362 17.2528 73.8108 17.0335 73.9602 16.8842C74.1095 16.7348 74.3195 16.6602 74.5902 16.6602C74.8608 16.6602 75.0708 16.7348 75.2202 16.8842C75.3695 17.0335 75.4442 17.2528 75.4442 17.5422V18.4942L75.2902 18.1442C75.4955 17.6495 75.8128 17.2762 76.2422 17.0242C76.6808 16.7628 77.1755 16.6322 77.7262 16.6322C78.2768 16.6322 78.7295 16.7348 79.0842 16.9402C79.4388 17.1455 79.7048 17.4582 79.8822 17.8782C80.0595 18.2888 80.1482 18.8115 80.1482 19.4462V22.8342C80.1482 23.1235 80.0735 23.3475 79.9242 23.5062C79.7748 23.6555 79.5602 23.7302 79.2802 23.7302C79.0002 23.7302 78.7808 23.6555 78.6222 23.5062C78.4728 23.3475 78.3982 23.1235 78.3982 22.8342V19.5302C78.3982 18.9982 78.2955 18.6108 78.0902 18.3682C77.8942 18.1255 77.5862 18.0042 77.1662 18.0042C76.6528 18.0042 76.2422 18.1675 75.9342 18.4942C75.6355 18.8115 75.4862 19.2362 75.4862 19.7682V22.8342C75.4862 23.4315 75.1922 23.7302 74.6042 23.7302ZM85.2996 23.7582C84.525 23.7582 83.8576 23.6135 83.2976 23.3242C82.7376 23.0348 82.3036 22.6242 81.9956 22.0922C81.697 21.5602 81.5476 20.9302 81.5476 20.2022C81.5476 19.4928 81.6923 18.8722 81.9816 18.3402C82.2803 17.8082 82.6863 17.3928 83.1996 17.0942C83.7223 16.7862 84.315 16.6322 84.9776 16.6322C85.463 16.6322 85.897 16.7115 86.2796 16.8702C86.6716 17.0288 87.003 17.2575 87.2736 17.5562C87.5536 17.8548 87.7636 18.2188 87.9036 18.6482C88.053 19.0682 88.1276 19.5442 88.1276 20.0762C88.1276 20.2442 88.067 20.3748 87.9456 20.4682C87.8336 20.5522 87.6703 20.5942 87.4556 20.5942H82.9616V19.5862H86.8956L86.6716 19.7962C86.6716 19.3668 86.6063 19.0075 86.4756 18.7182C86.3543 18.4288 86.1723 18.2095 85.9296 18.0602C85.6963 17.9015 85.4023 17.8222 85.0476 17.8222C84.6556 17.8222 84.3196 17.9155 84.0396 18.1022C83.769 18.2795 83.559 18.5362 83.4096 18.8722C83.2696 19.1988 83.1996 19.5908 83.1996 20.0482V20.1462C83.1996 20.9115 83.377 21.4855 83.7316 21.8682C84.0956 22.2415 84.6276 22.4282 85.3276 22.4282C85.5703 22.4282 85.841 22.4002 86.1396 22.3442C86.4476 22.2788 86.737 22.1715 87.0076 22.0222C87.2036 21.9102 87.3763 21.8635 87.5256 21.8822C87.675 21.8915 87.7916 21.9428 87.8756 22.0362C87.969 22.1295 88.025 22.2462 88.0436 22.3862C88.0623 22.5168 88.0343 22.6522 87.9596 22.7922C87.8943 22.9322 87.7776 23.0535 87.6096 23.1562C87.283 23.3615 86.905 23.5155 86.4756 23.6182C86.0556 23.7115 85.6636 23.7582 85.2996 23.7582ZM90.4095 23.7302C90.1202 23.7302 89.8962 23.6555 89.7375 23.5062C89.5882 23.3475 89.5135 23.1235 89.5135 22.8342V17.5422C89.5135 17.2528 89.5882 17.0335 89.7375 16.8842C89.8869 16.7348 90.0969 16.6602 90.3675 16.6602C90.6382 16.6602 90.8482 16.7348 90.9975 16.8842C91.1469 17.0335 91.2215 17.2528 91.2215 17.5422V18.4242H91.0815C91.2122 17.8642 91.4689 17.4395 91.8515 17.1502C92.2342 16.8608 92.7429 16.6882 93.3775 16.6322C93.5735 16.6135 93.7275 16.6648 93.8395 16.7862C93.9609 16.8982 94.0309 17.0755 94.0495 17.3182C94.0682 17.5515 94.0122 17.7428 93.8815 17.8922C93.7602 18.0322 93.5735 18.1162 93.3215 18.1442L93.0135 18.1722C92.4442 18.2282 92.0149 18.4055 91.7255 18.7042C91.4362 18.9935 91.2915 19.4042 91.2915 19.9362V22.8342C91.2915 23.1235 91.2169 23.3475 91.0675 23.5062C90.9182 23.6555 90.6989 23.7302 90.4095 23.7302ZM97.1816 23.7582C96.6869 23.7582 96.2436 23.6648 95.8516 23.4782C95.4689 23.2822 95.1656 23.0208 94.9416 22.6942C94.7269 22.3675 94.6196 21.9988 94.6196 21.5882C94.6196 21.0842 94.7502 20.6875 95.0116 20.3982C95.2729 20.0995 95.6976 19.8848 96.2856 19.7542C96.8736 19.6235 97.6622 19.5582 98.6516 19.5582H99.3516V20.5662H98.6656C98.0869 20.5662 97.6249 20.5942 97.2796 20.6502C96.9342 20.7062 96.6869 20.8042 96.5376 20.9442C96.3976 21.0748 96.3276 21.2615 96.3276 21.5042C96.3276 21.8122 96.4349 22.0642 96.6496 22.2602C96.8642 22.4562 97.1629 22.5542 97.5456 22.5542C97.8536 22.5542 98.1242 22.4842 98.3576 22.3442C98.6002 22.1948 98.7916 21.9942 98.9316 21.7422C99.0716 21.4902 99.1416 21.2008 99.1416 20.8742V19.2642C99.1416 18.7975 99.0389 18.4615 98.8336 18.2562C98.6282 18.0508 98.2829 17.9482 97.7976 17.9482C97.5269 17.9482 97.2329 17.9808 96.9156 18.0462C96.6076 18.1115 96.2809 18.2235 95.9356 18.3822C95.7582 18.4662 95.5996 18.4895 95.4596 18.4522C95.3289 18.4148 95.2262 18.3402 95.1516 18.2282C95.0769 18.1068 95.0396 17.9762 95.0396 17.8362C95.0396 17.6962 95.0769 17.5608 95.1516 17.4302C95.2262 17.2902 95.3522 17.1875 95.5296 17.1222C95.9589 16.9448 96.3696 16.8188 96.7616 16.7442C97.1629 16.6695 97.5269 16.6322 97.8536 16.6322C98.5256 16.6322 99.0762 16.7348 99.5056 16.9402C99.9442 17.1455 100.271 17.4582 100.486 17.8782C100.7 18.2888 100.808 18.8208 100.808 19.4742V22.8342C100.808 23.1235 100.738 23.3475 100.598 23.5062C100.458 23.6555 100.257 23.7302 99.9956 23.7302C99.7342 23.7302 99.5289 23.6555 99.3796 23.5062C99.2396 23.3475 99.1696 23.1235 99.1696 22.8342V22.1622H99.2816C99.2162 22.4888 99.0856 22.7735 98.8896 23.0162C98.7029 23.2495 98.4649 23.4315 98.1756 23.5622C97.8862 23.6928 97.5549 23.7582 97.1816 23.7582ZM104.922 23.7582C104.147 23.7582 103.564 23.5388 103.172 23.1002C102.78 22.6522 102.584 21.9988 102.584 21.1402V14.5182C102.584 14.2288 102.658 14.0095 102.808 13.8602C102.957 13.7108 103.172 13.6362 103.452 13.6362C103.732 13.6362 103.946 13.7108 104.096 13.8602C104.254 14.0095 104.334 14.2288 104.334 14.5182V21.0562C104.334 21.4855 104.422 21.8028 104.6 22.0082C104.786 22.2135 105.048 22.3162 105.384 22.3162C105.458 22.3162 105.528 22.3162 105.594 22.3162C105.659 22.3068 105.724 22.2975 105.79 22.2882C105.92 22.2695 106.009 22.3068 106.056 22.4002C106.102 22.4842 106.126 22.6615 106.126 22.9322C106.126 23.1655 106.079 23.3475 105.986 23.4782C105.892 23.6088 105.738 23.6882 105.524 23.7162C105.43 23.7255 105.332 23.7348 105.23 23.7442C105.127 23.7535 105.024 23.7582 104.922 23.7582Z" fill="white"/>
</svg>
