<svg width="266" height="198" viewBox="0 0 266 198" fill="none" xmlns="http://www.w3.org/2000/svg">
<path d="M265.5 173.548H0.5V173.681H265.5V173.548Z" fill="#EBEBEB"/>
<path d="M39.546 178.594H28.3047V178.727H39.546V178.594Z" fill="#EBEBEB"/>
<path d="M136.239 177.158H91.2051V177.29H136.239V177.158Z" fill="#EBEBEB"/>
<path d="M56.5635 183.518H36.3652V183.65H56.5635V183.518Z" fill="#EBEBEB"/>
<path d="M238.947 182.627H216.057V182.76H238.947V182.627Z" fill="#EBEBEB"/>
<path d="M214.323 182.627H207.979V182.76H214.323V182.627Z" fill="#EBEBEB"/>
<path d="M197.071 180.385H184.881V180.518H197.071V180.385Z" fill="#EBEBEB"/>
<path d="M178.755 180.385H153.082V180.518H178.755V180.385Z" fill="#EBEBEB"/>
<path d="M126.116 149.911H23.7783C22.1088 149.911 20.752 148.554 20.752 146.884V3.0263C20.752 1.3568 22.1088 0 23.7783 0H126.121C127.791 0 129.148 1.3568 129.148 3.0263V146.884C129.142 148.554 127.785 149.911 126.116 149.911ZM23.7783 0.1325C22.183 0.1325 20.8845 1.431 20.8845 3.0263V146.884C20.8845 148.48 22.183 149.778 23.7783 149.778H126.121C127.717 149.778 129.015 148.48 129.015 146.884V3.0263C129.015 1.431 127.717 0.1325 126.121 0.1325H23.7783Z" fill="#EBEBEB"/>
<path d="M240.754 149.911H138.411C136.742 149.911 135.385 148.554 135.385 146.884V3.0263C135.385 1.3568 136.742 0 138.411 0H240.754C242.424 0 243.78 1.3568 243.78 3.0263V146.884C243.78 148.554 242.424 149.911 240.754 149.911ZM138.411 0.1325C136.816 0.1325 135.517 1.431 135.517 3.0263V146.884C135.517 148.48 136.816 149.778 138.411 149.778H240.754C242.349 149.778 243.648 148.48 243.648 146.884V3.0263C243.648 1.431 242.349 0.1325 240.754 0.1325H138.411Z" fill="#EBEBEB"/>
<path d="M40.2638 173.545H48.4258L48.4258 110.729H40.2638L40.2638 173.545Z" fill="#F0F0F0"/>
<path d="M119.866 110.733H48.4277V173.548H119.866V110.733Z" fill="#F5F5F5"/>
<path d="M120.513 134.435H57.793V168.031H120.513V134.435Z" fill="#FAFAFA"/>
<path d="M120.513 119.812H57.793V130.873H120.513V119.812Z" fill="#FAFAFA"/>
<path opacity="0.7" d="M57.2292 168.033H57.791L57.791 134.436H57.2292L57.2292 168.033Z" fill="#E6E6E6"/>
<path opacity="0.7" d="M57.2292 130.869H57.791V119.808H57.2292V130.869Z" fill="#E6E6E6"/>
<path opacity="0.7" d="M40.2621 114.801L120.043 114.801V113.381L40.2621 113.381V114.801Z" fill="#E6E6E6"/>
<path d="M39.3098 113.977H48.4258V109.87H39.3098V113.977Z" fill="#F0F0F0"/>
<path d="M120.82 109.874H48.4277V113.982H120.82V109.874Z" fill="#F5F5F5"/>
<path d="M69.849 97.8115C69.3773 97.1914 69.1547 96.3911 69.0805 95.6014C69.0116 94.8064 69.0805 93.9902 69.2872 93.2164C69.69 91.6635 70.4744 90.2325 71.4602 89.0294C71.9478 88.4146 72.499 87.8687 73.0449 87.3281C73.3364 87.079 73.6279 86.8246 73.9247 86.5861C74.2215 86.3423 74.513 86.0932 74.8363 85.8865C75.4776 85.4678 76.103 85.0279 76.7814 84.6781C77.4704 84.3442 78.1488 84.005 78.8643 83.74C78.3661 84.3336 77.8255 84.853 77.2955 85.3777C76.7602 85.8971 76.2673 86.443 75.732 86.9465C75.2073 87.4553 74.7356 88.0065 74.2268 88.5153C73.983 88.7803 73.7604 89.0559 73.5219 89.3262C73.2887 89.5965 73.029 89.8509 72.8329 90.1424C71.9319 91.2395 71.1687 92.4108 70.591 93.6669C70.2942 94.2976 70.0875 94.9601 69.9338 95.6491C69.7801 96.3328 69.743 97.0536 69.849 97.8115Z" fill="#E6E6E6"/>
<path d="M57.4635 95.5908C57.6967 94.9177 57.8186 94.2604 57.808 93.6244C57.8292 93.3064 57.7656 92.999 57.7391 92.6969C57.6543 92.4001 57.6119 92.1033 57.49 91.8277C57.0607 90.7094 56.2922 89.7502 55.3753 88.8757C55.1527 88.6531 54.8877 88.4622 54.6439 88.2502C54.4001 88.0382 54.1669 87.821 53.8913 87.6408C53.3507 87.2698 52.8578 86.8298 52.2801 86.4853C51.9992 86.2998 51.7236 86.1144 51.4427 85.9183C51.1671 85.7222 50.8915 85.5208 50.5947 85.3459C50.0223 84.9696 49.4446 84.5933 48.8828 84.1375C49.5824 84.2276 50.2661 84.3918 50.9551 84.5561C51.2996 84.6356 51.6335 84.7469 51.9621 84.8794C52.2907 85.0013 52.6193 85.1339 52.9479 85.2717L53.4408 85.4784C53.5998 85.5526 53.7535 85.6479 53.9125 85.7327C54.2252 85.9023 54.5326 86.0879 54.8453 86.2681C55.1633 86.4377 55.4442 86.6761 55.7357 86.8934C56.0166 87.1266 56.3134 87.3334 56.5837 87.5931C57.649 88.6001 58.5659 89.941 58.8309 91.4939C58.8839 91.6794 58.8786 91.8807 58.8839 92.0768C58.8892 92.2729 58.8998 92.4638 58.8892 92.6546C58.8309 93.0415 58.7938 93.4177 58.656 93.7728C58.4069 94.4883 58.02 95.135 57.4635 95.5908Z" fill="#E6E6E6"/>
<path d="M58.0315 95.5908C58.323 94.1068 58.3495 92.6758 58.1322 91.319C57.9255 89.9622 57.4485 88.6955 56.7913 87.5136L56.2666 86.6391C56.0705 86.3582 55.8479 86.0932 55.6465 85.8123L55.3391 85.3883L54.984 85.0014C54.7455 84.7417 54.5176 84.4767 54.2844 84.2064C53.7862 83.7029 53.2615 83.2047 52.758 82.6747C52.2121 82.1871 51.6609 81.6995 51.1309 81.1377C51.8517 81.3603 52.546 81.6624 53.2509 81.9645C53.9134 82.3302 54.5706 82.7277 55.2013 83.1676C55.4981 83.4114 55.7949 83.6605 56.0917 83.9149L56.5316 84.3018L56.9238 84.7417C57.1835 85.0385 57.4432 85.3353 57.687 85.6427L58.323 86.6497C59.1021 88.0383 59.5473 89.6495 59.5049 91.2448C59.4731 92.8242 58.9961 94.3983 58.0315 95.5908Z" fill="#E6E6E6"/>
<path d="M69.1721 96.3752C68.0803 95.0661 67.2429 93.5927 66.5062 92.0769C65.7854 90.5505 65.2024 88.9552 64.7625 87.3175C64.3438 85.6745 64.0841 83.9785 64.0258 82.2719C64.0152 80.56 64.206 78.8322 64.7943 77.2369C64.9427 78.9329 65.1282 80.5388 65.4038 82.1394C65.7112 83.7347 66.0663 85.3088 66.4638 86.8776C66.8772 88.4464 67.3277 90.0099 67.7888 91.5893C68.2552 93.1581 68.7375 94.7322 69.1721 96.3752Z" fill="#E6E6E6"/>
<path d="M68.6209 96.1102C67.3277 94.9124 66.2518 93.5291 65.2607 92.0928C64.2855 90.6459 63.4163 89.1248 62.6796 87.5348C61.9535 85.9395 61.3546 84.2806 60.9465 82.5634C60.5702 80.8409 60.3635 79.0601 60.5649 77.3111C61.1002 78.9912 61.6514 80.5812 62.2662 82.15C62.8969 83.7188 63.5806 85.2558 64.2749 86.7928C64.9851 88.3298 65.7165 89.8562 66.4532 91.3985C67.1899 92.9514 67.9372 94.4937 68.6209 96.1102Z" fill="#E6E6E6"/>
<path d="M70.7774 98.1295C69.251 97.2497 67.8942 96.142 66.6063 94.9654C65.329 93.7729 64.1471 92.485 63.0712 91.1017C62.0112 89.7078 61.0519 88.2238 60.2728 86.6444C59.5202 85.0491 58.9213 83.3584 58.7305 81.6094C59.6262 83.1305 60.5166 84.5509 61.4706 85.9501C62.4352 87.3387 63.4475 88.6849 64.4651 90.0311C65.4986 91.3667 66.5533 92.6917 67.6133 94.0326C68.6786 95.3682 69.7492 96.7038 70.7774 98.1295Z" fill="#E6E6E6"/>
<path d="M67.5335 95.8187C66.0601 95.1191 64.751 94.1545 63.5267 93.1051C62.3077 92.0451 61.2 90.8526 60.2089 89.57C59.2178 88.2821 58.3857 86.867 57.7126 85.383C57.0607 83.8884 56.6261 82.2825 56.5254 80.666C57.3363 82.0811 58.0783 83.4326 58.9316 84.7311C59.7902 86.019 60.6647 87.2804 61.6081 88.5047C62.5515 89.729 63.5161 90.9374 64.5125 92.1458C65.5089 93.3489 66.5265 94.552 67.5335 95.8187Z" fill="#E6E6E6"/>
<path d="M70.1255 97.2974C68.933 96.5342 68.1805 95.1244 67.942 93.6563C67.7088 92.1723 68.0268 90.6406 68.631 89.3315L68.8536 88.8333L69.1239 88.3669L69.691 87.4553C69.9083 87.1744 70.1309 86.8988 70.3588 86.6285C70.592 86.3635 70.7987 86.0773 71.0637 85.8441C71.5831 85.3724 72.0813 84.8848 72.6484 84.4767C73.2314 84.0898 73.8038 83.6976 74.4186 83.3796C74.0635 83.9944 73.6607 84.5403 73.2685 85.0862C72.8763 85.6321 72.5265 86.1992 72.1396 86.7239C71.7739 87.2698 71.4559 87.8263 71.1008 88.3616L70.6555 89.2043L70.4277 89.6177L70.2475 90.047C69.7228 91.1759 69.373 92.3525 69.3253 93.5715C69.2829 94.7799 69.5001 96.0519 70.1255 97.2974Z" fill="#E6E6E6"/>
<path d="M69.1454 95.6014C68.0748 94.5997 67.3328 93.2694 66.8982 91.8278C66.4689 90.3862 66.4159 88.775 66.8346 87.2645C67.0413 86.5119 67.3487 85.7858 67.7674 85.1339C68.1755 84.4767 68.6631 83.8831 69.2196 83.3743C70.322 82.3461 71.6205 81.5988 73.0197 81.1907C71.9968 82.2295 71.0322 83.2259 70.2531 84.3018C69.8556 84.8371 69.5111 85.3883 69.2249 85.9607C68.9281 86.5278 68.7002 87.1214 68.5412 87.7309C68.2073 88.9446 68.1278 90.2378 68.2603 91.5575C68.3875 92.8825 68.7002 94.2234 69.1454 95.6014Z" fill="#E6E6E6"/>
<path d="M66.5523 94.3506L58.2578 86.39L58.5917 94.1969L66.5523 94.3506Z" fill="#E6E6E6"/>
<path d="M75.6161 93.5026H53.584L56.4672 109.874H72.7329L75.6161 93.5026Z" fill="#F5F5F5"/>
<path d="M61.852 93.5026H53.584L56.4672 109.874H60.8132L61.852 93.5026Z" fill="#EBEBEB"/>
<path d="M98.4704 11.5911H53.998V67.4955H98.4704V11.5911Z" fill="#F0F0F0"/>
<path d="M108.292 11.5911H55.7051V67.4955H108.292V11.5911Z" fill="#F5F5F5"/>
<path d="M60.1113 15.9965V63.0923H103.889V15.9965H60.1113Z" fill="white"/>
<path d="M231.282 173.549H163.628L157.623 61.6867H225.278L231.282 173.549Z" fill="#EBEBEB"/>
<path d="M233.349 173.549H165.694L159.689 61.6867H227.344L233.349 173.549Z" fill="#F5F5F5"/>
<path d="M199.419 162.005H193.377L193.621 73.2249H199.663L199.419 162.005Z" fill="white"/>
<path d="M215.399 162.005H209.357L209.607 73.2249H215.643L215.399 162.005Z" fill="white"/>
<path d="M183.435 162.005H177.393L177.642 73.2249H183.684L183.435 162.005Z" fill="white"/>
<path d="M133 197.483C189.754 197.483 235.762 194.797 235.762 191.484C235.762 188.17 189.754 185.484 133 185.484C76.2463 185.484 30.2383 188.17 30.2383 191.484C30.2383 194.797 76.2463 197.483 133 197.483Z" fill="#F5F5F5"/>
<path d="M205.477 126.734L204.793 139.213L205.322 139.242L206.006 126.763L205.477 126.734Z" fill="#007BFF"/>
<path d="M206.059 116.148L205.707 122.578L206.236 122.607L206.588 116.177L206.059 116.148Z" fill="#007BFF"/>
<path d="M194.903 163.012H132.777C128.78 163.012 125.696 159.742 125.913 155.751L133.068 25.3075C133.285 21.3113 136.736 18.0465 140.727 18.0465H202.853C206.849 18.0465 209.934 21.3166 209.717 25.3075L202.562 155.751C202.344 159.742 198.899 163.012 194.903 163.012Z" fill="#007BFF"/>
<path opacity="0.8" d="M191.146 163.012H132.777C128.78 163.012 125.696 159.742 125.913 155.751L133.068 25.3075C133.285 21.3113 136.736 18.0465 140.727 18.0465H199.101C203.097 18.0465 206.182 21.3166 205.964 25.3075L198.809 155.751C198.587 159.742 195.142 163.012 191.146 163.012Z" fill="white"/>
<path d="M162.218 41.6898H145.454C143.769 41.6898 142.465 40.3118 142.555 38.6211C142.645 36.9357 144.103 35.5524 145.788 35.5524H162.552C164.237 35.5524 165.541 36.9304 165.451 38.6211C165.361 40.3118 163.904 41.6898 162.218 41.6898Z" fill="white"/>
<path d="M165.451 38.6264C165.282 41.6739 162.68 44.1437 159.632 44.1437C156.585 44.1437 154.247 41.6739 154.417 38.6264C154.586 35.5789 157.189 33.1091 160.236 33.1091C163.284 33.1091 165.621 35.5789 165.451 38.6264Z" fill="#007BFF"/>
<path d="M161.142 61.3051H144.378C142.693 61.3051 141.389 59.9271 141.479 58.2364C141.569 56.551 143.027 55.1677 144.712 55.1677H161.476C163.161 55.1677 164.465 56.5457 164.375 58.2364C164.285 59.9271 162.827 61.3051 161.142 61.3051Z" fill="white"/>
<path d="M155.191 62.0937C157.435 59.9097 157.579 56.4165 155.511 54.2914C153.444 52.1663 149.948 52.214 147.703 54.3979C145.458 56.5819 145.315 60.0751 147.382 62.2002C149.45 64.3253 152.946 64.2776 155.191 62.0937Z" fill="#007BFF"/>
<path opacity="0.3" d="M155.191 62.0937C157.435 59.9097 157.579 56.4165 155.511 54.2914C153.444 52.1663 149.948 52.214 147.703 54.3979C145.458 56.5819 145.315 60.0751 147.382 62.2002C149.45 64.3253 152.946 64.2776 155.191 62.0937Z" fill="#FAFAFA"/>
<path d="M142.226 100.536H158.99C160.675 100.536 162.133 99.1577 162.223 97.467C162.313 95.7816 161.009 94.3983 159.324 94.3983H142.56C140.874 94.3983 139.417 95.7763 139.327 97.467C139.237 99.1577 140.54 100.536 142.226 100.536Z" fill="white"/>
<path d="M148.597 101.325C150.842 99.1414 150.986 95.648 148.919 93.5225C146.851 91.3971 143.355 91.4446 141.11 93.6285C138.865 95.8125 138.721 99.3059 140.789 101.431C142.856 103.557 146.352 103.509 148.597 101.325Z" fill="#007BFF"/>
<path opacity="0.7" d="M148.597 101.325C150.842 99.1414 150.986 95.648 148.919 93.5225C146.851 91.3971 143.355 91.4446 141.11 93.6285C138.865 95.8125 138.721 99.3059 140.789 101.431C142.856 103.557 146.352 103.509 148.597 101.325Z" fill="#FAFAFA"/>
<path d="M157.915 120.151H141.152C139.466 120.151 138.162 118.773 138.252 117.082C138.343 115.397 139.8 114.014 141.485 114.014H158.249C159.935 114.014 161.239 115.392 161.148 117.082C161.058 118.773 159.601 120.151 157.915 120.151Z" fill="white"/>
<path d="M161.147 117.088C160.977 120.135 158.375 122.605 155.327 122.605C152.28 122.605 149.943 120.135 150.112 117.088C150.282 114.04 152.884 111.57 155.937 111.57C158.979 111.565 161.316 114.04 161.147 117.088Z" fill="#007BFF"/>
<path d="M143.302 80.9204H160.066C161.751 80.9204 163.209 79.5424 163.299 77.8517C163.389 76.1663 162.085 74.783 160.4 74.783H143.636C141.95 74.783 140.493 76.161 140.403 77.8517C140.313 79.5424 141.617 80.9204 143.302 80.9204Z" fill="white"/>
<path d="M140.409 77.857C140.239 80.9045 142.577 83.3743 145.624 83.3743C148.672 83.3743 151.279 80.9045 151.449 77.857C151.619 74.8095 149.281 72.3397 146.234 72.3397C143.181 72.3344 140.573 74.8095 140.409 77.857Z" fill="#007BFF"/>
<path opacity="0.7" d="M140.409 77.857C140.239 80.9045 142.577 83.3743 145.624 83.3743C148.672 83.3743 151.279 80.9045 151.449 77.857C151.619 74.8095 149.281 72.3397 146.234 72.3397C143.181 72.3344 140.573 74.8095 140.409 77.857Z" fill="#FAFAFA"/>
<path d="M198.937 37.7043H174.09C173.417 37.7043 172.892 37.1531 172.93 36.48C172.967 35.8069 173.55 35.2557 174.223 35.2557H199.069C199.742 35.2557 200.267 35.8069 200.23 36.48C200.193 37.1531 199.615 37.7043 198.937 37.7043Z" fill="white"/>
<path d="M190.659 41.9972H173.858C173.185 41.9972 172.66 41.446 172.697 40.7729C172.734 40.0998 173.317 39.5486 173.99 39.5486H190.791C191.464 39.5486 191.989 40.0998 191.952 40.7729C191.92 41.446 191.337 41.9972 190.659 41.9972Z" fill="white"/>
<path d="M191.495 116.165H169.791C169.118 116.165 168.594 115.614 168.631 114.941C168.668 114.268 169.251 113.717 169.924 113.717H191.627C192.301 113.717 192.825 114.268 192.788 114.941C192.751 115.614 192.168 116.165 191.495 116.165Z" fill="white"/>
<path d="M180.28 120.458H169.553C168.88 120.458 168.355 119.907 168.392 119.234C168.43 118.561 169.013 118.01 169.686 118.01H180.413C181.086 118.01 181.611 118.561 181.574 119.234C181.536 119.907 180.953 120.458 180.28 120.458Z" fill="white"/>
<path d="M197.761 59.1586H172.914C172.241 59.1586 171.658 59.7098 171.621 60.3829C171.584 61.056 172.103 61.6072 172.782 61.6072H197.628C198.301 61.6072 198.884 61.056 198.921 60.3829C198.958 59.7151 198.434 59.1586 197.761 59.1586Z" fill="white"/>
<path d="M189.953 54.8657H173.152C172.479 54.8657 171.896 55.4169 171.859 56.09C171.822 56.7631 172.342 57.3143 173.02 57.3143H189.821C190.494 57.3143 191.077 56.7631 191.114 56.09C191.151 55.4222 190.632 54.8657 189.953 54.8657Z" fill="white"/>
<path d="M184.685 76.9348H171.944C171.271 76.9348 170.746 76.3836 170.783 75.7105C170.82 75.0374 171.403 74.4862 172.076 74.4862H184.817C185.491 74.4862 186.015 75.0374 185.978 75.7105C185.941 76.3836 185.358 76.9348 184.685 76.9348Z" fill="white"/>
<path d="M196.785 76.9348H189.28C188.607 76.9348 188.082 76.3836 188.119 75.7105C188.156 75.0374 188.739 74.4862 189.412 74.4862H196.917C197.59 74.4862 198.115 75.0374 198.078 75.7105C198.041 76.3836 197.458 76.9348 196.785 76.9348Z" fill="white"/>
<path d="M188.507 81.2278H171.706C171.032 81.2278 170.508 80.6766 170.545 80.0035C170.582 79.3304 171.165 78.7792 171.838 78.7792H188.639C189.312 78.7792 189.837 79.3304 189.8 80.0035C189.768 80.6766 189.185 81.2278 188.507 81.2278Z" fill="white"/>
<path d="M167.449 137.662H138.839C137.896 137.662 137.165 136.888 137.218 135.945C137.271 135.002 138.081 134.228 139.025 134.228H167.634C168.578 134.228 169.309 135.002 169.256 135.945C169.203 136.894 168.392 137.662 167.449 137.662Z" fill="white"/>
<path d="M192.964 137.662H175.4C174.456 137.662 173.725 136.888 173.778 135.945C173.831 135.002 174.642 134.228 175.585 134.228H193.15C194.093 134.228 194.824 135.002 194.771 135.945C194.724 136.894 193.908 137.662 192.964 137.662Z" fill="white"/>
<path d="M160.294 143.667H138.511C137.568 143.667 136.836 142.893 136.889 141.95C136.942 141.007 137.753 140.233 138.697 140.233H160.48C161.423 140.233 162.155 141.007 162.102 141.95C162.049 142.899 161.238 143.667 160.294 143.667Z" fill="white"/>
<path d="M183.949 149.672H138.183C137.24 149.672 136.508 148.898 136.561 147.955C136.614 147.011 137.425 146.238 138.369 146.238H184.134C185.078 146.238 185.809 147.011 185.756 147.955C185.703 148.903 184.892 149.672 183.949 149.672Z" fill="white"/>
<path d="M178.118 98.3892H170.762C170.089 98.3892 169.506 98.9404 169.469 99.6135C169.432 100.287 169.951 100.838 170.629 100.838H177.986C178.659 100.838 179.242 100.287 179.279 99.6135C179.316 98.9457 178.791 98.3892 178.118 98.3892Z" fill="white"/>
<path d="M191.241 98.3892H182.713C182.04 98.3892 181.457 98.9404 181.42 99.6135C181.383 100.287 181.902 100.838 182.581 100.838H191.108C191.781 100.838 192.364 100.287 192.401 99.6135C192.439 98.9457 191.919 98.3892 191.241 98.3892Z" fill="white"/>
<path d="M187.801 94.0962H171C170.327 94.0962 169.744 94.6474 169.707 95.3205C169.67 95.9936 170.189 96.5448 170.868 96.5448H187.669C188.342 96.5448 188.925 95.9936 188.962 95.3205C188.999 94.6527 188.474 94.0962 187.801 94.0962Z" fill="white"/>
<path d="M94.8254 62.6301C93.0923 64.0717 91.3062 65.6299 89.6579 67.1987C88.8311 67.9884 88.0202 68.794 87.2782 69.6155C86.5415 70.437 85.8207 71.2744 85.296 72.1012L85.1953 72.2496L85.1423 72.3344C85.1052 72.3768 85.0734 72.4775 85.031 72.5464C84.9568 72.7107 84.8879 72.9174 84.8137 73.1347C84.6759 73.5746 84.5699 74.0834 84.4851 74.6081C84.3208 75.6628 84.2148 76.797 84.1618 77.9418C84.0505 80.2367 84.0505 82.6217 84.0929 84.959L81.6125 85.33C80.9924 82.9185 80.5631 80.5229 80.3405 78.0213C80.2451 76.7705 80.1709 75.5038 80.2504 74.1735C80.2928 73.5057 80.3564 72.822 80.4995 72.0959C80.5684 71.7302 80.6691 71.3592 80.8016 70.9617C80.8811 70.7603 80.9341 70.5695 81.0454 70.3522L81.1938 70.0342C81.2415 69.9335 81.2839 69.8752 81.3263 69.7957C81.9994 68.5396 82.7785 67.4955 83.5841 66.4832C84.3897 65.4709 85.2377 64.5434 86.1122 63.6424C87.8718 61.8351 89.6844 60.2186 91.6878 58.6551L94.8254 62.6301Z" fill="#B55B52"/>
<path d="M93.9129 56.2754C91.1993 57.8866 87.0918 61.9994 87.0918 61.9994L92.1268 68.0361C92.1268 68.0361 99.2659 63.759 100.13 61.3952C101.587 57.4308 96.4781 54.7596 93.9129 56.2754Z" fill="#007BFF"/>
<path d="M83.9973 84.0633L84.6121 87.6567L81.2784 87.1744C81.2784 87.1744 80.5947 84.7364 82.3172 83.8937L83.9973 84.0633Z" fill="#B55B52"/>
<path d="M83.3826 89.8403L80.3828 88.9075L81.2785 87.1744L84.6122 87.6567L83.3826 89.8403Z" fill="#B55B52"/>
<path d="M114.09 43.6031C114.095 43.9688 114.297 44.2656 114.535 44.2709C114.774 44.2762 114.97 43.9794 114.964 43.619C114.959 43.2533 114.758 42.9565 114.519 42.9512C114.275 42.9459 114.085 43.2374 114.09 43.6031Z" fill="#263238"/>
<path d="M114.408 42.9671L115.288 42.7286C115.293 42.7286 114.848 43.407 114.408 42.9671Z" fill="#263238"/>
<path d="M114.402 43.9635C114.402 43.9635 115.049 45.5429 115.749 46.3114C115.266 46.7566 114.439 46.5393 114.439 46.5393L114.402 43.9635Z" fill="#A02724"/>
<path d="M114.55 41.1757C114.518 41.181 114.481 41.181 114.444 41.1704C113.527 40.8736 112.897 41.3347 112.87 41.3559C112.775 41.4301 112.642 41.4089 112.568 41.3135C112.494 41.2181 112.515 41.0856 112.61 41.0114C112.642 40.9849 113.443 40.3913 114.582 40.7623C114.693 40.7994 114.757 40.9213 114.72 41.0326C114.693 41.1121 114.624 41.1651 114.55 41.1757Z" fill="#263238"/>
<path d="M103.288 47.4933C103.532 50.2334 102.615 54.7225 100.543 56.2489C100.543 56.2489 102.101 59.1321 107.099 59.7999C112.59 60.5366 110.009 57.4467 110.009 57.4467C107.088 56.3337 107.401 54.1342 108.143 52.1361L103.288 47.4933Z" fill="#B55B52"/>
<path d="M113.045 59.5773C115.658 60.2928 118.404 60.9765 121.096 61.5807C122.453 61.8775 123.81 62.1425 125.166 62.4022C126.523 62.6407 127.885 62.8792 129.237 63.0541L129.746 63.123L130.09 63.1601C130.334 63.1707 130.604 63.1707 130.89 63.1495C131.463 63.1177 132.088 63.0276 132.719 62.9004C133.986 62.646 135.3 62.2962 136.604 61.8828C139.217 61.0613 141.872 60.0808 144.458 59.0632L145.635 61.2733C143.181 62.8686 140.658 64.2678 137.966 65.4762C136.614 66.0645 135.231 66.6263 133.737 67.0556C132.989 67.2729 132.221 67.4637 131.378 67.5856C130.959 67.6439 130.514 67.681 130.053 67.6969C129.82 67.6969 129.555 67.6916 129.338 67.681L128.786 67.6439C125.84 67.4531 122.946 67.0397 120.089 66.4885C117.222 65.9426 114.434 65.296 111.588 64.4321L113.045 59.5773Z" fill="#B55B52"/>
<path d="M143.797 59.9695L144.565 57.3619L147.39 58.4219C147.39 58.4219 146.744 62.3333 144.322 61.2521L143.797 59.9695Z" fill="#B55B52"/>
<path d="M146.202 55.6394L149.085 55.9627L147.389 58.4272L144.564 57.3619L146.202 55.6394Z" fill="#B55B52"/>
<path d="M95.1797 186.518L99.7218 186.852L101.073 176.421L96.5312 176.087L95.1797 186.518Z" fill="#B55B52"/>
<path d="M61.6836 166.298L64.7682 169.722L73.386 163.765L70.3014 160.341L61.6836 166.298Z" fill="#B55B52"/>
<path d="M67.0518 171.662C66.9988 171.662 66.9405 171.651 66.8875 171.635C66.3363 171.455 65.96 170.437 65.7851 169.844C65.7745 169.801 65.7851 169.759 65.8222 169.732C65.854 169.706 65.9017 169.701 65.9388 169.722C66.1031 169.812 67.5659 170.602 67.6136 171.185C67.6242 171.312 67.5712 171.428 67.4599 171.513C67.3274 171.609 67.1896 171.662 67.0518 171.662ZM66.0713 170.035C66.331 170.819 66.6543 171.333 66.9511 171.428C67.073 171.466 67.1949 171.439 67.3221 171.338C67.391 171.285 67.3963 171.232 67.3963 171.195C67.3751 170.888 66.649 170.368 66.0713 170.035Z" fill="#007BFF"/>
<path d="M67.2282 170.241C66.7194 170.231 66.1098 170.066 65.8342 169.897C65.8024 169.876 65.7812 169.844 65.7812 169.801C65.7812 169.764 65.8024 169.727 65.8342 169.711C65.8819 169.685 67.0003 169.065 67.6204 169.277C67.79 169.335 67.9119 169.446 67.9808 169.611C68.0868 169.865 67.9754 170.013 67.9012 170.077C67.7634 170.204 67.5091 170.247 67.2282 170.241ZM66.1258 169.807C66.6346 170.024 67.525 170.125 67.7635 169.918C67.8006 169.886 67.8429 169.828 67.7846 169.695C67.7422 169.589 67.6627 169.52 67.5567 169.483C67.1804 169.356 66.5074 169.621 66.1258 169.807Z" fill="#007BFF"/>
<path d="M66.1515 169.218L63.6075 164.703C63.5174 164.539 63.3266 164.47 63.1623 164.533L59.4046 165.975C59.0124 166.123 58.8534 166.637 59.076 167.008C59.9876 168.567 60.507 169.277 61.6253 171.259C62.3143 172.478 63.3743 175.144 64.1905 176.898C64.9855 178.615 66.7345 177.963 66.549 177.163C65.7116 173.564 66.0296 171.572 66.2946 170.019C66.337 169.743 66.2893 169.457 66.1515 169.218Z" fill="#263238"/>
<path d="M101.699 187C101.201 187 100.655 186.915 100.273 186.836C100.231 186.825 100.194 186.788 100.188 186.745C100.183 186.698 100.204 186.655 100.247 186.634C100.453 186.528 102.298 185.601 102.844 185.908C102.95 185.966 103.008 186.067 103.018 186.194C103.034 186.406 102.96 186.586 102.812 186.719C102.563 186.931 102.149 187 101.699 187ZM100.628 186.687C101.63 186.851 102.377 186.809 102.658 186.56C102.759 186.47 102.801 186.359 102.791 186.21C102.785 186.157 102.769 186.12 102.727 186.099C102.43 185.929 101.386 186.327 100.628 186.687Z" fill="#007BFF"/>
<path d="M100.289 186.841C100.267 186.841 100.246 186.836 100.225 186.82C100.193 186.798 100.177 186.761 100.183 186.719C100.193 186.639 100.4 184.779 101.418 184.779C101.444 184.779 101.476 184.779 101.508 184.784C101.804 184.816 101.884 184.965 101.905 185.081C101.99 185.595 100.888 186.581 100.336 186.825C100.32 186.836 100.305 186.841 100.289 186.841ZM101.423 184.996C100.766 184.996 100.511 186.078 100.426 186.539C100.994 186.2 101.741 185.426 101.693 185.118C101.688 185.092 101.677 185.018 101.486 185.002C101.465 184.996 101.444 184.996 101.423 184.996Z" fill="#007BFF"/>
<path d="M100.007 186.205H94.9032C94.7177 186.205 94.564 186.332 94.5322 186.518L93.8485 190.556C93.7796 190.975 94.1294 191.372 94.5587 191.367C96.3395 191.335 97.1981 191.229 99.4453 191.229C100.829 191.229 103.68 191.372 105.588 191.372C107.454 191.372 107.644 189.486 106.855 189.316C103.314 188.547 101.936 187.493 100.765 186.486C100.548 186.306 100.277 186.205 100.007 186.205Z" fill="#263238"/>
<path opacity="0.2" d="M101.074 176.421L100.321 182.219L95.832 181.472L96.5263 176.087L101.074 176.421Z" fill="black"/>
<path opacity="0.2" d="M70.2959 160.341L73.3805 163.765L69.8189 166.229L66.623 162.88L70.2959 160.341Z" fill="black"/>
<path d="M92.8897 83.6234C96.446 84.1004 103.988 85.1127 111.286 86.0932C118.415 60.2875 116.31 59.5879 116.31 59.5879C116.31 59.5879 114.429 58.6763 112.07 57.9078C111.98 57.876 111.896 57.8548 111.816 57.8283C110.629 57.4732 110.38 57.4202 108.795 57.0598C106.081 56.5828 103.553 56.2118 100.442 55.9415C100.241 55.9256 100.045 55.9044 99.8486 55.8938C99.2868 55.8567 98.7303 55.8302 98.1897 55.809C97.824 55.7878 97.4636 55.7878 97.1191 55.7825C96.711 55.7825 96.3135 55.7825 95.9425 55.7878C95.7305 55.7878 95.5238 55.7931 95.3277 55.7984C93.8278 55.8249 92.683 57.1499 92.8526 58.6392C94.4214 72.2125 93.9232 76.6751 92.8897 83.6234Z" fill="#007BFF"/>
<path opacity="0.2" d="M111.816 65.4285C111.944 66.6263 114.71 68.8152 115.664 68.2216C115.945 66.7906 116.141 65.5928 116.284 64.5964C114.885 64.4957 112.166 62.964 111.816 65.4285Z" fill="black"/>
<path d="M108.816 59.4077C108.683 55.1836 118.96 59.837 121.318 60.8917L118.711 67.9831C118.711 67.9831 115.271 67.8612 113.082 66.5998C110.793 65.2801 108.911 62.4764 108.816 59.4077Z" fill="#007BFF"/>
<path d="M101.741 42.4318C102.08 46.9156 102.128 48.8183 104.444 51.145C107.932 54.6483 113.412 53.4081 114.429 48.9561C115.346 44.944 114.636 38.2872 110.179 36.4428C105.796 34.6249 101.402 37.948 101.741 42.4318Z" fill="#B55B52"/>
<path d="M102.122 37.6936C97.6171 36.57 97.4793 40.3701 97.5694 42.3364C97.6648 44.308 94.3523 45.2832 94.3523 47.7795C94.3523 51.0337 96.8062 52.9735 90.8384 53.9593C85.7822 54.7914 84.2293 61.1037 91.7023 64.7978C99.9756 68.8841 112.457 63.1336 110.936 57.6693C108.593 49.237 112.786 49.2635 112.314 44.5571C111.969 41.1333 115.213 40.9637 114.047 38.107C112.526 34.3599 101.725 31.0739 102.122 37.6936Z" fill="#263238"/>
<path d="M96.9084 44.0112C96.2883 40.7517 96.6275 38.584 97.9154 37.5717C99.5743 36.2679 102.124 37.3968 102.235 37.4498L102.018 37.9321C101.996 37.9215 99.6485 36.8827 98.244 37.9904C97.1257 38.8702 96.8501 40.863 97.4331 43.9105L96.9084 44.0112Z" fill="#263238"/>
<path d="M91.8139 53.037C90.1603 53.037 88.5226 52.3957 88.4219 52.3533L88.618 51.8604C88.6551 51.8763 92.2273 53.2755 93.8756 51.9081C94.6812 51.2403 94.9091 49.9842 94.5593 48.1822L95.0787 48.0815C95.4709 50.0902 95.1794 51.5159 94.2148 52.3162C93.5576 52.8568 92.6831 53.037 91.8139 53.037Z" fill="#263238"/>
<path d="M111.105 44.2338C111.031 45.05 111.317 45.9404 111.726 46.6082C112.34 47.6099 113.172 47.4244 113.443 46.5764C113.687 45.8132 113.66 44.3716 112.833 43.6402C112.017 42.9194 111.19 43.301 111.105 44.2338Z" fill="#B55B52"/>
<path d="M106.431 85.4414C106.431 85.4414 99.2865 115.635 95.9475 132.977C92.423 151.278 71.5675 166.203 71.5675 166.203L66.9883 161.491C66.9883 161.491 80.4185 149.736 83.8688 132.648C90.8701 97.9653 86.1319 90.9799 92.8894 83.6182L106.431 85.4414Z" fill="#263238"/>
<path d="M71.9609 166.886L66.2422 161.003L67.8481 159.276L74.489 165.122L71.9609 166.886Z" fill="#007BFF"/>
<path opacity="0.2" d="M102.636 92.0027C97.0815 96.8257 97.6804 113.934 98.2634 121.646C100.595 110.68 103.394 98.474 105.037 91.4091C104.448 90.9692 103.653 91.1176 102.636 92.0027Z" fill="black"/>
<path d="M111.016 86.109C111.016 86.109 114.228 121.953 112.479 135.627C110.655 149.847 101.375 180.788 101.375 180.788L94.8242 179.94C94.8242 179.94 100.145 149.28 101.094 135.198C102.128 119.849 97.5484 84.2964 97.5484 84.2964L111.016 86.109Z" fill="#263238"/>
<path d="M102.764 181.159L93.4258 179.956L93.5689 177.195L103.702 178.181L102.764 181.159Z" fill="#007BFF"/>
<path d="M92.7315 82.5157L91.7298 84.0368C91.6503 84.1534 91.7881 84.307 92.0001 84.3335L111.292 86.9252C111.456 86.9464 111.605 86.8829 111.626 86.7822L111.965 85.1709C111.986 85.0596 111.854 84.943 111.674 84.9218L93.0442 82.4202C92.9064 82.399 92.7792 82.4362 92.7315 82.5157Z" fill="#007BFF"/>
<path opacity="0.3" d="M92.7315 82.5157L91.7298 84.0368C91.6503 84.1534 91.7881 84.307 92.0001 84.3335L111.292 86.9252C111.456 86.9464 111.605 86.8829 111.626 86.7822L111.965 85.1709C111.986 85.0596 111.854 84.943 111.674 84.9218L93.0442 82.4202C92.9064 82.399 92.7792 82.4362 92.7315 82.5157Z" fill="black"/>
<path d="M95.0097 84.9166L94.5115 84.8477C94.4108 84.8318 94.3419 84.7735 94.3578 84.7099L94.8189 82.6164C94.8348 82.5528 94.9249 82.5157 95.0256 82.5316L95.5237 82.6005C95.6244 82.6164 95.6934 82.6747 95.6775 82.7383L95.2164 84.8318C95.2058 84.8901 95.1104 84.9325 95.0097 84.9166Z" fill="#263238"/>
<path d="M107.613 86.6391L107.115 86.5702C107.014 86.5543 106.945 86.496 106.961 86.4324L107.422 84.3389C107.438 84.2753 107.528 84.2382 107.629 84.2541L108.127 84.323C108.228 84.3389 108.297 84.3972 108.281 84.4608L107.82 86.5543C107.804 86.6126 107.714 86.6497 107.613 86.6391Z" fill="#263238"/>
</svg>
