<svg width="161" height="38" viewBox="0 0 161 38" fill="none" xmlns="http://www.w3.org/2000/svg">
<rect x="0.929688" y="0.680664" width="160" height="36.875" rx="18.4375" fill="#00C72B"/>
<path d="M56.631 21.949H59.0536V23.1182H55.1564V15.7663H56.631V21.949ZM60.7387 16.5878C60.4788 16.5878 60.2612 16.5071 60.0856 16.3456C59.9171 16.1771 59.8328 15.9699 59.8328 15.7242C59.8328 15.4784 59.9171 15.2748 60.0856 15.1133C60.2612 14.9447 60.4788 14.8605 60.7387 14.8605C60.9985 14.8605 61.2126 14.9447 61.3812 15.1133C61.5567 15.2748 61.6445 15.4784 61.6445 15.7242C61.6445 15.9699 61.5567 16.1771 61.3812 16.3456C61.2126 16.5071 60.9985 16.5878 60.7387 16.5878ZM61.4654 17.283V23.1182H59.9908V17.283H61.4654ZM65.3554 21.7594L66.83 17.283H68.3994L66.2401 23.1182H64.4496L62.3009 17.283H63.8808L65.3554 21.7594ZM74.652 20.0742C74.652 20.2848 74.6379 20.4744 74.6098 20.643H70.3441C70.3792 21.0643 70.5266 21.3943 70.7864 21.633C71.0462 21.8718 71.3657 21.9912 71.7449 21.9912C72.2926 21.9912 72.6823 21.7559 72.914 21.2855H74.5045C74.336 21.8472 74.013 22.3107 73.5355 22.6758C73.058 23.0339 72.4717 23.213 71.7765 23.213C71.2148 23.213 70.7092 23.0901 70.2598 22.8443C69.8174 22.5915 69.4698 22.2369 69.217 21.7805C68.9713 21.3241 68.8484 20.7974 68.8484 20.2006C68.8484 19.5967 68.9713 19.0666 69.217 18.6101C69.4628 18.1537 69.8069 17.8026 70.2493 17.5569C70.6916 17.3111 71.2007 17.1882 71.7765 17.1882C72.3312 17.1882 72.8263 17.3076 73.2616 17.5463C73.704 17.7851 74.0446 18.1256 74.2833 18.568C74.5291 19.0034 74.652 19.5054 74.652 20.0742ZM73.1247 19.6529C73.1177 19.2737 72.9808 18.9718 72.7139 18.7471C72.4471 18.5153 72.1206 18.3995 71.7344 18.3995C71.3692 18.3995 71.0603 18.5118 70.8075 18.7365C70.5617 18.9542 70.4108 19.2597 70.3546 19.6529H73.1247ZM79.7126 16.9565V18.7997H82.1878V19.9689H79.7126V21.9174H82.5038V23.1182H78.238V15.7558H82.5038V16.9565H79.7126ZM86.2769 21.7594L87.7515 17.283H89.3209L87.1617 23.1182H85.3711L83.2224 17.283H84.8023L86.2769 21.7594ZM95.5735 20.0742C95.5735 20.2848 95.5595 20.4744 95.5314 20.643H91.2656C91.3007 21.0643 91.4482 21.3943 91.708 21.633C91.9678 21.8718 92.2873 21.9912 92.6665 21.9912C93.2142 21.9912 93.6039 21.7559 93.8356 21.2855H95.426C95.2575 21.8472 94.9345 22.3107 94.457 22.6758C93.9795 23.0339 93.3932 23.213 92.6981 23.213C92.1363 23.213 91.6307 23.0901 91.1813 22.8443C90.739 22.5915 90.3914 22.2369 90.1386 21.7805C89.8928 21.3241 89.7699 20.7974 89.7699 20.2006C89.7699 19.5967 89.8928 19.0666 90.1386 18.6101C90.3844 18.1537 90.7284 17.8026 91.1708 17.5569C91.6132 17.3111 92.1223 17.1882 92.6981 17.1882C93.2528 17.1882 93.7478 17.3076 94.1832 17.5463C94.6256 17.7851 94.9661 18.1256 95.2049 18.568C95.4506 19.0034 95.5735 19.5054 95.5735 20.0742ZM94.0463 19.6529C94.0392 19.2737 93.9023 18.9718 93.6355 18.7471C93.3686 18.5153 93.0421 18.3995 92.6559 18.3995C92.2908 18.3995 91.9818 18.5118 91.729 18.7365C91.4833 18.9542 91.3323 19.2597 91.2761 19.6529H94.0463ZM99.8834 17.1987C100.579 17.1987 101.14 17.4199 101.569 17.8623C101.997 18.2977 102.211 18.9086 102.211 19.695V23.1182H100.737V19.8951C100.737 19.4317 100.621 19.0771 100.389 18.8313C100.157 18.5785 99.8413 18.4521 99.441 18.4521C99.0337 18.4521 98.7107 18.5785 98.472 18.8313C98.2403 19.0771 98.1244 19.4317 98.1244 19.8951V23.1182H96.6498V17.283H98.1244V18.0098C98.321 17.757 98.5703 17.5604 98.8722 17.4199C99.1812 17.2725 99.5182 17.1987 99.8834 17.1987ZM105.33 18.4943V21.3171C105.33 21.5137 105.376 21.6576 105.467 21.7489C105.565 21.8332 105.727 21.8753 105.952 21.8753H106.636V23.1182H105.709C104.467 23.1182 103.845 22.5143 103.845 21.3065V18.4943H103.15V17.283H103.845V15.84H105.33V17.283H106.636V18.4943H105.33Z" fill="white"/>
</svg>
