<svg width="176" height="46" viewBox="0 0 176 46" fill="none" xmlns="http://www.w3.org/2000/svg">
<rect x="0.609375" y="0.483276" width="174.782" height="45" rx="22.5" fill="url(#paint0_linear_172_1890)"/>
<path d="M71.3869 18.0115H73.1864V25.5565H76.1427V26.9833H71.3869V18.0115ZM84.1631 23.4228C84.1631 25.6594 82.5179 27.099 80.4485 27.099C78.3919 27.099 76.8366 25.6594 76.8366 23.4228C76.8366 21.1735 78.4433 19.7467 80.4999 19.7467C82.5564 19.7467 84.1631 21.1735 84.1631 23.4228ZM78.6618 23.4228C78.6618 24.8367 79.4844 25.5308 80.4485 25.5308C81.3996 25.5308 82.3122 24.8367 82.3122 23.4228C82.3122 21.9961 81.4253 21.3149 80.4742 21.3149C79.523 21.3149 78.6618 21.9961 78.6618 23.4228ZM85.0204 23.3971C85.0204 21.1735 86.46 19.7467 88.2724 19.7467C89.3906 19.7467 90.2004 20.2609 90.6246 20.8778V19.8624H92.4369V27.0347C92.4369 28.9627 91.2544 30.4923 88.915 30.4923C86.9099 30.4923 85.5088 29.4897 85.3289 27.8573H87.1155C87.2955 28.5 87.9639 28.9242 88.8636 28.9242C89.8533 28.9242 90.6246 28.3586 90.6246 27.0347V25.9293C90.2004 26.5463 89.3906 27.099 88.2724 27.099C86.46 27.099 85.0204 25.6208 85.0204 23.3971ZM90.6246 23.4228C90.6246 22.0732 89.7248 21.3277 88.7351 21.3277C87.7711 21.3277 86.8585 22.0475 86.8585 23.3971C86.8585 24.7468 87.7711 25.518 88.7351 25.518C89.7248 25.518 90.6246 24.7725 90.6246 23.4228ZM94.1944 26.9833V19.8624H95.9939V26.9833H94.1944ZM95.107 19.0141C94.4644 19.0141 94.0016 18.5513 94.0016 17.9601C94.0016 17.3688 94.4644 16.9061 95.107 16.9061C95.7369 16.9061 96.2124 17.3688 96.2124 17.9601C96.2124 18.5513 95.7369 19.0141 95.107 19.0141ZM102.759 26.9833V23.0501C102.759 21.9061 102.129 21.2892 101.178 21.2892C100.201 21.2892 99.5713 21.9061 99.5713 23.0501V26.9833H97.7718V19.8624H99.5713V20.7493C100.034 20.1452 100.805 19.7596 101.718 19.7596C103.376 19.7596 104.559 20.8393 104.559 22.8059V26.9833H102.759Z" fill="white"/>
<defs>
<linearGradient id="paint0_linear_172_1890" x1="9.72295" y1="2.98329" x2="167.599" y2="33.0981" gradientUnits="userSpaceOnUse">
<stop stop-color="#007BFF"/>
<stop offset="1" stop-color="#56A8FF"/>
</linearGradient>
</defs>
</svg>
