<svg width="225" height="136" viewBox="0 0 225 136" fill="none" xmlns="http://www.w3.org/2000/svg">
<g filter="url(#filter0_d_2_7504)">
<rect x="53.2734" y="33" width="118.369" height="30.1521" rx="15.076" fill="url(#paint0_linear_2_7504)" shape-rendering="crispEdges"/>
<path d="M88.5772 46.9102L87.9543 52.576H86.9362L87.9543 43.7718L91.3083 49.8449L94.6623 43.7718L95.6805 52.576H94.6623L94.0394 46.9102L91.3083 51.7974L88.5772 46.9102ZM101.425 47.0659L97.8315 55.2113H96.7534L98.2627 51.7974L96.1545 47.0659H97.2925L99.0413 51.3782L98.646 51.3303L100.347 47.0659H101.425ZM106.782 50.0606L107.142 49.1023H110.855L111.214 50.0606H106.782ZM108.974 46.0837L107.561 49.4137L107.465 49.6293L106.219 52.576H105.081L108.974 43.7718L112.867 52.576H111.729L110.508 49.7012L110.412 49.4616L108.974 46.0837ZM117.96 43.2328H118.918V52.576H117.96V43.2328ZM113.348 49.821C113.348 49.2221 113.472 48.711 113.72 48.2877C113.967 47.8565 114.299 47.5251 114.714 47.2935C115.129 47.0619 115.584 46.9461 116.079 46.9461C116.543 46.9461 116.946 47.0619 117.289 47.2935C117.633 47.5251 117.9 47.8565 118.092 48.2877C118.292 48.711 118.391 49.2221 118.391 49.821C118.391 50.4119 118.292 50.923 118.092 51.3542C117.9 51.7855 117.633 52.1169 117.289 52.3485C116.946 52.58 116.543 52.6958 116.079 52.6958C115.584 52.6958 115.129 52.58 114.714 52.3485C114.299 52.1169 113.967 51.7855 113.72 51.3542C113.472 50.923 113.348 50.4119 113.348 49.821ZM114.319 49.821C114.319 50.2442 114.402 50.6036 114.57 50.8991C114.746 51.1945 114.977 51.4181 115.265 51.5699C115.552 51.7216 115.864 51.7974 116.199 51.7974C116.479 51.7974 116.754 51.7216 117.026 51.5699C117.297 51.4181 117.521 51.1945 117.697 50.8991C117.872 50.6036 117.96 50.2442 117.96 49.821C117.96 49.3977 117.872 49.0384 117.697 48.7429C117.521 48.4474 117.297 48.2238 117.026 48.0721C116.754 47.9204 116.479 47.8445 116.199 47.8445C115.864 47.8445 115.552 47.9204 115.265 48.0721C114.977 48.2238 114.746 48.4474 114.57 48.7429C114.402 49.0384 114.319 49.3977 114.319 49.821ZM119.761 47.0659H120.839L122.396 50.9589L123.953 47.0659H125.031L122.396 52.9953L119.761 47.0659ZM127.891 52.6958C127.38 52.6958 126.925 52.576 126.526 52.3365C126.135 52.0889 125.827 51.7495 125.604 51.3183C125.388 50.8871 125.28 50.388 125.28 49.821C125.28 49.246 125.392 48.7429 125.616 48.3117C125.847 47.8805 126.167 47.5451 126.574 47.3055C126.989 47.0659 127.468 46.9461 128.011 46.9461C128.554 46.9461 129.017 47.0619 129.401 47.2935C129.792 47.5171 130.091 47.8405 130.299 48.2638C130.507 48.687 130.611 49.1901 130.611 49.7731C130.611 49.829 130.607 49.8889 130.599 49.9528C130.599 50.0087 130.599 50.0446 130.599 50.0606H125.891V49.246H129.844L129.461 49.797C129.485 49.7571 129.509 49.6972 129.532 49.6174C129.556 49.5295 129.568 49.4576 129.568 49.4017C129.568 49.0743 129.501 48.7908 129.365 48.5513C129.237 48.3117 129.057 48.124 128.826 47.9883C128.594 47.8525 128.323 47.7846 128.011 47.7846C127.644 47.7846 127.328 47.8645 127.065 48.0242C126.809 48.1759 126.61 48.3995 126.466 48.695C126.33 48.9825 126.258 49.3379 126.25 49.7611C126.25 50.1923 126.318 50.5597 126.454 50.8631C126.59 51.1666 126.789 51.3982 127.053 51.5579C127.316 51.7176 127.636 51.7974 128.011 51.7974C128.387 51.7974 128.718 51.7176 129.005 51.5579C129.293 51.3902 129.536 51.1386 129.736 50.8032L130.515 51.2943C130.227 51.7575 129.864 52.1089 129.425 52.3485C128.993 52.58 128.482 52.6958 127.891 52.6958ZM132.882 47.0659V52.576H131.924V47.0659H132.882ZM134.547 48.12C134.42 48.0242 134.304 47.9563 134.2 47.9164C134.096 47.8685 133.964 47.8445 133.805 47.8445C133.565 47.8445 133.377 47.9044 133.242 48.0242C133.106 48.144 133.01 48.3077 132.954 48.5153C132.906 48.723 132.882 48.9585 132.882 49.2221H132.451C132.451 48.7828 132.527 48.3955 132.679 48.0601C132.838 47.7168 133.042 47.4452 133.29 47.2456C133.537 47.046 133.789 46.9461 134.044 46.9461C134.244 46.9461 134.427 46.9741 134.595 47.03C134.771 47.0779 134.931 47.1777 135.074 47.3295L134.547 48.12ZM135.191 47.0659H137.946V47.9643H135.191V47.0659ZM136.09 45.1494H137.048V52.576H136.09V45.1494Z" fill="white"/>
</g>
<defs>
<filter id="filter0_d_2_7504" x="0.665035" y="0.119749" width="223.584" height="135.369" filterUnits="userSpaceOnUse" color-interpolation-filters="sRGB">
<feFlood flood-opacity="0" result="BackgroundImageFix"/>
<feColorMatrix in="SourceAlpha" type="matrix" values="0 0 0 0 0 0 0 0 0 0 0 0 0 0 0 0 0 0 127 0" result="hardAlpha"/>
<feOffset dy="19.7282"/>
<feGaussianBlur stdDeviation="26.3042"/>
<feComposite in2="hardAlpha" operator="out"/>
<feColorMatrix type="matrix" values="0 0 0 0 0 0 0 0 0 0 0 0 0 0 0 0 0 0 0.1 0"/>
<feBlend mode="normal" in2="BackgroundImageFix" result="effect1_dropShadow_2_7504"/>
<feBlend mode="normal" in="SourceGraphic" in2="effect1_dropShadow_2_7504" result="shape"/>
</filter>
<linearGradient id="paint0_linear_2_7504" x1="59.4455" y1="34.6751" x2="166.284" y2="55.2731" gradientUnits="userSpaceOnUse">
<stop stop-color="#007BFF"/>
<stop offset="1" stop-color="#56A8FF"/>
</linearGradient>
</defs>
</svg>
