<svg width="298" height="242" viewBox="0 0 298 242" fill="none" xmlns="http://www.w3.org/2000/svg">
<g filter="url(#filter0_d_2_7420)">
<rect x="105.273" y="86" width="118.369" height="30.1521" rx="15.076" fill="white" shape-rendering="crispEdges"/>
<path d="M140.577 99.9102L139.954 105.576H138.936L139.954 96.7718L143.308 102.845L146.662 96.7718L147.681 105.576H146.662L146.039 99.9102L143.308 104.797L140.577 99.9102ZM153.425 100.066L149.831 108.211H148.753L150.263 104.797L148.154 100.066H149.292L151.041 104.378L150.646 104.33L152.347 100.066H153.425ZM158.782 103.061L159.142 102.102H162.855L163.214 103.061H158.782ZM160.974 99.0837L159.561 102.414L159.465 102.629L158.219 105.576H157.081L160.974 96.7718L164.867 105.576H163.729L162.508 102.701L162.412 102.462L160.974 99.0837ZM169.96 96.2328H170.918V105.576H169.96V96.2328ZM165.348 102.821C165.348 102.222 165.472 101.711 165.72 101.288C165.967 100.857 166.299 100.525 166.714 100.294C167.129 100.062 167.584 99.9461 168.079 99.9461C168.543 99.9461 168.946 100.062 169.289 100.294C169.633 100.525 169.9 100.857 170.092 101.288C170.292 101.711 170.391 102.222 170.391 102.821C170.391 103.412 170.292 103.923 170.092 104.354C169.9 104.785 169.633 105.117 169.289 105.348C168.946 105.58 168.543 105.696 168.079 105.696C167.584 105.696 167.129 105.58 166.714 105.348C166.299 105.117 165.967 104.785 165.72 104.354C165.472 103.923 165.348 103.412 165.348 102.821ZM166.319 102.821C166.319 103.244 166.402 103.604 166.57 103.899C166.746 104.195 166.977 104.418 167.265 104.57C167.552 104.722 167.864 104.797 168.199 104.797C168.479 104.797 168.754 104.722 169.026 104.57C169.297 104.418 169.521 104.195 169.697 103.899C169.872 103.604 169.96 103.244 169.96 102.821C169.96 102.398 169.872 102.038 169.697 101.743C169.521 101.447 169.297 101.224 169.026 101.072C168.754 100.92 168.479 100.845 168.199 100.845C167.864 100.845 167.552 100.92 167.265 101.072C166.977 101.224 166.746 101.447 166.57 101.743C166.402 102.038 166.319 102.398 166.319 102.821ZM171.761 100.066H172.839L174.396 103.959L175.953 100.066H177.031L174.396 105.995L171.761 100.066ZM179.891 105.696C179.38 105.696 178.925 105.576 178.526 105.336C178.135 105.089 177.827 104.75 177.604 104.318C177.388 103.887 177.28 103.388 177.28 102.821C177.28 102.246 177.392 101.743 177.616 101.312C177.847 100.88 178.167 100.545 178.574 100.305C178.989 100.066 179.468 99.9461 180.011 99.9461C180.554 99.9461 181.017 100.062 181.401 100.294C181.792 100.517 182.091 100.841 182.299 101.264C182.507 101.687 182.611 102.19 182.611 102.773C182.611 102.829 182.607 102.889 182.599 102.953C182.599 103.009 182.599 103.045 182.599 103.061H177.891V102.246H181.844L181.461 102.797C181.485 102.757 181.509 102.697 181.532 102.617C181.556 102.53 181.568 102.458 181.568 102.402C181.568 102.074 181.501 101.791 181.365 101.551C181.237 101.312 181.057 101.124 180.826 100.988C180.594 100.853 180.323 100.785 180.011 100.785C179.644 100.785 179.328 100.864 179.065 101.024C178.809 101.176 178.61 101.4 178.466 101.695C178.33 101.982 178.258 102.338 178.25 102.761C178.25 103.192 178.318 103.56 178.454 103.863C178.59 104.167 178.789 104.398 179.053 104.558C179.316 104.718 179.636 104.797 180.011 104.797C180.387 104.797 180.718 104.718 181.005 104.558C181.293 104.39 181.536 104.139 181.736 103.803L182.515 104.294C182.227 104.758 181.864 105.109 181.425 105.348C180.993 105.58 180.482 105.696 179.891 105.696ZM184.882 100.066V105.576H183.924V100.066H184.882ZM186.547 101.12C186.42 101.024 186.304 100.956 186.2 100.916C186.096 100.868 185.964 100.845 185.805 100.845C185.565 100.845 185.377 100.904 185.242 101.024C185.106 101.144 185.01 101.308 184.954 101.515C184.906 101.723 184.882 101.959 184.882 102.222H184.451C184.451 101.783 184.527 101.396 184.679 101.06C184.838 100.717 185.042 100.445 185.29 100.246C185.537 100.046 185.789 99.9461 186.044 99.9461C186.244 99.9461 186.427 99.9741 186.595 100.03C186.771 100.078 186.931 100.178 187.074 100.329L186.547 101.12ZM187.191 100.066H189.946V100.964H187.191V100.066ZM188.09 98.1494H189.048V105.576H188.09V98.1494Z" fill="#B4B4B4"/>
<rect x="105.438" y="86.1644" width="118.04" height="29.8233" rx="14.9116" stroke="#B4B4B4" stroke-width="0.328803" shape-rendering="crispEdges"/>
</g>
<defs>
<filter id="filter0_d_2_7420" x="0.056633" y="0.511347" width="328.801" height="240.586" filterUnits="userSpaceOnUse" color-interpolation-filters="sRGB">
<feFlood flood-opacity="0" result="BackgroundImageFix"/>
<feColorMatrix in="SourceAlpha" type="matrix" values="0 0 0 0 0 0 0 0 0 0 0 0 0 0 0 0 0 0 127 0" result="hardAlpha"/>
<feOffset dy="19.7282"/>
<feGaussianBlur stdDeviation="52.6084"/>
<feComposite in2="hardAlpha" operator="out"/>
<feColorMatrix type="matrix" values="0 0 0 0 0 0 0 0 0 0 0 0 0 0 0 0 0 0 0.1 0"/>
<feBlend mode="normal" in2="BackgroundImageFix" result="effect1_dropShadow_2_7420"/>
<feBlend mode="normal" in="SourceGraphic" in2="effect1_dropShadow_2_7420" result="shape"/>
</filter>
</defs>
</svg>
