<svg width="204" height="200" viewBox="0 0 204 200" fill="none" xmlns="http://www.w3.org/2000/svg">
<g clip-path="url(#clip0_172_2104)">
<path d="M127.732 199.96C152.282 199.139 174.06 187.146 186.295 171.037C198.53 154.934 202.038 135.207 200.098 115.995C197.703 92.3339 187.041 68.5021 167.386 49.5958C147.73 30.6945 118.703 17.1493 88.3254 15.0569C57.9475 12.9646 26.899 23.1861 10.9489 42.5779C-5.00131 61.9697 -3.72086 90.1314 16.0606 108.958C26.3596 118.759 40.6513 125.666 50.9403 135.467C65.7259 149.563 61.94 167.068 75.3394 180.838C87.5339 193.373 108.319 200.611 127.732 199.96Z" fill="#F5F5F5"/>
<path d="M203.999 119.529L59.2227 149.939L60.0847 155.195L203.999 119.529Z" fill="#007BFF"/>
<path d="M59.2227 149.939L203.999 119.529L69.4612 133.871L59.2227 149.939Z" fill="#56A8FF"/>
<path d="M32.6406 191.726L203.999 119.529L55.104 156.411L32.6406 191.726Z" fill="#56A8FF"/>
<path d="M67.0057 197.522L203.999 119.529L63.9004 178.531L67.0057 197.522Z" fill="#007BFF"/>
<path d="M38.1459 152.487H38.1408C36.6739 152.457 35.3178 152.371 33.997 152.216C33.8206 152.196 33.6996 152.041 33.7197 151.866C33.7399 151.696 33.9012 151.576 34.0726 151.591C35.3732 151.741 36.7091 151.826 38.156 151.856C38.3324 151.861 38.4685 152.001 38.4685 152.176C38.4635 152.351 38.3223 152.487 38.1459 152.487ZM42.2695 152.421C42.1032 152.421 41.962 152.291 41.9519 152.121C41.9419 151.946 42.078 151.801 42.2544 151.791C43.5399 151.731 44.8808 151.631 46.3529 151.495C46.5243 151.475 46.6805 151.606 46.7007 151.781C46.7158 151.956 46.5898 152.106 46.4133 152.126C44.9313 152.266 43.5853 152.361 42.2897 152.426C42.2796 152.421 42.2746 152.421 42.2695 152.421ZM50.4765 151.676C50.3202 151.676 50.1841 151.561 50.164 151.4C50.1438 151.23 50.2648 151.07 50.4412 151.05C51.762 150.885 53.1181 150.705 54.5246 150.509C54.6959 150.484 54.8573 150.604 54.8825 150.78C54.9077 150.95 54.7867 151.11 54.6102 151.135C53.2038 151.33 51.8427 151.515 50.5168 151.676C50.5017 151.671 50.4916 151.676 50.4765 151.676ZM29.9792 151.51C29.954 151.51 29.9288 151.505 29.9036 151.5C28.5425 151.175 27.2116 150.755 25.9362 150.259C25.7749 150.194 25.6942 150.014 25.7598 149.849C25.8253 149.688 26.0068 149.608 26.1732 149.673C27.4183 150.164 28.729 150.569 30.0599 150.89C30.2313 150.93 30.3371 151.1 30.2918 151.27C30.2514 151.415 30.1204 151.51 29.9792 151.51ZM22.3368 148.517C22.2864 148.517 22.231 148.502 22.1806 148.477C21.0917 147.866 20.0028 147.166 18.9391 146.4L18.6971 146.225C18.556 146.119 18.5257 145.924 18.6316 145.784C18.7375 145.644 18.9341 145.614 19.0752 145.719L19.3122 145.889C20.3557 146.645 21.4294 147.331 22.4931 147.926C22.6444 148.012 22.6998 148.202 22.6141 148.357C22.5536 148.462 22.4477 148.517 22.3368 148.517ZM15.743 143.642C15.6624 143.642 15.5867 143.612 15.5212 143.552C14.5331 142.605 13.5854 141.579 12.7133 140.503C12.6024 140.368 12.6226 140.168 12.7587 140.063C12.8948 139.952 13.0964 139.972 13.2023 140.108C14.0593 141.164 14.9869 142.165 15.9548 143.096C16.0808 143.216 16.0858 143.416 15.9648 143.542C15.9094 143.612 15.8287 143.642 15.743 143.642ZM10.5759 137.289C10.47 137.289 10.3692 137.239 10.3087 137.139C9.5777 135.973 8.90723 134.752 8.32246 133.51C8.24684 133.355 8.31742 133.165 8.47369 133.09C8.62997 133.015 8.82153 133.085 8.89715 133.24C9.47184 134.461 10.1272 135.658 10.8481 136.804C10.9388 136.949 10.8934 137.144 10.7472 137.239C10.6868 137.274 10.6313 137.289 10.5759 137.289ZM33.2257 136.559C33.2156 136.559 33.2055 136.559 33.1955 136.559C32.1772 136.464 31.1689 136.278 30.196 136.013C29.833 135.913 29.465 135.798 29.1021 135.678C28.9357 135.623 28.85 135.442 28.9055 135.277C28.9609 135.112 29.1424 135.027 29.3087 135.082C29.6566 135.202 30.0145 135.312 30.3674 135.407C31.305 135.668 32.278 135.843 33.256 135.933C33.4324 135.948 33.5584 136.103 33.5433 136.278C33.5231 136.438 33.387 136.559 33.2257 136.559ZM37.3342 136.469C37.178 136.469 37.0419 136.353 37.0217 136.193C36.9965 136.023 37.1175 135.863 37.2939 135.838C38.6097 135.663 39.9304 135.342 41.226 134.882C41.3924 134.827 41.5738 134.912 41.6293 135.072C41.6898 135.237 41.5991 135.417 41.4377 135.472C40.1018 135.943 38.7357 136.273 37.3746 136.459C37.3645 136.469 37.3494 136.469 37.3342 136.469ZM25.4926 133.941C25.4371 133.941 25.3767 133.926 25.3262 133.896C24.1567 133.18 23.0426 132.329 22.0142 131.368C21.8882 131.248 21.8781 131.047 21.9991 130.922C22.1201 130.797 22.3217 130.792 22.4477 130.907C23.4459 131.843 24.5297 132.664 25.659 133.36C25.8102 133.45 25.8556 133.645 25.7648 133.796C25.6993 133.891 25.5985 133.941 25.4926 133.941ZM45.0674 133.775C44.9565 133.775 44.8506 133.72 44.7951 133.62C44.7044 133.47 44.7598 133.28 44.9111 133.19C46.0756 132.519 47.1897 131.733 48.2231 130.857C48.3592 130.742 48.5558 130.762 48.6718 130.892C48.7877 131.022 48.7676 131.223 48.6365 131.338C47.5728 132.239 46.4234 133.045 45.2337 133.735C45.1783 133.76 45.1228 133.775 45.0674 133.775ZM7.09242 129.891C6.95631 129.891 6.83532 129.806 6.78995 129.676C6.35641 128.359 6.00857 127.013 5.75652 125.676C5.72627 125.506 5.83717 125.341 6.00857 125.306C6.17997 125.276 6.34633 125.386 6.37658 125.556C6.62863 126.868 6.96639 128.189 7.38985 129.481C7.4453 129.646 7.35456 129.821 7.1882 129.876C7.15795 129.886 7.12267 129.891 7.09242 129.891ZM51.3184 128.5C51.2478 128.5 51.1772 128.475 51.1167 128.429C50.9806 128.319 50.9605 128.119 51.0764 127.989C51.9485 126.943 52.7198 125.822 53.3651 124.66C53.4508 124.51 53.6423 124.45 53.7936 124.535C53.9448 124.62 54.0003 124.81 53.9196 124.961C53.2542 126.157 52.4627 127.308 51.5654 128.384C51.4999 128.46 51.4091 128.5 51.3184 128.5ZM19.5037 128.384C19.4079 128.384 19.3122 128.339 19.2466 128.254C18.435 127.153 17.704 125.962 17.0789 124.715C16.9983 124.56 17.0638 124.37 17.2201 124.295C17.3764 124.22 17.5679 124.28 17.6435 124.435C18.2535 125.646 18.9643 126.808 19.7558 127.879C19.8616 128.019 19.8314 128.214 19.6852 128.319C19.6348 128.364 19.5693 128.384 19.5037 128.384ZM5.56999 121.867C5.40364 121.867 5.26248 121.737 5.2524 121.567C5.22215 121.041 5.20703 120.506 5.20703 119.985C5.20703 119.134 5.24736 118.273 5.31794 117.437C5.33306 117.262 5.48429 117.137 5.66073 117.152C5.83717 117.167 5.9632 117.322 5.94808 117.492C5.87246 118.313 5.83717 119.154 5.83717 119.985C5.83717 120.496 5.8523 121.021 5.8775 121.537C5.88759 121.712 5.75147 121.857 5.58008 121.867C5.58008 121.867 5.57503 121.867 5.56999 121.867ZM55.2706 121.372C55.2404 121.372 55.2051 121.367 55.1749 121.357C55.0085 121.306 54.9127 121.126 54.9682 120.961C55.3765 119.665 55.6437 118.343 55.7546 117.022C55.7697 116.846 55.926 116.726 56.0974 116.736C56.2738 116.751 56.3999 116.902 56.3847 117.077C56.2688 118.443 55.9915 119.81 55.5681 121.151C55.5277 121.286 55.4017 121.372 55.2706 121.372ZM15.8338 121.101C15.6977 121.101 15.5716 121.016 15.5313 120.881C15.1179 119.555 14.8155 118.198 14.6289 116.836C14.6037 116.666 14.7247 116.506 14.9012 116.481C15.0776 116.456 15.2339 116.576 15.2591 116.751C15.4406 118.078 15.738 119.404 16.1362 120.696C16.1866 120.861 16.0959 121.036 15.9295 121.091C15.8943 121.096 15.864 121.101 15.8338 121.101ZM6.306 113.743C6.2808 113.743 6.25559 113.738 6.23038 113.733C6.05898 113.693 5.95816 113.523 5.99849 113.353C6.32112 112.031 6.7597 110.705 7.30415 109.423C7.36968 109.263 7.55621 109.188 7.71752 109.253C7.87884 109.318 7.95446 109.503 7.88892 109.663C7.3596 110.915 6.9311 112.206 6.61855 113.498C6.57822 113.643 6.44715 113.743 6.306 113.743ZM55.9714 113.282C55.8151 113.282 55.679 113.167 55.6588 113.007C55.4874 111.696 55.1799 110.374 54.7464 109.088C54.6909 108.923 54.7817 108.742 54.948 108.687C55.1144 108.632 55.2958 108.722 55.3513 108.888C55.8 110.214 56.1176 111.576 56.294 112.927C56.3142 113.097 56.1932 113.257 56.0218 113.277C56.0016 113.282 55.9865 113.282 55.9714 113.282ZM14.7398 113.022C14.7348 113.022 14.7298 113.022 14.7298 113.022C14.5533 113.017 14.4172 112.872 14.4273 112.697C14.4575 111.896 14.5331 111.1 14.6441 110.324C14.7298 109.748 14.8356 109.163 14.9566 108.592C14.9919 108.422 15.1633 108.317 15.3347 108.352C15.5061 108.387 15.617 108.557 15.5767 108.727C15.4557 109.288 15.3498 109.854 15.2692 110.419C15.1583 111.175 15.0877 111.951 15.0574 112.727C15.0473 112.887 14.9062 113.022 14.7398 113.022ZM9.4668 106.215C9.41135 106.215 9.35589 106.199 9.30044 106.169C9.14921 106.079 9.10384 105.884 9.19458 105.739C9.91042 104.568 10.722 103.436 11.6042 102.365C11.7151 102.23 11.9168 102.21 12.0479 102.32C12.184 102.43 12.2041 102.63 12.0932 102.761C11.2262 103.807 10.4347 104.913 9.73398 106.059C9.67853 106.159 9.57266 106.215 9.4668 106.215ZM53.3853 105.564C53.2743 105.564 53.1634 105.504 53.108 105.404C52.4577 104.237 51.7015 103.111 50.8496 102.05C50.7387 101.915 50.7639 101.714 50.9 101.609C51.0361 101.499 51.2377 101.524 51.3436 101.659C52.2157 102.751 52.9971 103.907 53.6625 105.103C53.7482 105.253 53.6928 105.449 53.5365 105.529C53.4911 105.549 53.4357 105.564 53.3853 105.564ZM16.4387 105.048C16.4034 105.048 16.3631 105.043 16.3228 105.028C16.1614 104.968 16.0757 104.783 16.1413 104.623C16.6303 103.356 17.2251 102.095 17.9057 100.879C17.9914 100.728 18.1829 100.673 18.3392 100.758C18.4904 100.843 18.5459 101.034 18.4602 101.189C17.7897 102.38 17.21 103.612 16.7311 104.853C16.6857 104.973 16.5698 105.048 16.4387 105.048ZM14.6844 99.9124C14.5987 99.9124 14.513 99.8774 14.4525 99.8123C14.3365 99.6822 14.3416 99.4869 14.4727 99.3668C15.501 98.4307 16.595 97.5698 17.7343 96.7939C17.8805 96.6938 18.0771 96.7338 18.1729 96.874C18.2737 97.0192 18.2333 97.2144 18.0922 97.3095C16.9781 98.0653 15.9043 98.9113 14.9012 99.8273C14.8356 99.8824 14.76 99.9124 14.6844 99.9124ZM48.2786 99.1766C48.203 99.1766 48.1273 99.1516 48.0668 99.0965C47.0637 98.1905 45.9798 97.3545 44.8506 96.6187C44.7044 96.5236 44.6641 96.3284 44.7599 96.1832C44.8556 96.0381 45.0522 95.998 45.1984 96.0931C46.3579 96.844 47.4669 97.6999 48.4953 98.631C48.6264 98.7461 48.6365 98.9463 48.5155 99.0765C48.45 99.1415 48.3643 99.1766 48.2786 99.1766ZM20.4313 97.9152C20.3658 97.9152 20.3002 97.8951 20.2397 97.8551C20.0986 97.75 20.0683 97.5548 20.1742 97.4146C20.7892 96.5987 21.4496 95.7978 22.1503 95.0269C21.9688 95.112 21.7874 95.1971 21.6059 95.2822C21.4496 95.3573 21.258 95.2922 21.1824 95.137C21.1068 94.9819 21.1723 94.7916 21.3286 94.7166C22.5889 94.1059 23.8946 93.5953 25.2053 93.1999C25.3716 93.1498 25.548 93.2449 25.5985 93.4101C25.6489 93.5753 25.5531 93.7505 25.3867 93.8005C24.7213 94.0008 24.0609 94.231 23.4005 94.4913C23.4005 94.5664 23.3703 94.6415 23.3148 94.6965C22.3671 95.6827 21.4798 96.7238 20.6783 97.79C20.6229 97.8701 20.5271 97.9152 20.4313 97.9152ZM129.527 97.795H129.401C129.224 97.795 129.083 97.6549 129.083 97.4797C129.083 97.3045 129.224 97.1643 129.401 97.1643H129.532H129.93C131.11 97.1593 132.314 97.1143 133.499 97.0392C133.671 97.0292 133.827 97.1593 133.837 97.3345C133.847 97.5097 133.716 97.6599 133.539 97.6699C132.34 97.75 131.125 97.79 129.93 97.8L129.527 97.795ZM125.277 97.6599C125.272 97.6599 125.262 97.6599 125.257 97.6599C123.916 97.5748 122.525 97.4496 121.133 97.2845C120.962 97.2644 120.836 97.1093 120.856 96.9341C120.876 96.7589 121.027 96.6387 121.209 96.6588C122.59 96.8189 123.966 96.9441 125.297 97.0292C125.474 97.0392 125.605 97.1893 125.595 97.3645C125.585 97.5297 125.443 97.6599 125.277 97.6599ZM137.618 97.2644C137.461 97.2644 137.325 97.1493 137.305 96.9891C137.28 96.8189 137.406 96.6588 137.577 96.6337C138.923 96.4585 140.285 96.2333 141.625 95.968C141.797 95.9329 141.963 96.0431 141.999 96.2133C142.034 96.3834 141.923 96.5486 141.751 96.5837C140.395 96.854 139.024 97.0792 137.663 97.2544C137.648 97.2594 137.633 97.2644 137.618 97.2644ZM117.095 96.7088C117.08 96.7088 117.06 96.7088 117.045 96.7038C115.729 96.4886 114.363 96.2333 112.982 95.9479C112.81 95.9129 112.699 95.7477 112.735 95.5775C112.77 95.4073 112.941 95.2972 113.108 95.3323C114.484 95.6176 115.84 95.8679 117.146 96.0831C117.317 96.1131 117.433 96.2733 117.408 96.4435C117.378 96.5987 117.246 96.7088 117.095 96.7088ZM145.699 95.6626C145.558 95.6626 145.432 95.5675 145.391 95.4274C145.346 95.2572 145.447 95.087 145.618 95.0419C146.929 94.6965 148.25 94.3011 149.545 93.8656C149.711 93.8106 149.893 93.9006 149.948 94.0658C150.004 94.231 149.913 94.4112 149.747 94.4663C148.441 94.9018 147.105 95.3022 145.779 95.6526C145.754 95.6626 145.729 95.6626 145.699 95.6626ZM109.019 95.0519C108.994 95.0519 108.969 95.0469 108.944 95.0419C107.668 94.7366 106.322 94.3912 104.941 94.0208C104.77 93.9757 104.674 93.8005 104.719 93.6354C104.765 93.4652 104.936 93.365 105.107 93.4151C106.484 93.7855 107.825 94.1259 109.095 94.4312C109.266 94.4713 109.367 94.6415 109.327 94.8117C109.292 94.9568 109.16 95.0519 109.019 95.0519ZM41.4075 94.7166C41.3672 94.7166 41.3218 94.7066 41.2815 94.6915C40.0262 94.1409 38.7357 93.7054 37.4401 93.3851C37.2687 93.345 37.1679 93.1748 37.2082 93.0046C37.2485 92.8345 37.4199 92.7293 37.5913 92.7744C38.9222 93.0997 40.2531 93.5503 41.5386 94.1159C41.6999 94.186 41.7705 94.3712 41.6999 94.5314C41.6444 94.6465 41.5285 94.7166 41.4075 94.7166ZM153.512 93.0597C153.386 93.0597 153.271 92.9846 153.22 92.8645C153.155 92.7043 153.23 92.5191 153.391 92.454C154.652 91.9435 155.912 91.3878 157.142 90.8022C157.298 90.7271 157.49 90.7922 157.566 90.9473C157.641 91.1025 157.576 91.2927 157.419 91.3678C156.179 91.9585 154.904 92.5191 153.633 93.0347C153.593 93.0547 153.553 93.0597 153.512 93.0597ZM29.3289 92.9496C29.1726 92.9496 29.0365 92.8344 29.0164 92.6743C28.9962 92.5041 29.1172 92.3439 29.2886 92.3239C30.2867 92.1987 31.2849 92.1236 32.2881 92.1337C32.525 92.1337 32.7569 92.1387 32.9938 92.1437C33.1501 92.1487 33.3064 92.1537 33.4626 92.1637C33.6391 92.1737 33.7702 92.3189 33.7651 92.4941C33.755 92.6693 33.6038 92.8044 33.4324 92.7944C33.2812 92.7844 33.1299 92.7794 32.9787 92.7744C32.7468 92.7694 32.5149 92.7794 32.2881 92.7644C31.3252 92.7644 30.3472 92.8244 29.3743 92.9496C29.3541 92.9496 29.339 92.9496 29.3289 92.9496ZM101.054 92.9296C101.024 92.9296 100.994 92.9246 100.964 92.9195C99.9554 92.6292 98.9471 92.3339 97.9439 92.0335L97.0063 91.7532C96.8399 91.7032 96.7441 91.528 96.7945 91.3628C96.845 91.1976 97.0214 91.1025 97.1878 91.1526L98.1204 91.4329C99.1236 91.7332 100.127 92.0285 101.135 92.3189C101.301 92.3689 101.402 92.5441 101.352 92.7093C101.321 92.8445 101.195 92.9296 101.054 92.9296ZM26.1127 92.0085C26.0219 92.0085 25.9312 91.9685 25.8707 91.8934C25.7598 91.7582 25.7799 91.563 25.911 91.4479C26.9697 90.5769 28.0989 89.751 29.2533 88.9951C29.3995 88.9 29.5961 88.9401 29.6919 89.0852C29.7877 89.2304 29.7473 89.4256 29.6011 89.5207C28.4618 90.2616 27.3578 91.0725 26.3143 91.9284C26.2538 91.9835 26.1832 92.0085 26.1127 92.0085ZM93.1649 90.5619C93.1347 90.5619 93.1044 90.5569 93.0691 90.5469L92.2525 90.2966C91.214 89.9762 90.1755 89.6559 89.132 89.3405C88.9657 89.2905 88.8699 89.1153 88.9203 88.9451C88.9707 88.7799 89.1471 88.6848 89.3185 88.7348C90.357 89.0502 91.4005 89.3705 92.439 89.6909L93.2557 89.9412C93.422 89.9912 93.5178 90.1665 93.4623 90.3366C93.422 90.4768 93.301 90.5619 93.1649 90.5619ZM160.938 89.5107C160.827 89.5107 160.721 89.4506 160.661 89.3505C160.575 89.2004 160.631 89.0051 160.782 88.92C161.972 88.2593 163.151 87.5535 164.295 86.8177C164.442 86.7226 164.638 86.7676 164.734 86.9128C164.83 87.058 164.784 87.2532 164.638 87.3483C163.484 88.0891 162.289 88.7999 161.089 89.4707C161.044 89.5007 160.988 89.5107 160.938 89.5107ZM85.2806 88.1642C85.2503 88.1642 85.2201 88.1592 85.1898 88.1492C83.8741 87.7587 82.5533 87.3783 81.2325 87.0129C81.0662 86.9678 80.9654 86.7927 81.0107 86.6225C81.0561 86.4573 81.2325 86.3572 81.4039 86.4022C82.7298 86.7726 84.0505 87.1531 85.3663 87.5435C85.5326 87.5936 85.6284 87.7687 85.578 87.9339C85.5427 88.0791 85.4167 88.1642 85.2806 88.1642ZM32.9938 87.5285C32.8779 87.5285 32.767 87.4634 32.7115 87.3583C32.6309 87.2031 32.6964 87.0129 32.8527 86.9328C33.4173 86.6475 33.992 86.3772 34.5616 86.1269C35.2472 85.8266 35.9479 85.5362 36.6537 85.2709C36.815 85.2109 37.0015 85.291 37.062 85.4511C37.1225 85.6113 37.0419 85.7965 36.8805 85.8566C36.1849 86.1169 35.4942 86.4022 34.8187 86.6975C34.2591 86.9428 33.6945 87.2081 33.14 87.4884C33.0896 87.5185 33.0442 87.5285 32.9938 87.5285ZM77.3357 85.9667C77.3105 85.9667 77.2853 85.9617 77.2551 85.9567C75.8788 85.6063 74.5379 85.286 73.2574 85.0006C73.086 84.9606 72.9802 84.7954 73.0155 84.6252C73.0558 84.455 73.2222 84.3449 73.3936 84.3849C74.679 84.6703 76.0301 84.9956 77.4113 85.346C77.5827 85.3911 77.6836 85.5613 77.6382 85.7264C77.6079 85.8716 77.4769 85.9667 77.3357 85.9667ZM167.86 85.0757C167.764 85.0757 167.668 85.0307 167.602 84.9456C167.497 84.8054 167.527 84.6102 167.668 84.5051C168.767 83.6992 169.851 82.8532 170.889 81.9822C171.02 81.8721 171.222 81.8871 171.338 82.0223C171.449 82.1574 171.434 82.3527 171.298 82.4678C170.249 83.3438 169.155 84.1997 168.046 85.0106C167.991 85.0557 167.925 85.0757 167.86 85.0757ZM40.6816 84.6102C40.5404 84.6102 40.4144 84.5201 40.3741 84.3799C40.3287 84.2148 40.4245 84.0396 40.5959 83.9945C41.9015 83.6341 43.2626 83.3238 44.6389 83.0735C44.8153 83.0434 44.9766 83.1536 45.0069 83.3238C45.0371 83.4939 44.9262 83.6591 44.7548 83.6892C43.3987 83.9394 42.0528 84.2448 40.7622 84.6002C40.737 84.6052 40.7118 84.6102 40.6816 84.6102ZM69.2901 84.1847C69.2699 84.1847 69.2497 84.1847 69.2296 84.1797C68.3373 84.0145 67.445 83.8644 66.5779 83.7292C66.1091 83.6541 65.6453 83.589 65.1765 83.524C65.0051 83.4989 64.8841 83.3388 64.9043 83.1686C64.9295 82.9984 65.0908 82.8732 65.2622 82.8983C65.7361 82.9633 66.2049 83.0334 66.6787 83.1085C67.5509 83.2437 68.4482 83.3988 69.3455 83.564C69.5169 83.5941 69.6329 83.7592 69.5976 83.9294C69.5774 84.0746 69.4413 84.1847 69.2901 84.1847ZM48.7776 83.1085C48.6163 83.1085 48.4802 82.9884 48.4651 82.8282C48.4449 82.653 48.571 82.5028 48.7474 82.4828C50.0934 82.3426 51.4847 82.2475 52.8811 82.1975C53.0525 82.1975 53.2038 82.3276 53.2088 82.5028C53.2139 82.678 53.0777 82.8232 52.9013 82.8282C51.52 82.8732 50.1438 82.9684 48.8129 83.1085C48.8029 83.1085 48.7877 83.1085 48.7776 83.1085ZM61.1284 83.0584C61.1184 83.0584 61.1083 83.0584 61.1032 83.0584C59.722 82.9383 58.3407 82.8582 57.0048 82.8182C56.8284 82.8132 56.6922 82.668 56.6973 82.4928C56.7023 82.3176 56.8586 82.1925 57.025 82.1875C58.3709 82.2275 59.7623 82.3076 61.1587 82.4277C61.3351 82.4428 61.4612 82.5929 61.446 82.7681C61.4309 82.9333 61.2898 83.0584 61.1284 83.0584ZM174.166 79.8098C174.08 79.8098 174 79.7798 173.939 79.7147C173.818 79.5895 173.823 79.3893 173.949 79.2692L174.151 79.074C175.063 78.198 175.961 77.2869 176.818 76.3559C176.934 76.2258 177.135 76.2208 177.266 76.3359C177.397 76.451 177.402 76.6512 177.287 76.7814C176.419 77.7174 175.512 78.6435 174.595 79.5245L174.393 79.7197C174.322 79.7798 174.247 79.8098 174.166 79.8098ZM179.742 73.788C179.671 73.788 179.6 73.763 179.54 73.7179C179.404 73.6078 179.384 73.4126 179.495 73.2774C180.346 72.2313 181.183 71.14 181.975 70.0338C182.076 69.8936 182.272 69.8586 182.418 69.9587C182.56 70.0588 182.595 70.254 182.494 70.3992C181.692 71.5155 180.851 72.6167 179.989 73.6729C179.928 73.748 179.837 73.788 179.742 73.788ZM184.526 67.1255C184.47 67.1255 184.41 67.1105 184.359 67.0755C184.213 66.9854 184.168 66.7901 184.258 66.64C184.979 65.4937 185.675 64.3124 186.33 63.121C186.416 62.9658 186.608 62.9108 186.759 62.9959C186.91 63.081 186.971 63.2712 186.885 63.4214C186.224 64.6227 185.524 65.814 184.798 66.9703C184.737 67.0755 184.631 67.1255 184.526 67.1255ZM188.473 59.9424C188.427 59.9424 188.382 59.9324 188.337 59.9124C188.18 59.8373 188.11 59.6521 188.185 59.4919C188.765 58.2706 189.315 57.0091 189.824 55.7577C189.889 55.5975 190.076 55.5175 190.237 55.5825C190.399 55.6476 190.479 55.8328 190.414 55.993C189.904 57.2594 189.345 58.5308 188.76 59.7622C188.705 59.8774 188.589 59.9424 188.473 59.9424ZM191.538 52.3489C191.503 52.3489 191.472 52.3439 191.437 52.3339C191.271 52.2788 191.18 52.0986 191.235 51.9334C191.669 50.652 192.067 49.3405 192.42 48.034C192.465 47.8689 192.637 47.7637 192.808 47.8138C192.975 47.8588 193.075 48.034 193.03 48.1992C192.672 49.5157 192.269 50.8422 191.835 52.1337C191.795 52.2638 191.669 52.3489 191.538 52.3489ZM193.68 44.445C193.66 44.445 193.64 44.445 193.615 44.44C193.443 44.405 193.332 44.2398 193.368 44.0696C193.645 42.7381 193.882 41.3916 194.079 40.0551C194.104 39.8849 194.27 39.7647 194.436 39.7898C194.608 39.8148 194.729 39.975 194.704 40.1452C194.507 41.4917 194.265 42.8532 193.988 44.1947C193.963 44.3449 193.827 44.445 193.68 44.445ZM194.865 36.3309C194.86 36.3309 194.85 36.3309 194.845 36.3309C194.673 36.3159 194.537 36.1857 194.552 36.0155C194.552 36.0105 194.557 35.9655 194.557 35.9655C194.668 34.6139 194.739 33.2574 194.754 31.9459C194.754 31.7758 194.9 31.6356 195.072 31.6356C195.072 31.6356 195.072 31.6356 195.077 31.6356C195.253 31.6356 195.389 31.7808 195.389 31.956C195.374 33.2824 195.304 34.649 195.193 36.0255C195.167 36.1857 195.026 36.3309 194.865 36.3309ZM194.951 28.1717C194.784 28.1717 194.648 28.0466 194.633 27.8764C194.537 26.4898 194.376 25.1333 194.154 23.8418C194.124 23.6716 194.24 23.5064 194.416 23.4814C194.583 23.4514 194.754 23.5665 194.779 23.7417C195.001 25.0532 195.167 26.4297 195.263 27.8363C195.273 28.0115 195.142 28.1617 194.971 28.1717C194.966 28.1717 194.956 28.1717 194.951 28.1717ZM130.641 20.1877C130.57 20.1877 130.5 20.1627 130.439 20.1126C130.303 20.0025 130.288 19.8023 130.399 19.6671C131.291 18.6059 132.209 17.5648 133.126 16.5787C133.247 16.4485 133.444 16.4435 133.575 16.5636C133.701 16.6838 133.711 16.879 133.595 17.0091C132.682 17.9902 131.77 19.0214 130.888 20.0726C130.822 20.1477 130.732 20.1877 130.641 20.1877ZM193.564 20.1126C193.428 20.1126 193.302 20.0225 193.262 19.8824C192.879 18.5559 192.41 17.2744 191.881 16.0731C191.81 15.9129 191.881 15.7277 192.042 15.6576C192.198 15.5875 192.39 15.6576 192.46 15.8178C193.005 17.0442 193.479 18.3506 193.872 19.7072C193.922 19.8724 193.821 20.0476 193.655 20.0976C193.62 20.1076 193.59 20.1126 193.564 20.1126ZM136.247 14.186C136.161 14.186 136.08 14.1509 136.02 14.0909C135.899 13.9657 135.904 13.7655 136.03 13.6454C137.038 12.6843 138.071 11.7532 139.105 10.8872C139.236 10.7771 139.438 10.7921 139.554 10.9223C139.664 11.0574 139.649 11.2527 139.518 11.3678C138.495 12.2238 137.472 13.1448 136.473 14.0959C136.403 14.1559 136.322 14.186 136.247 14.186ZM190.232 12.6592C190.126 12.6592 190.025 12.6092 189.965 12.5141C189.521 11.8183 189.037 11.1425 188.528 10.5018C188.206 10.0964 187.858 9.6909 187.505 9.30046C187.389 9.17032 187.399 8.9751 187.525 8.85496C187.656 8.73983 187.858 8.74984 187.974 8.87498C188.337 9.27543 188.69 9.6859 189.022 10.1064C189.547 10.7621 190.041 11.4579 190.499 12.1687C190.595 12.3139 190.55 12.5091 190.404 12.6042C190.348 12.6392 190.288 12.6592 190.232 12.6592ZM142.543 8.91503C142.447 8.91503 142.346 8.86998 142.286 8.78488C142.18 8.64472 142.215 8.44951 142.356 8.34439C143.491 7.52346 144.645 6.7526 145.8 6.05181C145.951 5.96171 146.142 6.00676 146.233 6.15693C146.324 6.3071 146.278 6.49731 146.127 6.58741C144.988 7.27819 143.844 8.04405 142.724 8.84996C142.674 8.89501 142.608 8.91503 142.543 8.91503ZM184.717 6.62746C184.647 6.62746 184.581 6.60743 184.521 6.56238C183.472 5.74646 182.328 4.99562 181.128 4.33988C180.977 4.25479 180.921 4.06457 181.002 3.9094C181.088 3.75923 181.279 3.70417 181.43 3.78426C182.66 4.46002 183.83 5.22588 184.909 6.06182C185.045 6.16694 185.07 6.36716 184.964 6.50232C184.904 6.58241 184.808 6.62746 184.717 6.62746ZM149.57 4.65023C149.454 4.65023 149.343 4.58516 149.288 4.47503C149.212 4.31986 149.273 4.12965 149.429 4.05456C150.679 3.43887 151.96 2.87824 153.23 2.3977C153.391 2.33262 153.578 2.41772 153.639 2.5779C153.699 2.73808 153.618 2.92329 153.457 2.98336C152.207 3.45889 150.947 4.0045 149.711 4.61519C149.666 4.64022 149.621 4.65023 149.57 4.65023ZM177.539 2.663C177.503 2.663 177.463 2.65799 177.428 2.64297C176.177 2.17244 174.862 1.782 173.526 1.47166C173.354 1.43161 173.249 1.26142 173.289 1.09623C173.329 0.926041 173.501 0.820923 173.667 0.860968C175.033 1.17632 176.374 1.57677 177.649 2.05731C177.816 2.11738 177.896 2.30259 177.836 2.46277C177.786 2.58291 177.665 2.663 177.539 2.663ZM157.268 1.75197C157.127 1.75197 157.001 1.65686 156.961 1.51671C156.915 1.34651 157.016 1.17632 157.187 1.13127C158.513 0.780878 159.884 0.510574 161.266 0.32036C161.442 0.295332 161.598 0.415467 161.624 0.590664C161.649 0.760855 161.528 0.921035 161.351 0.946064C159.995 1.13127 158.649 1.39657 157.349 1.74196C157.324 1.74696 157.293 1.75197 157.268 1.75197ZM169.533 0.810912C169.523 0.810912 169.513 0.810912 169.498 0.810912C168.349 0.690776 167.179 0.635714 166.015 0.635714C165.813 0.635714 165.616 0.635714 165.415 0.64072H165.41C165.238 0.64072 165.097 0.505568 165.092 0.330371C165.087 0.155174 165.228 0.0150161 165.405 0.0100105C165.606 0.00500488 165.803 0.0150161 166.015 0.00500488C167.199 0.00500488 168.389 0.0650725 169.563 0.185208C169.74 0.20523 169.866 0.355399 169.846 0.530596C169.831 0.690776 169.695 0.810912 169.533 0.810912Z" fill="#263238"/>
</g>
<defs>
<clipPath id="clip0_172_2104">
<rect width="204" height="200" fill="white"/>
</clipPath>
</defs>
</svg>
