<svg width="90" height="18" viewBox="0 0 90 18" fill="none" xmlns="http://www.w3.org/2000/svg">
<rect width="90" height="18" rx="9" fill="#FFC107"/>
<path d="M12.074 4.6V5.608H9.278V13H8.27V5.608H5.48V4.6H12.074ZM12.5989 7H13.6069V13H12.5989V7ZM13.1149 6.022C12.9549 6.022 12.8209 5.97 12.7129 5.866C12.6049 5.762 12.5509 5.632 12.5509 5.476C12.5509 5.32 12.6049 5.19 12.7129 5.086C12.8209 4.982 12.9529 4.93 13.1089 4.93C13.2649 4.93 13.3969 4.982 13.5049 5.086C13.6129 5.19 13.6669 5.32 13.6669 5.476C13.6669 5.632 13.6129 5.762 13.5049 5.866C13.4009 5.97 13.2709 6.022 13.1149 6.022ZM19.1001 11.416L20.0001 11.902C19.7281 12.282 19.3821 12.586 18.9621 12.814C18.5461 13.042 18.0941 13.156 17.6061 13.156C17.0541 13.156 16.5501 13.014 16.0941 12.73C15.6421 12.446 15.2801 12.066 15.0081 11.59C14.7401 11.11 14.6061 10.58 14.6061 10C14.6061 9.56 14.6841 9.15 14.8401 8.77C14.9961 8.386 15.2101 8.05 15.4821 7.762C15.7581 7.47 16.0781 7.242 16.4421 7.078C16.8061 6.914 17.1941 6.832 17.6061 6.832C18.0941 6.832 18.5461 6.946 18.9621 7.174C19.3821 7.402 19.7281 7.708 20.0001 8.092L19.1001 8.578C18.9081 8.342 18.6801 8.16 18.4161 8.032C18.1521 7.904 17.8821 7.84 17.6061 7.84C17.2341 7.84 16.8961 7.94 16.5921 8.14C16.2921 8.336 16.0541 8.598 15.8781 8.926C15.7021 9.254 15.6141 9.612 15.6141 10C15.6141 10.388 15.7021 10.746 15.8781 11.074C16.0581 11.398 16.2981 11.658 16.5981 11.854C16.9021 12.05 17.2381 12.148 17.6061 12.148C17.9021 12.148 18.1801 12.08 18.4401 11.944C18.7001 11.808 18.9201 11.632 19.1001 11.416ZM25.8438 13H24.6858L23.0898 10.246L21.9858 11.566V13H20.9778V4H21.9858V10L24.4998 7H25.8138L23.7738 9.43L25.8438 13ZM29.1842 13.156C28.6322 13.156 28.1282 13.014 27.6722 12.73C27.2202 12.446 26.8582 12.066 26.5862 11.59C26.3182 11.11 26.1842 10.58 26.1842 10C26.1842 9.56 26.2622 9.15 26.4182 8.77C26.5742 8.386 26.7882 8.05 27.0602 7.762C27.3362 7.47 27.6562 7.242 28.0202 7.078C28.3842 6.914 28.7722 6.832 29.1842 6.832C29.6362 6.832 30.0502 6.924 30.4262 7.108C30.8062 7.288 31.1302 7.54 31.3982 7.864C31.6702 8.188 31.8722 8.564 32.0042 8.992C32.1402 9.42 32.1902 9.878 32.1542 10.366H27.2582C27.3062 10.706 27.4182 11.01 27.5942 11.278C27.7702 11.542 27.9942 11.752 28.2662 11.908C28.5422 12.064 28.8482 12.144 29.1842 12.148C29.5442 12.148 29.8702 12.056 30.1622 11.872C30.4542 11.684 30.6902 11.428 30.8702 11.104L31.8962 11.344C31.6562 11.876 31.2942 12.312 30.8102 12.652C30.3262 12.988 29.7842 13.156 29.1842 13.156ZM27.2282 9.574H31.1402C31.1082 9.238 31.0002 8.932 30.8162 8.656C30.6322 8.376 30.3982 8.152 30.1142 7.984C29.8302 7.816 29.5202 7.732 29.1842 7.732C28.8482 7.732 28.5402 7.814 28.2602 7.978C27.9802 8.142 27.7482 8.364 27.5642 8.644C27.3842 8.92 27.2722 9.23 27.2282 9.574ZM36.203 8.008H34.841L34.835 13H33.827L33.833 8.008H32.801V7H33.833L33.827 5.116H34.835L34.841 7H36.203V8.008ZM37.22 7H38.228V13H37.22V7ZM37.736 6.022C37.576 6.022 37.442 5.97 37.334 5.866C37.226 5.762 37.172 5.632 37.172 5.476C37.172 5.32 37.226 5.19 37.334 5.086C37.442 4.982 37.574 4.93 37.73 4.93C37.886 4.93 38.018 4.982 38.126 5.086C38.234 5.19 38.288 5.32 38.288 5.476C38.288 5.632 38.234 5.762 38.126 5.866C38.022 5.97 37.892 6.022 37.736 6.022ZM44.9381 9.268V13H43.9301V9.49C43.9301 9.186 43.8561 8.91 43.7081 8.662C43.5601 8.414 43.3621 8.218 43.1141 8.074C42.8661 7.926 42.5901 7.852 42.2861 7.852C41.9861 7.852 41.7101 7.926 41.4581 8.074C41.2101 8.218 41.0121 8.414 40.8641 8.662C40.7161 8.91 40.6421 9.186 40.6421 9.49V13H39.6341V7H40.6421V7.75C40.8541 7.47 41.1221 7.248 41.4461 7.084C41.7701 6.916 42.1221 6.832 42.5021 6.832C42.9501 6.832 43.3581 6.942 43.7261 7.162C44.0981 7.378 44.3921 7.67 44.6081 8.038C44.8281 8.406 44.9381 8.816 44.9381 9.268ZM50.7068 7H51.7148V13.192C51.7148 13.588 51.6288 13.956 51.4568 14.296C51.2888 14.64 51.0608 14.938 50.7728 15.19C50.4848 15.446 50.1568 15.644 49.7888 15.784C49.4208 15.928 49.0368 16 48.6368 16C48.2208 16 47.8188 15.906 47.4308 15.718C47.0428 15.534 46.7028 15.286 46.4108 14.974C46.1228 14.666 45.9148 14.32 45.7868 13.936L46.7108 13.516C46.7868 13.792 46.9228 14.04 47.1188 14.26C47.3188 14.484 47.5508 14.66 47.8148 14.788C48.0828 14.92 48.3568 14.986 48.6368 14.986C48.9008 14.986 49.1548 14.94 49.3988 14.848C49.6468 14.756 49.8688 14.628 50.0648 14.464C50.2648 14.304 50.4208 14.114 50.5328 13.894C50.6488 13.678 50.7068 13.444 50.7068 13.192V11.998C50.5028 12.342 50.2328 12.622 49.8968 12.838C49.5648 13.05 49.1768 13.156 48.7328 13.156C48.3088 13.156 47.9108 13.074 47.5388 12.91C47.1668 12.746 46.8408 12.52 46.5608 12.232C46.2808 11.94 46.0608 11.604 45.9008 11.224C45.7408 10.844 45.6608 10.436 45.6608 10C45.6608 9.564 45.7408 9.156 45.9008 8.776C46.0608 8.392 46.2808 8.056 46.5608 7.768C46.8408 7.476 47.1668 7.248 47.5388 7.084C47.9108 6.92 48.3088 6.838 48.7328 6.838C49.1768 6.838 49.5648 6.944 49.8968 7.156C50.2328 7.368 50.5028 7.648 50.7068 7.996V7ZM48.7388 12.178C49.1268 12.178 49.4628 12.078 49.7468 11.878C50.0348 11.678 50.2568 11.412 50.4128 11.08C50.5688 10.748 50.6468 10.388 50.6468 10C50.6468 9.6 50.5668 9.236 50.4068 8.908C50.2508 8.576 50.0288 8.312 49.7408 8.116C49.4568 7.916 49.1228 7.816 48.7388 7.816C48.3628 7.816 48.0188 7.914 47.7068 8.11C47.3948 8.306 47.1468 8.57 46.9628 8.902C46.7828 9.23 46.6928 9.596 46.6928 10C46.6928 10.404 46.7848 10.772 46.9688 11.104C47.1568 11.432 47.4048 11.694 47.7128 11.89C48.0248 12.082 48.3668 12.178 48.7388 12.178ZM56.0403 13V4.6H61.1943V5.608H57.0483V7.996H60.4443V9.004H57.0483V11.992H61.1943V13H56.0403ZM65.4181 13H64.1281L61.9381 6.988H63.0121L64.7701 11.83L66.5281 6.988H67.6021L65.4181 13ZM70.985 13.156C70.433 13.156 69.929 13.014 69.473 12.73C69.021 12.446 68.659 12.066 68.387 11.59C68.119 11.11 67.985 10.58 67.985 10C67.985 9.56 68.063 9.15 68.219 8.77C68.375 8.386 68.589 8.05 68.861 7.762C69.137 7.47 69.457 7.242 69.821 7.078C70.185 6.914 70.573 6.832 70.985 6.832C71.437 6.832 71.851 6.924 72.227 7.108C72.607 7.288 72.931 7.54 73.199 7.864C73.471 8.188 73.673 8.564 73.805 8.992C73.941 9.42 73.991 9.878 73.955 10.366H69.059C69.107 10.706 69.219 11.01 69.395 11.278C69.571 11.542 69.795 11.752 70.067 11.908C70.343 12.064 70.649 12.144 70.985 12.148C71.345 12.148 71.671 12.056 71.963 11.872C72.255 11.684 72.491 11.428 72.671 11.104L73.697 11.344C73.457 11.876 73.095 12.312 72.611 12.652C72.127 12.988 71.585 13.156 70.985 13.156ZM69.029 9.574H72.941C72.909 9.238 72.801 8.932 72.617 8.656C72.433 8.376 72.199 8.152 71.915 7.984C71.631 7.816 71.321 7.732 70.985 7.732C70.649 7.732 70.341 7.814 70.061 7.978C69.781 8.142 69.549 8.364 69.365 8.644C69.185 8.92 69.073 9.23 69.029 9.574ZM80.2701 9.268V13H79.2621V9.49C79.2621 9.186 79.1881 8.91 79.0401 8.662C78.8921 8.414 78.6941 8.218 78.4461 8.074C78.1981 7.926 77.9221 7.852 77.6181 7.852C77.3181 7.852 77.0421 7.926 76.7901 8.074C76.5421 8.218 76.3441 8.414 76.1961 8.662C76.0481 8.91 75.9741 9.186 75.9741 9.49V13H74.9661V7H75.9741V7.75C76.1861 7.47 76.4541 7.248 76.7781 7.084C77.1021 6.916 77.4541 6.832 77.8341 6.832C78.2821 6.832 78.6901 6.942 79.0581 7.162C79.4301 7.378 79.7241 7.67 79.9401 8.038C80.1601 8.406 80.2701 8.816 80.2701 9.268ZM84.578 8.008H83.216L83.21 13H82.202L82.208 8.008H81.176V7H82.208L82.202 5.116H83.21L83.216 7H84.578V8.008Z" fill="white"/>
</svg>
