<svg width="197" height="57" viewBox="0 0 197 57" fill="none" xmlns="http://www.w3.org/2000/svg">
<rect x="0.609375" y="11.6021" width="195.782" height="45" rx="22.5" fill="url(#paint0_linear_29_6642)"/>
<path d="M77.9294 31.9066C77.9294 32.3865 77.8137 32.8364 77.5823 33.2563C77.3595 33.6761 77.0039 34.0146 76.5155 34.2717C76.0356 34.5288 75.4272 34.6573 74.6903 34.6573H73.1864V38.1021H71.3869V29.1303H74.6903C75.3844 29.1303 75.9756 29.2502 76.4641 29.4902C76.9525 29.7301 77.3167 30.06 77.5566 30.4799C77.8051 30.8998 77.9294 31.3754 77.9294 31.9066ZM74.6131 33.2048C75.1101 33.2048 75.4786 33.0934 75.7185 32.8707C75.9585 32.6393 76.0784 32.318 76.0784 31.9066C76.0784 31.0326 75.59 30.5956 74.6131 30.5956H73.1864V33.2048H74.6131ZM78.7443 34.5159C78.7443 33.7961 78.8856 33.1577 79.1684 32.6007C79.4598 32.0437 79.8497 31.6153 80.3381 31.3154C80.8351 31.0155 81.3878 30.8655 81.9962 30.8655C82.5275 30.8655 82.9902 30.9726 83.3844 31.1868C83.7871 31.4011 84.1085 31.671 84.3484 31.9966V30.9812H86.1608V38.1021H84.3484V37.0609C84.117 37.3951 83.7957 37.6736 83.3844 37.8964C82.9816 38.1106 82.5146 38.2177 81.9833 38.2177C81.3835 38.2177 80.8351 38.0635 80.3381 37.755C79.8497 37.4465 79.4598 37.0138 79.1684 36.4568C78.8856 35.8912 78.7443 35.2443 78.7443 34.5159ZM84.3484 34.5416C84.3484 34.1046 84.2627 33.7318 84.0913 33.4234C83.92 33.1063 83.6886 32.8664 83.3972 32.7036C83.1059 32.5322 82.7931 32.4465 82.4589 32.4465C82.1247 32.4465 81.8163 32.5279 81.5335 32.6907C81.2507 32.8535 81.0193 33.0934 80.8394 33.4105C80.668 33.719 80.5823 34.0875 80.5823 34.5159C80.5823 34.9444 80.668 35.3214 80.8394 35.647C81.0193 35.9641 81.2507 36.2083 81.5335 36.3797C81.8248 36.5511 82.1333 36.6367 82.4589 36.6367C82.7931 36.6367 83.1059 36.5553 83.3972 36.3925C83.6886 36.2211 83.92 35.9812 84.0913 35.6727C84.2627 35.3557 84.3484 34.9786 84.3484 34.5416ZM94.7307 30.9812L90.3219 41.4697H88.4067L89.9491 37.9221L87.0956 30.9812H89.1137L90.9517 35.9555L92.8155 30.9812H94.7307ZM106.437 38.1021H104.638L100.563 31.9452V38.1021H98.7635V29.1174H100.563L104.638 35.2871V29.1174H106.437V38.1021ZM111.377 38.2177C110.692 38.2177 110.075 38.0678 109.526 37.7679C108.978 37.4594 108.545 37.0266 108.228 36.4696C107.92 35.9127 107.765 35.27 107.765 34.5416C107.765 33.8132 107.924 33.1706 108.241 32.6136C108.567 32.0566 109.008 31.6281 109.565 31.3282C110.122 31.0197 110.743 30.8655 111.429 30.8655C112.114 30.8655 112.736 31.0197 113.293 31.3282C113.849 31.6281 114.287 32.0566 114.604 32.6136C114.929 33.1706 115.092 33.8132 115.092 34.5416C115.092 35.27 114.925 35.9127 114.591 36.4696C114.265 37.0266 113.819 37.4594 113.254 37.7679C112.697 38.0678 112.071 38.2177 111.377 38.2177ZM111.377 36.6496C111.703 36.6496 112.007 36.5725 112.29 36.4182C112.581 36.2554 112.813 36.0155 112.984 35.6984C113.155 35.3814 113.241 34.9958 113.241 34.5416C113.241 33.8647 113.061 33.3462 112.701 32.9863C112.35 32.6179 111.917 32.4336 111.403 32.4336C110.889 32.4336 110.456 32.6179 110.105 32.9863C109.762 33.3462 109.591 33.8647 109.591 34.5416C109.591 35.2186 109.758 35.7413 110.092 36.1097C110.435 36.4696 110.863 36.6496 111.377 36.6496ZM126.284 30.9812L124.201 38.1021H122.26L120.962 33.1277L119.664 38.1021H117.71L115.615 30.9812H117.44L118.7 36.4054L120.062 30.9812H121.965L123.302 36.3925L124.561 30.9812H126.284Z" fill="white"/>
<defs>
<linearGradient id="paint0_linear_29_6642" x1="10.8179" y1="14.1021" x2="186.095" y2="51.5532" gradientUnits="userSpaceOnUse">
<stop stop-color="#007BFF"/>
<stop offset="1" stop-color="#56A8FF"/>
</linearGradient>
</defs>
</svg>
