<svg width="16" height="15" viewBox="0 0 16 15" fill="none" xmlns="http://www.w3.org/2000/svg">
<path d="M8.55342 10.7956L6.86523 9.10742" stroke="#FF0000" stroke-width="1.22777" stroke-miterlimit="10" stroke-linecap="round" stroke-linejoin="round"/>
<path d="M8.53389 9.12598L6.8457 10.8142" stroke="#FF0000" stroke-width="1.22777" stroke-miterlimit="10" stroke-linecap="round" stroke-linejoin="round"/>
<path d="M5.73984 1.36621L3.51758 3.59461" stroke="#FF0000" stroke-width="1.22777" stroke-miterlimit="10" stroke-linecap="round" stroke-linejoin="round"/>
<path d="M9.65625 1.36621L11.8785 3.59461" stroke="#FF0000" stroke-width="1.22777" stroke-miterlimit="10" stroke-linecap="round" stroke-linejoin="round"/>
<path d="M1.56055 4.95726C1.56055 3.82157 2.16829 3.72949 2.92337 3.72949H12.4754C13.2305 3.72949 13.8382 3.82157 13.8382 4.95726C13.8382 6.27711 13.2305 6.18503 12.4754 6.18503H2.92337C2.16829 6.18503 1.56055 6.27711 1.56055 4.95726Z" stroke="#FF0000" stroke-width="1.22777"/>
<path d="M2.48047 6.27734L3.34605 11.5813C3.54249 12.7722 4.01518 13.644 5.77089 13.644H9.47261C11.3818 13.644 11.6642 12.8091 11.8852 11.655L12.9165 6.27734" stroke="#FF0000" stroke-width="1.22777" stroke-linecap="round"/>
</svg>
