<svg width="195" height="46" viewBox="0 0 195 46" fill="none" xmlns="http://www.w3.org/2000/svg">
<rect x="0.609375" y="0.483276" width="193.782" height="45" rx="22.5" fill="url(#paint0_linear_172_2057)"/>
<path d="M76.1427 20.8007C76.1427 20.0038 75.6928 19.5025 74.6903 19.5025H73.1864V22.1375H74.6903C75.6928 22.1375 76.1427 21.6105 76.1427 20.8007ZM71.3869 18.0115H74.7545C76.9139 18.0115 77.9936 19.2583 77.9936 20.7622C77.9936 21.8547 77.3895 22.9601 75.9499 23.3457L78.0965 26.9833H76.0142L74.0347 23.4871H73.1864V26.9833H71.3869V18.0115ZM82.6804 21.2249C81.8192 21.2249 81.1379 21.7776 80.9965 22.7545H84.377C84.3513 21.8161 83.6058 21.2249 82.6804 21.2249ZM86.0608 24.7468C85.6752 26.0578 84.4927 27.099 82.7318 27.099C80.6623 27.099 79.1585 25.6594 79.1585 23.4228C79.1585 21.1735 80.6238 19.7467 82.7318 19.7467C84.7883 19.7467 86.2408 21.1478 86.2408 23.2686C86.2408 23.5 86.2279 23.7313 86.1894 23.9627H80.9837C81.0737 25.0167 81.7935 25.6079 82.6932 25.6079C83.4644 25.6079 83.8886 25.2223 84.12 24.7468H86.0608ZM87.0915 23.3971C87.0915 21.1735 88.5311 19.7467 90.3435 19.7467C91.4617 19.7467 92.2715 20.2609 92.6957 20.8778V19.8624H94.508V27.0347C94.508 28.9627 93.3255 30.4923 90.9862 30.4923C88.981 30.4923 87.58 29.4897 87.4 27.8573H89.1867C89.3666 28.5 90.035 28.9242 90.9347 28.9242C91.9245 28.9242 92.6957 28.3586 92.6957 27.0347V25.9293C92.2715 26.5463 91.4617 27.099 90.3435 27.099C88.5311 27.099 87.0915 25.6208 87.0915 23.3971ZM92.6957 23.4228C92.6957 22.0732 91.7959 21.3277 90.8062 21.3277C89.8422 21.3277 88.9296 22.0475 88.9296 23.3971C88.9296 24.7468 89.8422 25.518 90.8062 25.518C91.7959 25.518 92.6957 24.7725 92.6957 23.4228ZM96.2656 26.9833V19.8624H98.0651V26.9833H96.2656ZM97.1782 19.0141C96.5355 19.0141 96.0728 18.5513 96.0728 17.9601C96.0728 17.3688 96.5355 16.9061 97.1782 16.9061C97.808 16.9061 98.2836 17.3688 98.2836 17.9601C98.2836 18.5513 97.808 19.0141 97.1782 19.0141ZM105.37 24.9524C105.37 26.1735 104.303 27.099 102.568 27.099C100.781 27.099 99.5345 26.0578 99.4574 24.7339H101.27C101.334 25.2738 101.835 25.6851 102.555 25.6851C103.262 25.6851 103.648 25.3637 103.648 24.9524C103.648 23.6799 99.6245 24.4897 99.6245 21.8804C99.6245 20.6979 100.678 19.7467 102.439 19.7467C104.162 19.7467 105.203 20.685 105.306 22.0989H103.583C103.532 21.5462 103.095 21.1735 102.388 21.1735C101.72 21.1735 101.373 21.4434 101.373 21.8547C101.373 23.1529 105.319 22.3431 105.37 24.9524ZM107.13 24.7725V21.3406H106.282V19.8624H107.13V18.1015H108.942V19.8624H110.536V21.3406H108.942V24.7853C108.942 25.2609 109.135 25.4666 109.701 25.4666H110.536V26.9833H109.405C108.043 26.9833 107.13 26.4049 107.13 24.7725ZM114.89 21.2249C114.028 21.2249 113.347 21.7776 113.206 22.7545H116.586C116.561 21.8161 115.815 21.2249 114.89 21.2249ZM118.27 24.7468C117.884 26.0578 116.702 27.099 114.941 27.099C112.872 27.099 111.368 25.6594 111.368 23.4228C111.368 21.1735 112.833 19.7467 114.941 19.7467C116.998 19.7467 118.45 21.1478 118.45 23.2686C118.45 23.5 118.437 23.7313 118.399 23.9627H113.193C113.283 25.0167 114.003 25.6079 114.902 25.6079C115.674 25.6079 116.098 25.2223 116.329 24.7468H118.27ZM121.563 23.4357V26.9833H119.763V19.8624H121.563V20.9678C122.013 20.2352 122.758 19.7596 123.748 19.7596V21.6491H123.272C122.206 21.6491 121.563 22.0604 121.563 23.4357Z" fill="white"/>
<defs>
<linearGradient id="paint0_linear_172_2057" x1="10.7137" y1="2.98329" x2="184.355" y2="39.7057" gradientUnits="userSpaceOnUse">
<stop stop-color="#007BFF"/>
<stop offset="1" stop-color="#56A8FF"/>
</linearGradient>
</defs>
</svg>
