<svg width="178" height="38" viewBox="0 0 178 38" fill="none" xmlns="http://www.w3.org/2000/svg">
<rect x="0.255859" y="0.453125" width="177.544" height="36.875" rx="18.4375" fill="url(#paint0_linear_2_6148)"/>
<path d="M60.7925 22.9644C60.2799 22.9644 59.8165 22.8766 59.4022 22.701C58.9949 22.5255 58.6719 22.2727 58.4332 21.9427C58.1944 21.6126 58.0715 21.2229 58.0645 20.7735H59.6444C59.6655 21.0755 59.7708 21.3142 59.9604 21.4898C60.157 21.6653 60.4239 21.7531 60.7609 21.7531C61.105 21.7531 61.3753 21.6723 61.5719 21.5108C61.7685 21.3423 61.8668 21.1246 61.8668 20.8578C61.8668 20.6401 61.8001 20.4611 61.6667 20.3206C61.5333 20.1802 61.3648 20.0714 61.1612 19.9941C60.9645 19.9098 60.6907 19.8186 60.3396 19.7203C59.8621 19.5798 59.4724 19.4429 59.1705 19.3095C58.8755 19.169 58.6192 18.9619 58.4016 18.688C58.1909 18.4072 58.0856 18.035 58.0856 17.5716C58.0856 17.1362 58.1944 16.757 58.4121 16.434C58.6298 16.111 58.9352 15.8653 59.3284 15.6967C59.7217 15.5212 60.1711 15.4334 60.6766 15.4334C61.435 15.4334 62.0494 15.6195 62.5199 15.9917C62.9974 16.3568 63.2607 16.8694 63.3098 17.5294H61.6878C61.6737 17.2767 61.5649 17.0695 61.3613 16.908C61.1647 16.7395 60.9013 16.6552 60.5713 16.6552C60.2834 16.6552 60.0517 16.729 59.8762 16.8764C59.7076 17.0239 59.6234 17.238 59.6234 17.5189C59.6234 17.7155 59.6866 17.8805 59.813 18.0139C59.9464 18.1403 60.1079 18.2457 60.2975 18.3299C60.4941 18.4072 60.7679 18.4985 61.119 18.6038C61.5965 18.7442 61.9862 18.8847 62.2882 19.0251C62.5901 19.1655 62.8499 19.3762 63.0676 19.6571C63.2853 19.9379 63.3941 20.3066 63.3941 20.763C63.3941 21.1562 63.2923 21.5214 63.0886 21.8584C62.885 22.1955 62.5866 22.4658 62.1934 22.6694C61.8001 22.866 61.3332 22.9644 60.7925 22.9644ZM70.0969 19.8467C70.0969 20.0573 70.0829 20.2469 70.0548 20.4154H65.789C65.8241 20.8367 65.9716 21.1668 66.2314 21.4055C66.4912 21.6442 66.8107 21.7636 67.1898 21.7636C67.7376 21.7636 68.1273 21.5284 68.359 21.0579H69.9494C69.7809 21.6197 69.4579 22.0831 68.9804 22.4482C68.5029 22.8064 67.9166 22.9854 67.2214 22.9854C66.6597 22.9854 66.1541 22.8625 65.7047 22.6168C65.2624 22.364 64.9148 22.0094 64.662 21.553C64.4162 21.0965 64.2933 20.5699 64.2933 19.973C64.2933 19.3692 64.4162 18.839 64.662 18.3826C64.9077 17.9262 65.2518 17.5751 65.6942 17.3293C66.1366 17.0836 66.6457 16.9607 67.2214 16.9607C67.7762 16.9607 68.2712 17.08 68.7066 17.3188C69.1489 17.5575 69.4895 17.8981 69.7282 18.3405C69.974 18.7758 70.0969 19.2779 70.0969 19.8467ZM68.5696 19.4253C68.5626 19.0462 68.4257 18.7442 68.1589 18.5195C67.892 18.2878 67.5655 18.1719 67.1793 18.1719C66.8142 18.1719 66.5052 18.2843 66.2524 18.509C66.0067 18.7267 65.8557 19.0321 65.7995 19.4253H68.5696ZM74.4068 16.9712C75.1019 16.9712 75.6637 17.1924 76.092 17.6348C76.5204 18.0701 76.7345 18.681 76.7345 19.4675V22.8906H75.2599V19.6676C75.2599 19.2042 75.1441 18.8496 74.9123 18.6038C74.6806 18.351 74.3646 18.2246 73.9644 18.2246C73.5571 18.2246 73.2341 18.351 72.9954 18.6038C72.7637 18.8496 72.6478 19.2042 72.6478 19.6676V22.8906H71.1732V17.0555H72.6478V17.7822C72.8444 17.5294 73.0937 17.3328 73.3956 17.1924C73.7046 17.0449 74.0416 16.9712 74.4068 16.9712ZM77.7576 19.952C77.7576 19.3621 77.8735 18.839 78.1052 18.3826C78.3439 17.9262 78.6669 17.5751 79.0742 17.3293C79.4815 17.0836 79.9344 16.9607 80.4329 16.9607C80.8121 16.9607 81.1737 17.0449 81.5178 17.2135C81.8619 17.375 82.1357 17.5926 82.3394 17.8665V15.0964H83.835V22.8906H82.3394V22.0269C82.1568 22.3148 81.9005 22.5466 81.5705 22.7221C81.2404 22.8976 80.8577 22.9854 80.4224 22.9854C79.9309 22.9854 79.4815 22.859 79.0742 22.6062C78.6669 22.3535 78.3439 21.9989 78.1052 21.5424C77.8735 21.079 77.7576 20.5488 77.7576 19.952ZM82.3499 19.973C82.3499 19.6149 82.2797 19.3095 82.1392 19.0567C81.9988 18.7969 81.8092 18.6003 81.5705 18.4669C81.3317 18.3264 81.0754 18.2562 80.8016 18.2562C80.5277 18.2562 80.2749 18.3229 80.0432 18.4563C79.8115 18.5897 79.6219 18.7864 79.4744 19.0462C79.334 19.2989 79.2638 19.6009 79.2638 19.952C79.2638 20.3031 79.334 20.612 79.4744 20.8789C79.6219 21.1387 79.8115 21.3388 80.0432 21.4792C80.2819 21.6197 80.5347 21.6899 80.8016 21.6899C81.0754 21.6899 81.3317 21.6232 81.5705 21.4898C81.8092 21.3493 81.9988 21.1527 82.1392 20.8999C82.2797 20.6401 82.3499 20.3312 82.3499 19.973ZM93.262 24.1862L92.1455 22.8485C91.8366 22.9257 91.5206 22.9644 91.1976 22.9644C90.5094 22.9644 89.8775 22.8029 89.3017 22.4798C88.7259 22.1568 88.2695 21.711 87.9324 21.1422C87.5954 20.5664 87.4268 19.9169 87.4268 19.1936C87.4268 18.4774 87.5954 17.8349 87.9324 17.2661C88.2695 16.6903 88.7259 16.2409 89.3017 15.9179C89.8775 15.5949 90.5094 15.4334 91.1976 15.4334C91.8927 15.4334 92.5247 15.5949 93.0935 15.9179C93.6693 16.2409 94.1222 16.6903 94.4522 17.2661C94.7893 17.8349 94.9578 18.4774 94.9578 19.1936C94.9578 19.8467 94.8173 20.4435 94.5365 20.9842C94.2626 21.5179 93.887 21.9532 93.4095 22.2903L95.0947 24.1862H93.262ZM88.9436 19.1936C88.9436 19.6852 89.0384 20.117 89.228 20.4892C89.4175 20.8613 89.6809 21.1492 90.0179 21.3528C90.362 21.5495 90.7552 21.6478 91.1976 21.6478C91.64 21.6478 92.0297 21.5495 92.3667 21.3528C92.7038 21.1492 92.9671 20.8613 93.1567 20.4892C93.3463 20.117 93.4411 19.6852 93.4411 19.1936C93.4411 18.7021 93.3463 18.2738 93.1567 17.9086C92.9671 17.5365 92.7038 17.2521 92.3667 17.0555C92.0297 16.8589 91.64 16.7605 91.1976 16.7605C90.7552 16.7605 90.362 16.8589 90.0179 17.0555C89.6809 17.2521 89.4175 17.5365 89.228 17.9086C89.0384 18.2738 88.9436 18.7021 88.9436 19.1936ZM101.584 17.0555V22.8906H100.099V22.1533C99.9093 22.4061 99.6601 22.6062 99.3511 22.7537C99.0492 22.8941 98.7191 22.9644 98.361 22.9644C97.9046 22.9644 97.5008 22.8696 97.1498 22.68C96.7987 22.4834 96.5213 22.199 96.3177 21.8268C96.1211 21.4476 96.0227 20.9982 96.0227 20.4786V17.0555H97.4973V20.268C97.4973 20.7314 97.6132 21.0895 97.8449 21.3423C98.0766 21.5881 98.3926 21.711 98.7929 21.711C99.2001 21.711 99.5196 21.5881 99.7513 21.3423C99.9831 21.0895 100.099 20.7314 100.099 20.268V17.0555H101.584ZM105.63 22.9854C105.068 22.9854 104.563 22.8625 104.113 22.6168C103.664 22.364 103.309 22.0094 103.05 21.553C102.797 21.0965 102.67 20.5699 102.67 19.973C102.67 19.3762 102.8 18.8496 103.06 18.3931C103.327 17.9367 103.688 17.5856 104.145 17.3399C104.601 17.0871 105.11 16.9607 105.672 16.9607C106.234 16.9607 106.743 17.0871 107.199 17.3399C107.656 17.5856 108.014 17.9367 108.274 18.3931C108.541 18.8496 108.674 19.3762 108.674 19.973C108.674 20.5699 108.537 21.0965 108.263 21.553C107.996 22.0094 107.631 22.364 107.168 22.6168C106.711 22.8625 106.199 22.9854 105.63 22.9854ZM105.63 21.7004C105.897 21.7004 106.146 21.6372 106.378 21.5108C106.617 21.3774 106.806 21.1808 106.947 20.921C107.087 20.6612 107.157 20.3452 107.157 19.973C107.157 19.4183 107.01 18.9935 106.715 18.6986C106.427 18.3966 106.072 18.2457 105.651 18.2457C105.23 18.2457 104.875 18.3966 104.587 18.6986C104.306 18.9935 104.166 19.4183 104.166 19.973C104.166 20.5278 104.303 20.9561 104.577 21.258C104.858 21.553 105.209 21.7004 105.63 21.7004ZM111.473 18.2667V21.0895C111.473 21.2861 111.518 21.4301 111.609 21.5214C111.708 21.6056 111.869 21.6478 112.094 21.6478H112.779V22.8906H111.852C110.609 22.8906 109.987 22.2867 109.987 21.079V18.2667H109.292V17.0555H109.987V15.6125H111.473V17.0555H112.779V18.2667H111.473ZM119.264 19.8467C119.264 20.0573 119.25 20.2469 119.221 20.4154H114.956C114.991 20.8367 115.138 21.1668 115.398 21.4055C115.658 21.6442 115.977 21.7636 116.357 21.7636C116.904 21.7636 117.294 21.5284 117.526 21.0579H119.116C118.948 21.6197 118.625 22.0831 118.147 22.4482C117.67 22.8064 117.083 22.9854 116.388 22.9854C115.826 22.9854 115.321 22.8625 114.871 22.6168C114.429 22.364 114.081 22.0094 113.829 21.553C113.583 21.0965 113.46 20.5699 113.46 19.973C113.46 19.3692 113.583 18.839 113.829 18.3826C114.074 17.9262 114.418 17.5751 114.861 17.3293C115.303 17.0836 115.812 16.9607 116.388 16.9607C116.943 16.9607 117.438 17.08 117.873 17.3188C118.316 17.5575 118.656 17.8981 118.895 18.3405C119.141 18.7758 119.264 19.2779 119.264 19.8467ZM117.736 19.4253C117.729 19.0462 117.592 18.7442 117.326 18.5195C117.059 18.2878 116.732 18.1719 116.346 18.1719C115.981 18.1719 115.672 18.2843 115.419 18.509C115.173 18.7267 115.022 19.0321 114.966 19.4253H117.736Z" fill="white"/>
<defs>
<linearGradient id="paint0_linear_2_6148" x1="9.51343" y1="2.50175" x2="166.918" y2="39.7212" gradientUnits="userSpaceOnUse">
<stop stop-color="#007BFF"/>
<stop offset="1" stop-color="#56A8FF"/>
</linearGradient>
</defs>
</svg>
