<svg width="245" height="45" viewBox="0 0 245 45" fill="none" xmlns="http://www.w3.org/2000/svg">
<rect x="0.5" width="243.782" height="45" rx="22.5" fill="url(#paint0_linear_9_9660)"/>
<path d="M72.8066 24.564C73.0306 24.9693 73.2813 25.3213 73.5586 25.62C73.8466 25.9187 74.156 26.148 74.4866 26.308C74.828 26.468 75.1853 26.548 75.5586 26.548C75.9533 26.548 76.2786 26.452 76.5346 26.26C76.7906 26.0573 76.9186 25.7853 76.9186 25.444C76.9186 25.156 76.844 24.9267 76.6946 24.756C76.5453 24.5747 76.3053 24.404 75.9746 24.244C75.644 24.084 75.2066 23.9027 74.6626 23.7C74.396 23.604 74.0866 23.4707 73.7346 23.3C73.3933 23.1293 73.068 22.9107 72.7586 22.644C72.4493 22.3667 72.1933 22.036 71.9906 21.652C71.788 21.2573 71.6866 20.7827 71.6866 20.228C71.6866 19.5667 71.8573 18.996 72.1986 18.516C72.5506 18.036 73.02 17.6733 73.6066 17.428C74.204 17.172 74.8653 17.044 75.5906 17.044C76.3373 17.044 76.9826 17.1667 77.5266 17.412C78.0813 17.6573 78.54 17.9667 78.9026 18.34C79.2653 18.7133 79.5426 19.092 79.7346 19.476L77.6706 20.628C77.5106 20.3613 77.324 20.132 77.1106 19.94C76.908 19.7373 76.6786 19.5827 76.4226 19.476C76.1773 19.3587 75.9106 19.3 75.6226 19.3C75.2386 19.3 74.9453 19.3853 74.7426 19.556C74.54 19.716 74.4386 19.9187 74.4386 20.164C74.4386 20.42 74.5346 20.644 74.7266 20.836C74.9293 21.028 75.212 21.204 75.5746 21.364C75.948 21.524 76.396 21.6947 76.9186 21.876C77.3133 22.0253 77.6813 22.2013 78.0226 22.404C78.364 22.596 78.6626 22.8307 78.9186 23.108C79.1853 23.3853 79.3933 23.7053 79.5426 24.068C79.692 24.4307 79.7666 24.8467 79.7666 25.316C79.7666 25.8813 79.6493 26.388 79.4146 26.836C79.1906 27.2733 78.8813 27.6413 78.4866 27.94C78.1026 28.2387 77.66 28.4627 77.1586 28.612C76.668 28.772 76.1613 28.852 75.6386 28.852C74.9133 28.852 74.236 28.724 73.6066 28.468C72.988 28.2013 72.4493 27.844 71.9906 27.396C71.532 26.948 71.1746 26.4573 70.9186 25.924L72.8066 24.564ZM85.0786 28.66C84.2253 28.66 83.484 28.5053 82.8546 28.196C82.236 27.876 81.756 27.428 81.4146 26.852C81.0733 26.276 80.9026 25.5987 80.9026 24.82C80.9026 24.0307 81.068 23.348 81.3986 22.772C81.7293 22.196 82.204 21.7533 82.8226 21.444C83.452 21.1347 84.1933 20.98 85.0466 20.98C85.9 20.98 86.62 21.1293 87.2066 21.428C87.7933 21.716 88.2413 22.1373 88.5506 22.692C88.86 23.2467 89.0146 23.9187 89.0146 24.708C89.0146 24.8253 89.0146 24.9427 89.0146 25.06C89.0146 25.1667 89.004 25.2573 88.9826 25.332H82.2626V23.988H86.8066L86.2306 24.724C86.284 24.6493 86.3266 24.5587 86.3586 24.452C86.4013 24.3347 86.4226 24.2387 86.4226 24.164C86.4226 23.844 86.364 23.5667 86.2466 23.332C86.1293 23.0973 85.964 22.916 85.7506 22.788C85.5373 22.66 85.2866 22.596 84.9986 22.596C84.636 22.596 84.332 22.676 84.0866 22.836C83.8413 22.996 83.6546 23.2413 83.5266 23.572C83.4093 23.892 83.3453 24.2973 83.3346 24.788C83.3346 25.236 83.3986 25.62 83.5266 25.94C83.6546 26.26 83.8466 26.5053 84.1026 26.676C84.3586 26.836 84.6733 26.916 85.0466 26.916C85.4733 26.916 85.836 26.836 86.1346 26.676C86.444 26.516 86.6893 26.276 86.8706 25.956L89.0306 26.484C88.6466 27.2093 88.124 27.7533 87.4626 28.116C86.812 28.4787 86.0173 28.66 85.0786 28.66ZM95.2905 24.02C95.2905 23.5827 95.2052 23.2467 95.0345 23.012C94.8745 22.7773 94.6025 22.66 94.2185 22.66C93.9625 22.66 93.7385 22.7133 93.5465 22.82C93.3545 22.9267 93.2052 23.0813 93.0985 23.284C92.9918 23.4867 92.9385 23.732 92.9385 24.02V28.5H90.5065V21.14H92.9385V22.244C93.1518 21.8387 93.4398 21.524 93.8025 21.3C94.1758 21.076 94.6345 20.964 95.1785 20.964C96.0958 20.964 96.7625 21.2093 97.1785 21.7C97.5945 22.1907 97.8025 22.8787 97.8025 23.764V28.5H95.2905V24.02ZM105.294 16.02H107.71V28.5H105.294V16.02ZM99.2776 24.82C99.2776 23.988 99.443 23.2893 99.7736 22.724C100.115 22.1587 100.552 21.7267 101.086 21.428C101.619 21.1293 102.184 20.98 102.782 20.98C103.4 20.98 103.944 21.1347 104.414 21.444C104.894 21.7533 105.272 22.196 105.55 22.772C105.827 23.3373 105.966 24.02 105.966 24.82C105.966 25.6093 105.827 26.292 105.55 26.868C105.272 27.444 104.894 27.8867 104.414 28.196C103.944 28.5053 103.4 28.66 102.782 28.66C102.184 28.66 101.619 28.5107 101.086 28.212C100.552 27.9133 100.115 27.4813 99.7736 26.916C99.443 26.34 99.2776 25.6413 99.2776 24.82ZM101.822 24.82C101.822 25.204 101.902 25.54 102.062 25.828C102.222 26.1053 102.435 26.324 102.702 26.484C102.968 26.6333 103.262 26.708 103.582 26.708C103.859 26.708 104.126 26.6333 104.382 26.484C104.648 26.3347 104.867 26.1213 105.038 25.844C105.208 25.556 105.294 25.2147 105.294 24.82C105.294 24.4253 105.208 24.0893 105.038 23.812C104.867 23.524 104.648 23.3053 104.382 23.156C104.126 23.0067 103.859 22.932 103.582 22.932C103.262 22.932 102.968 23.012 102.702 23.172C102.435 23.3213 102.222 23.54 102.062 23.828C101.902 24.1053 101.822 24.436 101.822 24.82ZM117.422 23.428H120.222L123.726 28.5H120.558L117.422 23.428ZM114.622 17.3H117.326V28.5H114.622V17.3ZM116.318 19.588V17.3H118.702C119.662 17.3 120.462 17.4547 121.102 17.764C121.742 18.0733 122.227 18.5053 122.558 19.06C122.888 19.604 123.054 20.2387 123.054 20.964C123.054 21.6787 122.888 22.3133 122.558 22.868C122.227 23.412 121.742 23.8387 121.102 24.148C120.462 24.4573 119.662 24.612 118.702 24.612H116.318V22.516H118.51C118.872 22.516 119.182 22.4627 119.438 22.356C119.704 22.2387 119.907 22.0733 120.046 21.86C120.184 21.636 120.254 21.3693 120.254 21.06C120.254 20.7507 120.184 20.4893 120.046 20.276C119.907 20.052 119.704 19.8813 119.438 19.764C119.182 19.6467 118.872 19.588 118.51 19.588H116.318ZM128.485 28.66C127.632 28.66 126.89 28.5053 126.261 28.196C125.642 27.876 125.162 27.428 124.821 26.852C124.48 26.276 124.309 25.5987 124.309 24.82C124.309 24.0307 124.474 23.348 124.805 22.772C125.136 22.196 125.61 21.7533 126.229 21.444C126.858 21.1347 127.6 20.98 128.453 20.98C129.306 20.98 130.026 21.1293 130.613 21.428C131.2 21.716 131.648 22.1373 131.957 22.692C132.266 23.2467 132.421 23.9187 132.421 24.708C132.421 24.8253 132.421 24.9427 132.421 25.06C132.421 25.1667 132.41 25.2573 132.389 25.332H125.669V23.988H130.213L129.637 24.724C129.69 24.6493 129.733 24.5587 129.765 24.452C129.808 24.3347 129.829 24.2387 129.829 24.164C129.829 23.844 129.77 23.5667 129.653 23.332C129.536 23.0973 129.37 22.916 129.157 22.788C128.944 22.66 128.693 22.596 128.405 22.596C128.042 22.596 127.738 22.676 127.493 22.836C127.248 22.996 127.061 23.2413 126.933 23.572C126.816 23.892 126.752 24.2973 126.741 24.788C126.741 25.236 126.805 25.62 126.933 25.94C127.061 26.26 127.253 26.5053 127.509 26.676C127.765 26.836 128.08 26.916 128.453 26.916C128.88 26.916 129.242 26.836 129.541 26.676C129.85 26.516 130.096 26.276 130.277 25.956L132.437 26.484C132.053 27.2093 131.53 27.7533 130.869 28.116C130.218 28.4787 129.424 28.66 128.485 28.66ZM139.497 32.02V21.14H141.913V32.02H139.497ZM133.481 24.82C133.481 23.956 133.646 23.236 133.977 22.66C134.318 22.0733 134.755 21.6307 135.289 21.332C135.822 21.0333 136.387 20.884 136.985 20.884C137.635 20.884 138.19 21.0493 138.649 21.38C139.107 21.7 139.459 22.1533 139.705 22.74C139.95 23.3267 140.073 24.02 140.073 24.82C140.073 25.6093 139.95 26.3027 139.705 26.9C139.459 27.4867 139.107 27.9453 138.649 28.276C138.19 28.596 137.635 28.756 136.985 28.756C136.387 28.756 135.822 28.6067 135.289 28.308C134.755 28.0093 134.318 27.5667 133.977 26.98C133.646 26.3933 133.481 25.6733 133.481 24.82ZM136.025 24.82C136.025 25.204 136.105 25.5293 136.265 25.796C136.425 26.0627 136.638 26.2653 136.905 26.404C137.171 26.5427 137.465 26.612 137.785 26.612C138.062 26.612 138.329 26.548 138.585 26.42C138.851 26.2813 139.07 26.0787 139.241 25.812C139.411 25.5453 139.497 25.2147 139.497 24.82C139.497 24.4253 139.411 24.0947 139.241 23.828C139.07 23.5613 138.851 23.364 138.585 23.236C138.329 23.0973 138.062 23.028 137.785 23.028C137.465 23.028 137.171 23.0973 136.905 23.236C136.638 23.3747 136.425 23.5773 136.265 23.844C136.105 24.1107 136.025 24.436 136.025 24.82ZM146.316 25.62C146.316 26.0467 146.396 26.3827 146.556 26.628C146.716 26.8627 146.993 26.98 147.388 26.98C147.654 26.98 147.878 26.9267 148.06 26.82C148.252 26.7133 148.401 26.5587 148.508 26.356C148.614 26.1533 148.668 25.908 148.668 25.62V21.14H151.084V28.5H148.668V27.396C148.444 27.7907 148.15 28.1053 147.788 28.34C147.425 28.564 146.972 28.676 146.428 28.676C145.51 28.676 144.838 28.4307 144.412 27.94C143.996 27.4387 143.788 26.7507 143.788 25.876V21.14H146.316V25.62ZM156.735 28.66C155.882 28.66 155.14 28.5053 154.511 28.196C153.892 27.876 153.412 27.428 153.071 26.852C152.73 26.276 152.559 25.5987 152.559 24.82C152.559 24.0307 152.724 23.348 153.055 22.772C153.386 22.196 153.86 21.7533 154.479 21.444C155.108 21.1347 155.85 20.98 156.703 20.98C157.556 20.98 158.276 21.1293 158.863 21.428C159.45 21.716 159.898 22.1373 160.207 22.692C160.516 23.2467 160.671 23.9187 160.671 24.708C160.671 24.8253 160.671 24.9427 160.671 25.06C160.671 25.1667 160.66 25.2573 160.639 25.332H153.919V23.988H158.463L157.887 24.724C157.94 24.6493 157.983 24.5587 158.015 24.452C158.058 24.3347 158.079 24.2387 158.079 24.164C158.079 23.844 158.02 23.5667 157.903 23.332C157.786 23.0973 157.62 22.916 157.407 22.788C157.194 22.66 156.943 22.596 156.655 22.596C156.292 22.596 155.988 22.676 155.743 22.836C155.498 22.996 155.311 23.2413 155.183 23.572C155.066 23.892 155.002 24.2973 154.991 24.788C154.991 25.236 155.055 25.62 155.183 25.94C155.311 26.26 155.503 26.5053 155.759 26.676C156.015 26.836 156.33 26.916 156.703 26.916C157.13 26.916 157.492 26.836 157.791 26.676C158.1 26.516 158.346 26.276 158.527 25.956L160.687 26.484C160.303 27.2093 159.78 27.7533 159.119 28.116C158.468 28.4787 157.674 28.66 156.735 28.66ZM162.563 25.828C162.936 26.1373 163.272 26.3827 163.571 26.564C163.88 26.7347 164.152 26.8573 164.387 26.932C164.621 26.996 164.824 27.028 164.995 27.028C165.24 27.028 165.421 26.9747 165.539 26.868C165.656 26.7613 165.715 26.6227 165.715 26.452C165.715 26.292 165.667 26.1587 165.571 26.052C165.475 25.9347 165.309 25.8227 165.075 25.716C164.851 25.6093 164.541 25.4973 164.147 25.38C163.795 25.252 163.459 25.1027 163.139 24.932C162.829 24.7507 162.573 24.5107 162.371 24.212C162.168 23.9133 162.067 23.5293 162.067 23.06C162.067 22.612 162.184 22.2333 162.419 21.924C162.664 21.6147 162.989 21.38 163.395 21.22C163.811 21.06 164.285 20.98 164.819 20.98C165.245 20.98 165.64 21.028 166.003 21.124C166.376 21.22 166.723 21.348 167.043 21.508C167.373 21.668 167.683 21.8547 167.971 22.068L167.107 23.636C166.797 23.348 166.445 23.1133 166.051 22.932C165.656 22.74 165.293 22.644 164.963 22.644C164.739 22.644 164.568 22.6867 164.451 22.772C164.344 22.8573 164.291 22.9693 164.291 23.108C164.291 23.268 164.355 23.4013 164.483 23.508C164.621 23.6147 164.813 23.716 165.059 23.812C165.315 23.8973 165.624 24.0093 165.987 24.148C166.371 24.2867 166.723 24.4467 167.043 24.628C167.373 24.8093 167.635 25.0387 167.827 25.316C168.029 25.5933 168.131 25.9613 168.131 26.42C168.131 27.2093 167.885 27.8067 167.395 28.212C166.915 28.6067 166.237 28.804 165.363 28.804C164.829 28.804 164.333 28.74 163.875 28.612C163.427 28.4947 163.011 28.3347 162.627 28.132C162.243 27.9187 161.885 27.684 161.555 27.428L162.563 25.828ZM168.596 21.14H173.524V23.14H168.596V21.14ZM169.892 18.58H172.212V28.5H169.892V18.58Z" fill="white"/>
<defs>
<linearGradient id="paint0_linear_9_9660" x1="13.2114" y1="2.50001" x2="226.339" y2="59.2033" gradientUnits="userSpaceOnUse">
<stop stop-color="#007BFF"/>
<stop offset="1" stop-color="#56A8FF"/>
</linearGradient>
</defs>
</svg>
