<svg width="26" height="26" viewBox="0 0 26 26" fill="none" xmlns="http://www.w3.org/2000/svg">
<rect width="26" height="26" rx="13" fill="#007BFF"/>
<path d="M15.4805 10.085C16.4805 10.78 17.1705 11.885 17.3105 13.16" stroke="white" stroke-width="0.75" stroke-linecap="round" stroke-linejoin="round"/>
<path d="M8.74414 13.185C8.87414 11.915 9.55414 10.81 10.5441 10.11" stroke="white" stroke-width="0.75" stroke-linecap="round" stroke-linejoin="round"/>
<path d="M11.0957 17.47C11.6757 17.765 12.3357 17.93 13.0307 17.93C13.7007 17.93 14.3307 17.78 14.8957 17.505" stroke="white" stroke-width="0.75" stroke-linecap="round" stroke-linejoin="round"/>
<path d="M13.0306 10.85C13.7983 10.85 14.4206 10.2277 14.4206 9.46001C14.4206 8.69233 13.7983 8.07001 13.0306 8.07001C12.2629 8.07001 11.6406 8.69233 11.6406 9.46001C11.6406 10.2277 12.2629 10.85 13.0306 10.85Z" stroke="white" stroke-width="0.75" stroke-linecap="round" stroke-linejoin="round"/>
<path d="M9.41539 16.96C10.1831 16.96 10.8054 16.3377 10.8054 15.57C10.8054 14.8023 10.1831 14.18 9.41539 14.18C8.64771 14.18 8.02539 14.8023 8.02539 15.57C8.02539 16.3377 8.64771 16.96 9.41539 16.96Z" stroke="white" stroke-width="0.75" stroke-linecap="round" stroke-linejoin="round"/>
<path d="M16.5853 16.96C17.353 16.96 17.9753 16.3377 17.9753 15.57C17.9753 14.8023 17.353 14.18 16.5853 14.18C15.8176 14.18 15.1953 14.8023 15.1953 15.57C15.1953 16.3377 15.8176 16.96 16.5853 16.96Z" stroke="white" stroke-width="0.75" stroke-linecap="round" stroke-linejoin="round"/>
</svg>
