<svg width="188" height="45" viewBox="0 0 188 45" fill="none" xmlns="http://www.w3.org/2000/svg">
<rect x="0.109375" width="187.782" height="45" rx="22.5" fill="url(#paint0_linear_172_2129)"/>
<path d="M77.1594 23.9036C77.1594 25.3175 76.0283 26.59 73.9846 26.59C72.1208 26.59 70.6812 25.6131 70.6555 23.9164H72.5836C72.635 24.6362 73.1106 25.1118 73.946 25.1118C74.7944 25.1118 75.2957 24.6619 75.2957 24.0193C75.2957 22.0784 70.6684 23.248 70.6812 19.9961C70.6812 18.3766 71.9923 17.3997 73.8432 17.3997C75.6813 17.3997 76.9409 18.338 77.0566 19.9575H75.0772C75.0386 19.3663 74.563 18.9035 73.7918 18.8907C73.0849 18.865 72.5579 19.212 72.5579 19.9447C72.5579 21.7442 77.1594 20.7416 77.1594 23.9036ZM78.6938 23.0681V17.5282H80.4933V23.081C80.4933 24.3149 81.1617 24.9576 82.3057 24.9576C83.4625 24.9576 84.1309 24.3149 84.1309 23.081V17.5282H85.9432V23.0681C85.9432 25.4332 84.2466 26.59 82.28 26.59C80.3134 26.59 78.6938 25.4332 78.6938 23.0681ZM92.6819 23.8522C92.6819 23.081 92.1292 22.6182 91.2552 22.6182H89.4814V25.0347H91.2937C92.1678 25.0347 92.6819 24.6105 92.6819 23.8522ZM92.4634 20.1118C92.4634 19.392 91.975 18.9807 91.1266 18.9807H89.4814V21.23H91.1266C91.975 21.23 92.4634 20.8444 92.4634 20.1118ZM94.5071 24.0707C94.5071 25.4974 93.4146 26.5 91.5508 26.5H87.6819V17.5282H91.3837C93.2603 17.5282 94.3015 18.5051 94.3015 19.8419C94.3015 20.9344 93.6459 21.6156 92.7719 21.8984C93.7873 22.0784 94.5071 23.0167 94.5071 24.0707ZM95.9413 26.5V17.5282H97.985L100.838 24.1992L103.692 17.5282H105.723V26.5H103.923V20.6645L101.52 26.5H100.157L97.7408 20.6645V26.5H95.9413ZM107.502 26.5V17.5282H109.301V26.5H107.502ZM110.604 18.9807V17.5282H117.185V18.9807H114.794V26.5H112.995V18.9807H110.604Z" fill="white"/>
<defs>
<linearGradient id="paint0_linear_172_2129" x1="9.9008" y1="2.50001" x2="178.606" y2="37.0739" gradientUnits="userSpaceOnUse">
<stop stop-color="#007BFF"/>
<stop offset="1" stop-color="#56A8FF"/>
</linearGradient>
</defs>
</svg>
