<svg width="169" height="225" viewBox="0 0 169 225" fill="none" xmlns="http://www.w3.org/2000/svg">
<g filter="url(#filter0_d_187_3316)">
<rect x="80" y="65.4833" width="64" height="64" rx="32" fill="#007BFF" shape-rendering="crispEdges"/>
<path d="M95.9268 100.087L98.6868 93.5833H99.8268L95.9268 102.403L92.0268 93.5833H93.1668L95.9268 100.087ZM100.025 100.279C100.025 100.487 100.073 100.667 100.169 100.819C100.273 100.971 100.413 101.087 100.589 101.167C100.773 101.239 100.981 101.275 101.213 101.275C101.509 101.275 101.773 101.215 102.005 101.095C102.245 100.975 102.433 100.807 102.569 100.591C102.713 100.367 102.785 100.111 102.785 99.8233L102.977 100.543C102.977 100.895 102.869 101.187 102.653 101.419C102.445 101.651 102.185 101.823 101.873 101.935C101.569 102.047 101.265 102.103 100.961 102.103C100.625 102.103 100.309 102.035 100.013 101.899C99.7254 101.755 99.4934 101.551 99.3174 101.287C99.1414 101.023 99.0534 100.703 99.0534 100.327C99.0534 99.7913 99.2414 99.3633 99.6174 99.0433C100.001 98.7153 100.533 98.5513 101.213 98.5513C101.613 98.5513 101.945 98.5993 102.209 98.6953C102.481 98.7833 102.697 98.8873 102.857 99.0073C103.017 99.1193 103.125 99.2113 103.181 99.2833V99.8473C102.901 99.6553 102.613 99.5193 102.317 99.4393C102.021 99.3513 101.705 99.3073 101.369 99.3073C101.057 99.3073 100.801 99.3473 100.601 99.4273C100.409 99.5073 100.265 99.6193 100.169 99.7633C100.073 99.9073 100.025 100.079 100.025 100.279ZM99.8814 97.7353L99.4134 97.0273C99.6214 96.8753 99.9054 96.7233 100.265 96.5713C100.633 96.4193 101.073 96.3433 101.585 96.3433C102.017 96.3433 102.393 96.4113 102.713 96.5473C103.041 96.6753 103.293 96.8633 103.469 97.1113C103.653 97.3593 103.745 97.6633 103.745 98.0233V101.983H102.785V98.1553C102.785 97.9633 102.753 97.8073 102.689 97.6873C102.625 97.5593 102.533 97.4593 102.413 97.3873C102.301 97.3153 102.169 97.2633 102.017 97.2313C101.865 97.1993 101.705 97.1833 101.537 97.1833C101.265 97.1833 101.017 97.2153 100.793 97.2793C100.577 97.3433 100.393 97.4193 100.241 97.5073C100.089 97.5953 99.9694 97.6713 99.8814 97.7353ZM105.371 92.6233H106.331V101.983H105.371V92.6233ZM108.136 94.1833C108.136 93.9993 108.2 93.8433 108.328 93.7153C108.464 93.5873 108.62 93.5233 108.796 93.5233C108.98 93.5233 109.136 93.5873 109.264 93.7153C109.392 93.8433 109.456 93.9993 109.456 94.1833C109.456 94.3593 109.392 94.5153 109.264 94.6513C109.136 94.7793 108.98 94.8433 108.796 94.8433C108.62 94.8433 108.464 94.7793 108.328 94.6513C108.2 94.5153 108.136 94.3593 108.136 94.1833ZM108.316 96.4633H109.276V101.983H108.316V96.4633ZM115.394 92.6233H116.354V101.983H115.394V92.6233ZM110.774 99.2233C110.774 98.6233 110.898 98.1113 111.146 97.6873C111.394 97.2553 111.726 96.9233 112.142 96.6913C112.558 96.4593 113.014 96.3433 113.51 96.3433C113.974 96.3433 114.378 96.4593 114.722 96.6913C115.066 96.9233 115.334 97.2553 115.526 97.6873C115.726 98.1113 115.826 98.6233 115.826 99.2233C115.826 99.8153 115.726 100.327 115.526 100.759C115.334 101.191 115.066 101.523 114.722 101.755C114.378 101.987 113.974 102.103 113.51 102.103C113.014 102.103 112.558 101.987 112.142 101.755C111.726 101.523 111.394 101.191 111.146 100.759C110.898 100.327 110.774 99.8153 110.774 99.2233ZM111.746 99.2233C111.746 99.6473 111.83 100.007 111.998 100.303C112.174 100.599 112.406 100.823 112.694 100.975C112.982 101.127 113.294 101.203 113.63 101.203C113.91 101.203 114.186 101.127 114.458 100.975C114.73 100.823 114.954 100.599 115.13 100.303C115.306 100.007 115.394 99.6473 115.394 99.2233C115.394 98.7993 115.306 98.4393 115.13 98.1433C114.954 97.8473 114.73 97.6233 114.458 97.4713C114.186 97.3193 113.91 97.2433 113.63 97.2433C113.294 97.2433 112.982 97.3193 112.694 97.4713C112.406 97.6233 112.174 97.8473 111.998 98.1433C111.83 98.4393 111.746 98.7993 111.746 99.2233ZM118.529 100.279C118.529 100.487 118.577 100.667 118.673 100.819C118.777 100.971 118.917 101.087 119.093 101.167C119.277 101.239 119.485 101.275 119.717 101.275C120.013 101.275 120.277 101.215 120.509 101.095C120.749 100.975 120.937 100.807 121.073 100.591C121.217 100.367 121.289 100.111 121.289 99.8233L121.481 100.543C121.481 100.895 121.373 101.187 121.157 101.419C120.949 101.651 120.689 101.823 120.377 101.935C120.073 102.047 119.769 102.103 119.465 102.103C119.129 102.103 118.813 102.035 118.517 101.899C118.229 101.755 117.997 101.551 117.821 101.287C117.645 101.023 117.557 100.703 117.557 100.327C117.557 99.7913 117.745 99.3633 118.121 99.0433C118.505 98.7153 119.037 98.5513 119.717 98.5513C120.117 98.5513 120.449 98.5993 120.713 98.6953C120.985 98.7833 121.201 98.8873 121.361 99.0073C121.521 99.1193 121.629 99.2113 121.685 99.2833V99.8473C121.405 99.6553 121.117 99.5193 120.821 99.4393C120.525 99.3513 120.209 99.3073 119.873 99.3073C119.561 99.3073 119.305 99.3473 119.105 99.4273C118.913 99.5073 118.769 99.6193 118.673 99.7633C118.577 99.9073 118.529 100.079 118.529 100.279ZM118.385 97.7353L117.917 97.0273C118.125 96.8753 118.409 96.7233 118.769 96.5713C119.137 96.4193 119.577 96.3433 120.089 96.3433C120.521 96.3433 120.897 96.4113 121.217 96.5473C121.545 96.6753 121.797 96.8633 121.973 97.1113C122.157 97.3593 122.249 97.6633 122.249 98.0233V101.983H121.289V98.1553C121.289 97.9633 121.257 97.8073 121.193 97.6873C121.129 97.5593 121.037 97.4593 120.917 97.3873C120.805 97.3153 120.673 97.2633 120.521 97.2313C120.369 97.1993 120.209 97.1833 120.041 97.1833C119.769 97.1833 119.521 97.2153 119.297 97.2793C119.081 97.3433 118.897 97.4193 118.745 97.5073C118.593 97.5953 118.473 97.6713 118.385 97.7353ZM123.035 96.4633H125.795V97.3633H123.035V96.4633ZM123.935 94.5433H124.895V101.983H123.935V94.5433ZM128.893 102.103C128.381 102.103 127.925 101.983 127.525 101.743C127.133 101.495 126.825 101.155 126.601 100.723C126.385 100.291 126.277 99.7913 126.277 99.2233C126.277 98.6473 126.389 98.1433 126.613 97.7113C126.845 97.2793 127.165 96.9433 127.573 96.7033C127.989 96.4633 128.469 96.3433 129.013 96.3433C129.557 96.3433 130.021 96.4593 130.405 96.6913C130.797 96.9153 131.097 97.2393 131.305 97.6633C131.513 98.0873 131.617 98.5913 131.617 99.1753C131.617 99.2313 131.613 99.2913 131.605 99.3553C131.605 99.4113 131.605 99.4473 131.605 99.4633H126.889V98.6473H130.849L130.465 99.1993C130.489 99.1593 130.513 99.0993 130.537 99.0193C130.561 98.9313 130.573 98.8593 130.573 98.8033C130.573 98.4753 130.505 98.1913 130.369 97.9513C130.241 97.7113 130.061 97.5233 129.829 97.3873C129.597 97.2513 129.325 97.1833 129.013 97.1833C128.645 97.1833 128.329 97.2633 128.065 97.4233C127.809 97.5753 127.609 97.7993 127.465 98.0953C127.329 98.3833 127.257 98.7393 127.249 99.1633C127.249 99.5953 127.317 99.9633 127.453 100.267C127.589 100.571 127.789 100.803 128.053 100.963C128.317 101.123 128.637 101.203 129.013 101.203C129.389 101.203 129.721 101.123 130.009 100.963C130.297 100.795 130.541 100.543 130.741 100.207L131.521 100.699C131.233 101.163 130.869 101.515 130.429 101.755C129.997 101.987 129.485 102.103 128.893 102.103Z" fill="white"/>
</g>
<defs>
<filter id="filter0_d_187_3316" x="0" y="0.483276" width="224" height="224" filterUnits="userSpaceOnUse" color-interpolation-filters="sRGB">
<feFlood flood-opacity="0" result="BackgroundImageFix"/>
<feColorMatrix in="SourceAlpha" type="matrix" values="0 0 0 0 0 0 0 0 0 0 0 0 0 0 0 0 0 0 127 0" result="hardAlpha"/>
<feOffset dy="15"/>
<feGaussianBlur stdDeviation="40"/>
<feComposite in2="hardAlpha" operator="out"/>
<feColorMatrix type="matrix" values="0 0 0 0 0 0 0 0 0 0 0 0 0 0 0 0 0 0 0.1 0"/>
<feBlend mode="normal" in2="BackgroundImageFix" result="effect1_dropShadow_187_3316"/>
<feBlend mode="normal" in="SourceGraphic" in2="effect1_dropShadow_187_3316" result="shape"/>
</filter>
</defs>
</svg>
