<svg width="17" height="14" viewBox="0 0 17 14" fill="none" xmlns="http://www.w3.org/2000/svg">
<path d="M11.4587 7.06638C11.4587 8.58401 10.2323 9.81038 8.7147 9.81038C7.19707 9.81038 5.9707 8.58401 5.9707 7.06638C5.9707 5.54875 7.19707 4.32239 8.7147 4.32239C10.2323 4.32239 11.4587 5.54875 11.4587 7.06638Z" stroke="black" stroke-linecap="round" stroke-linejoin="round"/>
<path d="M8.71484 13.4052C11.4205 13.4052 13.9422 11.8109 15.6975 9.0516C16.3873 7.97086 16.3873 6.15431 15.6975 5.07357C13.9422 2.31425 11.4205 0.719971 8.71484 0.719971C6.00917 0.719971 3.48745 2.31425 1.73222 5.07357C1.04239 6.15431 1.04239 7.97086 1.73222 9.0516C3.48745 11.8109 6.00917 13.4052 8.71484 13.4052Z" stroke="black" stroke-linecap="round" stroke-linejoin="round"/>
</svg>
